<?xml version="1.0" standalone="no"?>
<!DOCTYPE svg PUBLIC "-//W3C//DTD SVG 20010904//EN"
 "http://www.w3.org/TR/2001/REC-SVG-20010904/DTD/svg10.dtd">
<svg version="1.0" xmlns="http://www.w3.org/2000/svg"
 width="500.000000pt" height="500.000000pt" viewBox="0 0 500.000000 500.000000"
 preserveAspectRatio="xMidYMid meet">

<g transform="translate(0.000000,500.000000) scale(0.100000,-0.100000)"
fill="#000000" stroke="none">
<path d="M3409 4332 c-9 -4 -38 -32 -65 -63 -81 -93 -533 -586 -674 -735
l-132 -139 -152 -27 c-156 -27 -256 -35 -256 -19 0 9 29 49 123 169 57 73 58
98 1 89 -25 -4 -54 -24 -102 -69 -37 -35 -89 -80 -115 -102 -43 -35 -49 -37
-65 -24 -9 8 -89 78 -177 155 -88 77 -170 145 -182 151 -43 23 -93 9 -93 -26
0 -8 52 -109 115 -224 63 -115 115 -212 115 -216 0 -3 -7 -13 -16 -23 -15 -16
-14 -19 5 -31 12 -7 21 -17 21 -23 -1 -5 -59 -80 -129 -165 -71 -85 -125 -159
-121 -164 5 -4 26 -5 48 -1 41 7 110 60 295 228 l75 68 84 -29 c46 -16 109
-35 141 -42 31 -6 57 -15 57 -20 0 -5 -35 -46 -78 -92 -42 -46 -127 -137 -187
-202 -61 -66 -167 -180 -237 -254 -70 -74 -125 -139 -121 -144 9 -16 124 -3
163 17 19 10 125 108 235 219 l201 201 56 -15 c31 -8 67 -25 80 -37 34 -32 45
-29 68 17 12 23 25 38 30 35 5 -3 19 -23 31 -45 27 -47 37 -49 70 -14 l24 26
-40 34 c-34 29 -37 36 -24 44 9 5 26 18 39 28 l23 19 -21 35 c-12 20 -22 38
-22 42 0 11 39 7 61 -6 17 -11 22 -10 30 5 15 25 66 22 90 -5 l19 -23 30 33
c16 17 36 32 44 32 8 0 39 13 71 30 33 17 92 36 143 45 142 26 314 75 361 102
69 40 121 92 121 120 0 28 -58 93 -83 93 -8 0 -21 7 -28 17 -8 9 -44 31 -81
48 -57 28 -65 35 -53 45 22 19 18 33 -19 69 l-34 33 26 23 c23 20 24 25 13 39
-10 12 -11 19 -2 30 9 10 5 19 -16 40 l-28 28 -21 -25 c-12 -14 -24 -32 -27
-39 -4 -10 -10 -8 -22 7 -25 31 -29 64 -11 84 16 17 20 17 76 2 32 -9 69 -26
83 -39 32 -30 46 -28 62 12 8 19 19 37 24 40 5 3 22 -14 38 -39 15 -25 33 -45
39 -45 6 0 21 12 35 26 l24 26 -47 40 c-27 22 -48 48 -48 59 0 10 14 28 30 41
37 27 37 38 4 69 l-26 24 -19 -24 c-10 -13 -19 -29 -19 -37 0 -27 -16 -13 -38
32 -14 28 -19 50 -14 58 5 6 53 66 106 133 107 134 118 166 61 170 -16 1 -37
-1 -46 -5z m65 -24 c-4 -7 -49 -65 -99 -128 -50 -63 -99 -127 -110 -141 -86
-114 -186 -232 -231 -272 -30 -27 -54 -56 -54 -65 0 -9 -49 -73 -108 -141 -59
-68 -116 -135 -127 -149 -19 -26 -19 -26 0 -18 11 5 27 9 35 11 8 1 9 0 3 -2
-22 -8 -14 -23 11 -23 28 0 42 15 24 26 -17 11 232 53 315 53 120 1 135 -34
37 -84 -43 -22 -50 -29 -50 -55 0 -17 6 -33 14 -36 22 -8 109 41 145 81 19 22
38 35 46 31 20 -7 19 -20 -5 -41 -11 -10 -20 -25 -20 -33 0 -8 12 -2 29 17 29
31 31 32 60 16 59 -30 67 -81 19 -117 -91 -69 -202 -109 -412 -149 -97 -18
-98 -18 -115 1 -10 13 -39 24 -76 31 -85 16 -85 16 -85 37 0 25 -35 56 -55 48
-9 -3 -21 -19 -26 -36 -14 -39 -22 -38 -38 6 l-13 36 58 59 c32 32 55 62 51
66 -4 4 -32 -17 -61 -46 -30 -29 -59 -51 -64 -47 -13 8 -72 -41 -72 -61 0 -20
-132 -172 -146 -168 -14 4 -70 -53 -78 -80 -3 -11 -115 -131 -249 -267 -204
-207 -252 -251 -300 -273 -31 -15 -69 -25 -84 -23 -26 3 -18 14 142 183 94
100 274 293 400 430 127 137 313 337 414 445 101 107 266 285 365 395 184 204
415 444 317 330 -28 -33 -76 -88 -107 -122 -31 -35 -52 -63 -47 -63 6 0 59 53
119 118 59 64 126 136 148 159 44 47 43 71 -2 32 -26 -23 -26 -23 2 9 21 22
39 32 58 32 21 0 27 -4 22 -12z m-194 -349 c29 -56 22 -65 -23 -28 -36 30 -37
32 -21 50 9 11 19 19 20 19 2 0 13 -18 24 -41z m117 -5 c4 -11 -2 -23 -18 -35
-30 -22 -32 -20 -18 19 12 35 26 41 36 16z m-178 -35 c-16 -10 -23 -4 -14 10
3 6 11 8 17 5 6 -4 5 -9 -3 -15z m41 -52 c0 -48 -28 -71 -77 -62 -63 10 -70
18 -42 53 24 31 41 38 92 41 24 1 27 -2 27 -32z m85 13 c11 -17 -5 -32 -21
-19 -7 6 -11 15 -8 20 7 12 21 11 29 -1z m-55 -84 c-12 -38 -27 -46 -37 -20
-5 14 35 69 45 60 2 -3 -1 -21 -8 -40z m108 3 c28 -25 31 -33 21 -45 -10 -13
-13 -12 -24 3 -55 81 -54 94 3 42z m-330 -95 c13 -26 21 -49 18 -51 -7 -7 -76
50 -76 63 0 11 20 34 30 34 3 0 16 -21 28 -46z m98 -23 c-32 -32 -42 -22 -21
19 14 26 19 29 31 19 13 -11 12 -16 -10 -38z m-1570 22 c10 -4 115 -91 233
-195 l214 -188 91 -1 c50 -1 96 -1 101 1 7 1 6 -2 0 -9 -19 -19 -330 -71 -426
-71 -25 0 -37 18 -148 225 -67 124 -119 230 -116 235 7 12 26 13 51 3z m1580
-71 c-8 -9 -19 -13 -22 -9 -10 9 16 38 28 31 6 -4 4 -13 -6 -22z m-133 -9 c10
-53 -42 -78 -109 -53 l-27 11 33 34 c45 46 95 50 103 8z m85 0 c-4 -22 -22
-20 -26 1 -2 10 3 16 13 16 10 0 15 -7 13 -17z m-58 -77 c-12 -38 -27 -46 -37
-20 -5 14 35 69 45 60 2 -3 -1 -21 -8 -40z m136 -35 c-11 -18 -20 -13 -43 24
-34 52 -28 64 13 23 20 -20 33 -41 30 -47z m-936 62 c0 -5 -25 -39 -56 -78
-31 -38 -69 -89 -86 -112 -33 -49 -61 -55 -96 -23 l-21 20 110 100 c95 86 149
120 149 93z m692 -30 c22 -3 47 -16 64 -34 15 -16 26 -29 23 -30 -47 -11 -255
-45 -258 -43 -2 2 21 30 50 63 36 40 59 59 69 55 8 -3 32 -8 52 -11z m177 -17
c12 -18 21 -36 21 -40 0 -3 -20 -6 -45 -6 -25 0 -45 2 -45 4 0 14 32 76 39 76
5 0 19 -15 30 -34z m141 -110 c0 -16 -18 -31 -27 -22 -8 8 5 36 17 36 5 0 10
-6 10 -14z m-34 -55 c-8 -13 -36 -15 -36 -3 0 4 5 13 12 20 14 14 34 0 24 -17z
m-747 -8 c0 -5 -60 -70 -132 -146 l-132 -138 -53 12 c-38 8 -52 15 -48 24 3 8
-4 16 -17 20 -12 4 -46 16 -75 27 -58 23 -81 19 -35 -6 33 -18 19 -21 -26 -5
-29 10 -43 29 -21 29 17 0 11 18 -7 23 -11 2 -4 6 17 10 19 3 67 11 105 17
136 22 167 31 161 46 -3 8 0 16 7 18 6 2 31 9 55 15 23 7 42 18 42 25 0 8 24
16 68 23 93 14 92 14 91 6z m684 -31 c-10 -7 -22 -11 -27 -9 -19 6 -16 24 6
34 29 13 45 -6 21 -25z m-1056 -68 c-3 -3 -12 -4 -19 -1 -8 3 -5 6 6 6 11 1
17 -2 13 -5z m-47 -8 c0 -2 -11 -6 -25 -8 -14 -3 -25 -1 -25 3 0 5 11 9 25 9
14 0 25 -2 25 -4z m-72 -13 c-10 -2 -28 -2 -40 0 -13 2 -5 4 17 4 22 1 32 -1
23 -4z m-203 -27 c12 -12 12 -15 1 -19 -7 -3 -20 3 -29 14 -15 17 -15 19 -1
19 8 0 22 -6 29 -14z m75 5 c0 -5 10 -12 23 -14 14 -3 8 -5 -15 -6 -29 -1 -36
2 -32 14 7 16 24 21 24 6z m720 -83 c0 -15 -16 -8 -50 21 l-35 29 20 21 19 22
23 -43 c12 -24 22 -46 23 -50z m96 47 c4 -9 -4 -23 -17 -34 -30 -24 -35 -20
-19 19 14 33 27 39 36 15z m-777 -12 c0 -8 -252 -235 -299 -271 -29 -22 -70
-37 -70 -25 0 4 52 71 115 148 95 115 121 141 148 146 48 9 107 10 106 2z
m639 -79 c5 -46 -26 -68 -82 -60 -25 4 -48 11 -50 15 -8 12 56 69 84 74 39 7
45 3 48 -29z m262 23 c61 -16 62 -44 0 -74 -59 -31 -80 -29 -125 10 -34 29
-37 35 -26 55 10 18 20 22 59 21 26 0 67 -6 92 -12z m-180 -23 c0 -16 -16 -19
-25 -4 -8 13 4 32 16 25 5 -4 9 -13 9 -21z m-46 -46 c-21 -69 -24 -73 -41 -55
-16 16 -15 19 12 47 34 36 39 37 29 8z m125 -41 c9 -11 8 -17 -3 -26 -12 -10
-19 -5 -40 26 -14 21 -26 41 -26 46 0 9 51 -25 69 -46z m-244 8 l40 -13 -35
-1 c-19 0 -46 6 -60 14 -22 13 -23 14 -5 14 11 0 38 -6 60 -14z m170 5 c3 -6
-1 -13 -10 -16 -19 -8 -30 0 -20 15 8 14 22 14 30 1z m-240 -22 c14 -6 24 -18
23 -26 -5 -28 -27 -24 -43 7 -17 35 -16 36 20 19z m-25 -86 c0 -14 -17 -6 -60
27 -24 19 -24 20 -5 41 l19 21 23 -38 c13 -21 23 -44 23 -51z m97 41 c4 -10
-2 -23 -17 -35 -29 -23 -33 -19 -19 20 12 35 26 41 36 15z m31 -51 c2 -6 -11
-18 -27 -27 -35 -18 -42 -4 -14 27 17 19 34 20 41 0z m-166 -32 c3 -22 -2 -35
-18 -51 -21 -20 -26 -20 -73 -9 -28 7 -51 15 -51 19 0 13 54 59 75 64 50 12
63 8 67 -23z m83 2 c0 -18 -20 -15 -23 4 -3 10 1 15 10 12 7 -3 13 -10 13 -16z
m-56 -81 c-10 -32 -15 -39 -26 -30 -18 16 -16 29 9 56 28 30 32 24 17 -26z
m109 8 c21 -19 31 -36 28 -45 -9 -23 -24 -13 -52 34 -30 49 -22 53 24 11z"/>
<path d="M3076 3914 c-15 -14 -25 -28 -22 -31 8 -8 58 28 64 45 6 19 -11 13
-42 -14z"/>
<path d="M2706 3524 c-55 -57 -96 -107 -93 -111 6 -6 198 188 205 208 10 25
-23 -3 -112 -97z"/>
<path d="M2960 3429 c-52 -11 -97 -22 -99 -25 -14 -14 20 -12 125 7 82 14 138
19 179 15 48 -5 56 -4 41 5 -34 21 -145 20 -246 -2z"/>
<path d="M3295 3287 c-4 -10 -3 -23 4 -30 16 -16 23 -3 12 24 -8 22 -10 22
-16 6z"/>
<path d="M2300 3090 c-67 -71 -118 -130 -113 -130 10 0 253 242 253 253 0 20
-28 -4 -140 -123z"/>
<path d="M3175 3184 c-55 -18 -110 -33 -122 -34 -13 0 -23 -5 -23 -11 0 -15
50 -5 168 32 51 17 90 34 87 40 -4 5 -7 9 -8 8 -1 0 -47 -16 -102 -35z"/>
<path d="M2750 3170 c0 -5 9 -10 21 -10 11 0 17 5 14 10 -3 6 -13 10 -21 10
-8 0 -14 -4 -14 -10z"/>
<path d="M2830 3160 c0 -5 14 -17 30 -27 17 -9 30 -21 30 -25 0 -4 8 -8 17 -8
13 0 11 6 -11 29 -28 29 -66 47 -66 31z"/>
<path d="M2951 3121 c-7 -5 -9 -11 -5 -14 10 -5 54 9 54 18 0 8 -34 6 -49 -4z"/>
<path d="M2100 2869 c-12 -16 -19 -33 -15 -37 7 -7 55 46 55 61 0 17 -20 5
-40 -24z"/>
<path d="M2037 2799 c-10 -13 -92 -102 -183 -197 -92 -95 -164 -176 -160 -179
5 -6 127 118 315 319 29 31 51 63 49 69 -3 8 -11 4 -21 -12z"/>
<path d="M1580 3665 c0 -3 9 -9 19 -13 11 -4 83 -67 161 -141 78 -74 141 -128
139 -120 -7 26 -277 279 -299 279 -11 0 -20 -2 -20 -5z"/>
<path d="M1910 3361 c0 -12 50 -44 58 -36 4 3 -4 15 -18 25 -27 21 -40 25 -40
11z"/>
<path d="M2190 3525 c-18 -21 -3 -32 16 -13 10 9 12 18 6 22 -5 3 -15 -1 -22
-9z"/>
<path d="M2116 3438 c-25 -28 -43 -56 -39 -60 5 -9 102 89 103 105 1 19 -22 3
-64 -45z"/>
<path d="M2150 3112 c0 -6 16 -12 35 -14 22 -2 34 0 32 6 -4 14 -67 21 -67 8z"/>
<path d="M1770 3075 c-41 -41 -71 -77 -67 -81 7 -7 157 134 157 148 0 18 -19
4 -90 -67z"/>
<path d="M1660 2975 c-20 -24 -6 -28 15 -5 10 11 13 20 8 20 -6 0 -16 -7 -23
-15z"/>
<path d="M2793 3063 c-32 -16 -44 -33 -23 -33 21 0 71 31 65 40 -4 6 -7 10 -8
9 -1 0 -17 -8 -34 -16z"/>
<path d="M2914 2214 c-53 -26 -71 -100 -36 -143 9 -12 40 -34 67 -49 60 -32
73 -67 29 -78 -15 -4 -43 -1 -62 6 -32 11 -37 11 -49 -6 -19 -26 -17 -32 17
-49 37 -19 113 -19 150 0 38 20 56 72 40 120 -10 29 -23 41 -70 65 -31 16 -60
35 -63 43 -12 31 26 50 71 37 56 -15 75 40 21 59 -43 15 -78 13 -115 -5z"/>
<path d="M3402 2222 c-9 -7 -12 -48 -10 -173 l3 -164 33 -3 32 -3 0 169 c0
146 -2 171 -16 176 -20 8 -26 7 -42 -2z"/>
<path d="M912 2053 l3 -168 100 0 100 0 0 25 c0 24 -4 25 -65 30 l-65 5 0 40
0 40 58 3 c56 3 57 4 57 32 0 30 0 30 -60 30 l-60 0 0 35 0 34 68 3 c64 3 67
4 67 28 0 25 -1 25 -103 28 l-102 3 2 -168z"/>
<path d="M1182 2053 l3 -168 92 0 c77 0 96 4 120 21 85 62 84 241 -2 294 -26
16 -50 20 -124 20 l-91 0 2 -167z m177 86 c30 -33 37 -100 15 -146 -15 -29
-27 -40 -55 -47 -65 -16 -69 -10 -69 109 l0 105 45 0 c32 0 50 -6 64 -21z"/>
<path d="M1524 2207 c-2 -7 -3 -82 -2 -167 l3 -155 100 0 100 0 3 28 3 27 -65
0 -66 0 0 45 0 45 54 0 c58 0 71 8 61 40 -5 17 -15 20 -61 20 l-54 0 0 35 0
34 63 3 c59 3 62 4 65 31 l3 27 -101 0 c-73 0 -102 -4 -106 -13z"/>
<path d="M1792 2053 l3 -168 30 0 30 0 5 105 5 105 70 -108 c65 -100 71 -107
102 -107 l33 0 0 171 0 170 -32 -3 -33 -3 -5 -98 -5 -97 -63 100 c-63 99 -64
100 -103 100 l-39 0 2 -167z"/>
<path d="M2270 2050 l0 -170 78 0 c142 1 197 49 196 175 -1 72 -22 118 -67
145 -25 16 -50 20 -119 20 l-88 0 0 -170z m175 90 c12 -14 20 -41 23 -80 4
-55 2 -61 -26 -90 -23 -22 -40 -30 -66 -30 l-36 0 0 110 0 110 43 0 c31 0 49
-6 62 -20z"/>
<path d="M2612 2053 l3 -168 98 -3 97 -3 0 31 0 30 -66 0 -65 0 3 43 3 42 58
3 c57 3 58 4 55 30 -3 25 -6 27 -60 30 l-58 3 0 34 0 35 65 0 65 0 0 30 0 30
-100 0 -100 0 2 -167z"/>
<path d="M3092 2193 c3 -26 7 -28 51 -31 l47 -3 0 -140 0 -140 33 3 32 3 3
138 3 137 44 0 c43 0 45 1 45 30 l0 30 -131 0 -130 0 3 -27z"/>
<path d="M3532 2053 l3 -168 32 -3 32 -3 3 108 3 108 70 -105 c67 -100 72
-105 105 -105 l35 0 3 168 2 167 -35 0 -35 0 0 -100 c0 -55 -3 -100 -7 -100
-5 1 -36 45 -69 98 -60 95 -62 97 -103 100 l-41 3 2 -168z"/>
<path d="M3861 2198 c7 -12 28 -47 48 -78 33 -50 36 -63 41 -145 l5 -90 35 0
35 0 3 83 c3 81 5 86 52 163 28 43 50 81 50 84 0 3 -17 5 -38 5 -35 0 -39 -3
-68 -56 l-31 -56 -32 56 c-31 53 -34 56 -72 56 -38 0 -39 -1 -28 -22z"/>
</g>
</svg>
