<?xml version="1.0" standalone="no"?>
<!DOCTYPE svg PUBLIC "-//W3C//DTD SVG 20010904//EN"
 "http://www.w3.org/TR/2001/REC-SVG-20010904/DTD/svg10.dtd">
<svg version="1.0" xmlns="http://www.w3.org/2000/svg"
 width="2025.000000pt" height="980.000000pt" viewBox="0 0 2025.000000 980.000000"
 preserveAspectRatio="xMidYMid meet">

<g transform="translate(0.000000,980.000000) scale(0.100000,-0.100000)"
fill="#000000" stroke="none">
<path d="M7845 9735 c-5 -2 -31 -6 -57 -10 -49 -6 -63 -23 -28 -32 11 -3 20
-9 20 -12 0 -17 -15 -20 -39 -6 -58 31 -92 36 -122 18 -23 -14 -34 -15 -67 -5
-30 9 -53 9 -108 -3 -38 -8 -82 -15 -97 -15 -18 0 -27 -5 -25 -12 3 -9 40 -13
116 -15 62 -2 122 -7 134 -12 12 -4 -29 -6 -93 -4 -112 3 -114 3 -81 -14 31
-16 40 -32 25 -46 -3 -4 -12 1 -19 11 -24 34 -134 52 -134 23 0 -23 126 -77
134 -57 2 6 5 1 5 -11 1 -28 -17 -29 -67 -4 -56 28 -199 71 -238 71 -44 0 -46
-24 -4 -48 74 -42 3 -44 -80 -2 -33 17 -62 30 -65 30 -3 0 -4 -13 -3 -28 1
-15 -1 -33 -6 -40 -13 -21 -26 -13 -26 17 0 31 -18 52 -47 53 -33 1 -206 -24
-232 -34 -25 -9 -25 -10 24 -39 29 -17 39 -27 25 -24 -14 4 -34 13 -45 19 -34
21 -71 26 -105 15 -28 -10 -31 -15 -27 -38 8 -38 -6 -55 -49 -58 -46 -3 -67
-10 -60 -21 3 -5 -8 -6 -25 -4 -29 4 -165 -54 -188 -81 -21 -26 5 -41 72 -40
l64 0 -23 -46 c-12 -26 -28 -52 -36 -58 -7 -6 -43 -11 -79 -11 -41 1 -76 -4
-95 -14 -26 -14 -63 -24 -162 -43 -41 -8 -63 -43 -36 -59 31 -18 88 -36 100
-32 6 2 16 -4 22 -14 9 -15 24 -18 79 -18 37 0 76 4 86 10 12 6 23 6 33 -2 24
-21 5 -30 -61 -30 -35 0 -67 -4 -70 -10 -3 -5 -30 -10 -60 -10 -30 0 -56 -4
-59 -9 -9 -13 22 -34 42 -29 10 3 23 -1 30 -9 7 -7 27 -13 45 -14 l32 -1 -32
-10 c-18 -6 -33 -14 -33 -19 0 -9 72 -35 117 -43 24 -4 31 -2 27 7 -3 10 10
13 53 14 32 0 76 3 98 6 83 11 300 -50 300 -85 0 -18 33 -58 48 -58 5 0 19
-10 32 -22 18 -17 21 -27 14 -45 -7 -19 -5 -23 11 -23 19 0 36 -32 25 -49 -3
-5 4 -16 16 -25 18 -12 20 -18 10 -30 -10 -12 -8 -15 16 -19 l28 -4 -27 -2
c-16 0 -28 -5 -28 -11 0 -10 14 -14 39 -11 7 2 10 -2 6 -8 -3 -6 -12 -11 -19
-11 -7 0 -13 -7 -13 -15 0 -9 6 -14 13 -11 9 3 10 -3 5 -22 -12 -41 -3 -52 41
-52 29 0 45 6 59 23 15 18 18 19 19 5 0 -14 6 -16 33 -12 31 5 31 5 8 -8 -35
-19 -31 -33 12 -36 20 -2 37 -8 37 -13 0 -6 -4 -7 -10 -4 -5 3 -10 1 -10 -5 0
-7 8 -9 20 -5 15 5 20 2 20 -13 0 -11 6 -23 13 -25 7 -3 4 -6 -6 -6 -10 -1
-30 5 -45 13 -34 17 -120 27 -128 14 -3 -5 0 -15 6 -23 10 -12 9 -15 -3 -15
-16 0 -32 -44 -22 -60 4 -6 15 -10 26 -10 10 0 19 -7 19 -15 0 -18 20 -19 71
-3 44 13 51 34 15 48 -45 17 -36 28 9 11 25 -9 45 -22 45 -28 0 -18 11 -16 26
4 7 10 16 15 19 11 4 -4 0 -14 -9 -23 -21 -21 -20 -42 2 -48 13 -4 12 -5 -4
-6 -23 -1 -38 -26 -28 -43 5 -7 -8 -8 -40 -4 -45 7 -76 -3 -76 -24 0 -14 69
-21 90 -10 21 11 27 1 9 -17 -8 -8 -22 -8 -46 -1 -30 8 -39 7 -55 -9 -27 -28
-28 -74 -2 -88 22 -11 22 -11 2 -35 -18 -22 -18 -25 -4 -36 9 -6 16 -19 16
-28 0 -9 7 -16 15 -16 18 0 45 -50 45 -85 0 -31 14 -32 34 -3 9 12 16 19 16
14 0 -5 7 -3 15 4 9 8 15 8 15 2 0 -6 -9 -13 -19 -17 -41 -13 -34 -70 15 -122
19 -20 34 -41 34 -47 0 -6 12 -22 25 -35 14 -13 25 -29 25 -36 0 -8 14 -23 30
-35 17 -12 30 -28 30 -35 0 -11 8 -13 29 -9 16 4 32 1 35 -5 10 -16 29 -13 23
3 -3 8 2 16 14 19 13 3 19 0 19 -10 0 -35 86 -88 132 -81 17 2 23 9 22 26 0
12 3 22 7 22 10 0 39 87 31 94 -3 3 0 6 6 6 13 0 11 47 -3 69 -5 10 -4 12 3 7
7 -4 29 11 52 35 31 33 38 47 34 66 -4 13 -1 29 5 37 14 16 4 46 -15 46 -8 0
-14 5 -14 10 0 6 13 9 28 8 38 -3 57 9 41 28 -9 12 -5 14 29 14 50 0 79 25 73
63 0 4 6 7 14 7 19 0 19 -9 0 -34 -21 -28 -19 -36 10 -36 14 0 25 4 25 9 0 5
14 12 30 16 17 4 36 15 42 25 6 10 17 16 23 13 17 -6 71 42 95 85 12 21 34 45
50 54 22 12 27 21 23 38 -6 22 -5 22 26 5 35 -18 25 -19 221 27 78 19 115 34
147 62 31 27 41 34 92 57 l54 24 -64 9 c-85 13 -197 11 -215 -4 -9 -8 -14 -9
-14 -2 0 13 48 38 90 47 22 5 30 12 28 23 -3 13 -14 17 -53 15 -28 -1 -39 1
-25 4 60 12 69 52 13 55 -36 1 -37 1 -6 5 44 6 106 -28 131 -72 17 -27 28 -35
51 -35 16 0 32 6 34 13 4 10 6 10 6 0 1 -7 13 -13 27 -13 22 0 25 3 20 23 -3
12 -6 35 -6 51 0 23 -3 27 -20 23 -22 -6 -26 3 -9 20 7 7 -10 20 -60 43 -42
20 -67 38 -65 45 3 7 -2 19 -11 28 -11 12 -12 18 -3 23 6 4 14 2 16 -4 9 -29
43 -56 83 -68 47 -14 59 -8 59 33 0 16 -13 28 -52 47 -29 14 -62 26 -74 26
-12 0 -24 6 -27 13 -7 18 43 15 74 -6 42 -28 152 -20 169 13 13 23 5 29 -52
36 -30 4 -48 12 -48 20 0 20 17 26 24 8 5 -14 16 -16 63 -10 77 9 88 20 61 57
-25 33 -43 37 -57 12 -9 -16 -10 -16 -11 5 0 12 -6 22 -12 22 -7 1 0 8 15 16
22 12 32 13 42 4 16 -14 35 -5 35 15 0 8 -9 32 -20 54 -20 37 -42 51 -82 51
-9 0 -30 12 -45 26 l-28 26 25 -3 c14 -2 40 3 59 10 26 11 44 12 85 4 59 -13
66 -10 66 23 0 20 -5 24 -27 24 -48 0 -103 20 -103 37 0 12 8 14 38 9 l37 -5
-30 14 c-40 19 -65 18 -87 -2 -20 -18 -23 -7 -9 29 10 24 17 46 21 63 3 18 22
35 39 35 9 0 24 8 33 19 8 10 22 21 29 24 12 5 12 7 0 15 -8 6 -12 19 -8 31 4
16 1 21 -14 21 -24 0 -35 25 -20 44 8 10 35 14 94 13 51 0 91 4 107 13 l24 13
-24 10 -25 10 25 4 c57 8 110 26 110 38 0 7 17 15 38 19 20 3 54 17 76 30 l38
24 -29 16 c-35 17 -184 38 -210 29 -10 -3 -32 -17 -50 -29 -33 -25 -64 -25
-126 -2 -23 9 -33 7 -55 -9 -15 -11 -54 -33 -87 -48 -33 -15 -64 -30 -70 -33
-5 -3 16 20 48 50 45 42 58 61 55 79 -3 21 -9 24 -49 27 -37 2 -50 -2 -73 -23
-32 -30 -40 -31 -65 -6 -24 24 -145 36 -220 21 -36 -7 -58 -7 -65 0 -15 15 7
19 195 29 170 9 249 25 249 50 0 11 -15 16 -94 30 -33 6 -67 18 -76 26 -13 12
-34 14 -107 9 -59 -5 -96 -3 -109 4 -15 9 0 11 71 12 105 0 104 13 -5 31 -68
11 -471 23 -495 14z m305 -65 c-34 -11 -60 -11 -35 0 11 5 29 8 40 8 16 0 15
-2 -5 -8z m-1405 -208 c-3 -3 -11 0 -18 7 -9 10 -8 11 6 5 10 -3 15 -9 12 -12z
m1595 -1180 c0 -18 -32 -51 -45 -46 -13 5 -13 8 0 21 9 8 13 19 10 24 -4 5 3
9 14 9 12 0 21 -3 21 -8z"/>
<path d="M5892 9680 c-42 -10 -50 -18 -32 -31 12 -9 10 -9 -5 -3 -32 12 -127
19 -170 14 l-40 -6 38 -19 c20 -10 37 -22 37 -27 0 -12 -3 -11 -51 17 -36 20
-57 25 -114 25 -67 -1 -69 -1 -45 -16 24 -14 22 -14 -29 -8 -40 5 -52 3 -46
-6 5 -8 0 -11 -18 -8 -15 1 -26 -1 -26 -6 1 -5 -5 -13 -13 -18 -10 -7 -9 -12
7 -24 19 -15 19 -15 -9 -8 -21 5 -27 4 -22 -5 10 -16 -7 -14 -30 4 -40 31 -92
38 -141 19 l-46 -18 34 -13 c31 -11 25 -12 -66 -11 -99 1 -199 -13 -238 -33
-29 -16 -4 -28 47 -22 39 5 40 4 21 -11 -24 -19 -8 -21 44 -6 l34 9 -31 -28
c-36 -31 -33 -40 12 -42 17 -1 23 -3 14 -6 -29 -7 -21 -19 23 -33 40 -13 45
-13 90 13 27 15 59 27 72 27 16 0 10 -6 -23 -21 -35 -16 -41 -22 -30 -29 19
-12 133 -13 146 -1 5 4 25 11 44 15 25 4 31 3 20 -4 -11 -7 -5 -10 25 -10 56
0 116 18 145 44 23 20 72 46 88 46 3 0 -4 -7 -16 -16 -32 -22 -27 -34 16 -35
l37 -1 -50 -13 c-27 -7 -72 -20 -98 -29 -26 -9 -67 -16 -90 -16 -56 0 -73 -11
-50 -31 30 -25 75 -51 102 -59 l26 -8 -25 -1 c-14 0 -34 5 -46 12 -95 55 -122
65 -189 68 -65 4 -70 2 -73 -17 -4 -25 22 -54 47 -54 24 0 102 -69 79 -70 -10
0 -18 -4 -18 -10 0 -5 21 -10 46 -10 25 0 43 -4 40 -9 -3 -5 -53 -8 -111 -8
-106 1 -106 1 -130 -28 -37 -45 -33 -59 15 -52 24 3 40 1 43 -6 2 -8 13 -5 31
7 20 13 31 15 39 7 7 -7 7 -11 1 -11 -6 0 -18 -6 -28 -13 -14 -10 -15 -18 -7
-40 13 -34 2 -34 -33 -2 -31 28 -61 34 -104 20 -18 -6 2 -42 28 -50 30 -10 24
-25 -10 -25 -44 0 -108 -35 -113 -62 l-4 -23 -2 22 c-1 22 -3 22 -101 18 -60
-3 -99 -1 -95 4 3 6 0 13 -6 17 -21 13 -133 30 -158 24 -30 -7 -36 -37 -10
-45 10 -4 19 -10 19 -14 0 -18 62 -33 110 -29 47 5 52 3 80 -29 25 -28 28 -37
19 -55 -8 -14 -8 -23 0 -31 6 -6 11 -19 11 -29 0 -18 35 -43 49 -34 4 3 27 -2
49 -11 35 -13 44 -14 58 -2 23 19 44 20 44 2 0 -12 13 -14 83 -9 45 3 103 5
129 6 27 0 53 6 60 14 10 11 15 11 23 0 10 -13 43 -18 108 -16 30 2 40 7 44
22 3 11 14 20 25 20 11 0 16 5 13 11 -4 6 -13 8 -21 5 -8 -3 -14 -2 -14 3 0 5
9 11 20 14 26 7 17 29 -18 43 -72 30 -92 33 -152 30 -67 -5 -147 -23 -166 -37
-6 -5 -24 -5 -40 0 -46 15 -114 20 -114 9 0 -5 -6 -8 -12 -5 -7 2 -13 9 -13
15 0 15 -9 22 -52 37 l-38 14 43 1 c23 0 42 4 42 9 0 9 147 5 227 -5 33 -5 44
-3 49 9 4 13 11 14 28 6 15 -7 35 -8 57 -1 51 14 99 4 99 -20 0 -17 4 -19 33
-12 60 13 122 48 122 69 0 17 -6 19 -32 17 -24 -3 -33 1 -33 11 0 16 -96 32
-125 21 -15 -6 -15 -4 -4 14 12 19 15 19 41 6 20 -10 43 -13 79 -8 56 8 80 24
72 52 -4 17 3 20 53 25 40 4 63 12 78 28 17 18 18 22 6 27 -10 3 -4 9 17 16
47 16 42 29 -19 48 l-53 17 54 -2 c37 -1 55 2 59 11 2 9 -3 13 -14 12 -36 -4
-60 0 -79 13 -16 12 -11 13 36 9 70 -5 125 9 121 31 -2 14 1 15 23 7 33 -12
72 -3 98 23 16 16 17 21 6 28 -10 6 -6 9 13 9 20 0 26 4 22 14 -4 11 0 13 15
9 12 -3 32 4 50 16 16 11 60 35 97 51 122 55 135 63 126 72 -5 5 -42 1 -86 -8
-43 -9 -80 -13 -83 -10 -4 3 2 6 13 6 10 0 31 6 46 14 14 8 50 17 80 21 60 8
169 40 211 62 23 12 26 17 16 29 -6 8 -29 14 -52 14 -26 0 -45 6 -56 18 -20
23 -72 32 -131 22 -25 -4 -65 -10 -90 -14 l-45 -6 50 17 50 17 -85 10 c-47 6
-90 14 -95 18 -6 3 -29 3 -52 -1 -22 -5 -47 -5 -54 -1 -8 4 -29 4 -47 0z
m-717 -265 c-16 -8 -50 -14 -75 -13 l-45 1 47 6 c26 4 50 10 54 14 4 4 17 7
28 6 17 0 16 -3 -9 -14z m458 -252 c-7 -2 -21 -2 -30 0 -10 3 -4 5 12 5 17 0
24 -2 18 -5z m-321 -173 c-21 -20 -43 -30 -63 -30 -17 0 -28 4 -24 10 3 6 21
10 39 10 20 0 40 8 51 20 10 11 21 20 24 20 3 0 -9 -14 -27 -30z"/>
<path d="M8770 9532 c0 -10 41 -35 47 -28 9 8 -17 36 -33 36 -8 0 -14 -3 -14
-8z"/>
<path d="M13005 9500 c-16 -7 -13 -9 18 -9 20 -1 37 4 37 9 0 12 -27 12 -55 0z"/>
<path d="M13235 9480 c28 -12 65 -12 65 0 0 6 -19 10 -42 9 -33 0 -38 -2 -23
-9z"/>
<path d="M12921 9455 c-18 -8 -42 -15 -53 -15 -10 0 -17 -4 -13 -10 10 -17
116 -10 137 10 19 17 18 18 -4 24 -29 7 -27 8 -67 -9z"/>
<path d="M4732 9443 c-29 -6 -18 -23 16 -24 l27 -1 -25 -8 c-14 -4 -39 -8 -56
-9 -35 -1 -64 -25 -42 -34 7 -3 1 -6 -14 -6 -30 -1 -35 -10 -16 -29 9 -9 8
-12 -7 -12 -38 0 3 -23 43 -24 22 0 38 -5 35 -10 -3 -4 -30 -6 -60 -3 -56 6
-58 3 -25 -35 8 -10 25 -18 36 -18 17 0 18 -2 6 -10 -13 -8 -13 -11 -1 -19 14
-9 94 -8 126 2 11 4 34 3 50 -2 24 -7 26 -9 8 -10 -12 -1 -25 -5 -28 -11 -3
-5 -12 -10 -20 -10 -8 0 -26 -5 -40 -10 l-27 -10 25 -20 c14 -11 34 -20 46
-20 13 0 19 -5 15 -14 -6 -15 29 -31 89 -42 25 -4 37 -3 37 6 0 7 8 9 21 5 19
-6 20 -5 9 17 l-13 23 25 -22 c30 -28 48 -29 48 -4 0 14 5 18 20 14 17 -5 19
-1 16 23 -2 16 -1 21 1 12 6 -23 6 -23 51 6 20 13 54 29 75 36 41 13 45 21 21
41 -18 14 -20 15 -70 17 -28 2 -31 5 -26 28 3 20 0 26 -17 31 -12 3 -20 12
-19 20 4 23 -28 41 -44 25 -10 -10 -10 -15 2 -22 12 -8 10 -10 -8 -10 -16 0
-26 7 -29 20 -4 14 -14 20 -32 20 -27 0 -111 54 -111 71 0 20 -75 40 -118 32z"/>
<path d="M13030 9440 c0 -5 7 -10 15 -10 8 0 15 5 15 10 0 6 -7 10 -15 10 -8
0 -15 -4 -15 -10z"/>
<path d="M14730 9420 c0 -5 19 -10 43 -9 32 0 37 2 22 9 -28 12 -65 12 -65 0z"/>
<path d="M15005 9420 c-3 -5 -28 -12 -55 -16 -57 -8 -93 -28 -72 -42 17 -11
-2 -28 -36 -34 -40 -6 -25 -22 35 -40 44 -14 65 -15 88 -8 l30 10 -29 -25
c-16 -13 -37 -27 -47 -30 -28 -9 -23 -25 7 -25 15 0 36 -10 48 -23 16 -17 34
-24 64 -25 23 -1 59 -9 78 -17 46 -19 114 -19 140 -1 19 15 19 15 -1 30 -11 8
-15 16 -10 16 13 0 38 57 31 69 -9 14 -65 24 -79 13 -7 -5 -20 -12 -30 -15
-14 -5 -16 -3 -8 12 14 26 6 30 -48 27 -25 -2 -31 -1 -13 1 34 5 39 12 20 31
-10 10 -8 14 10 18 28 8 28 21 1 29 -12 4 -37 18 -56 31 -38 26 -58 30 -68 14z"/>
<path d="M12580 9410 c0 -5 5 -10 10 -10 6 0 10 5 10 10 0 6 -4 10 -10 10 -5
0 -10 -4 -10 -10z"/>
<path d="M13330 9412 c0 -5 -18 -13 -41 -18 -54 -12 -54 -28 0 -32 54 -4 103
15 99 37 -3 17 -58 29 -58 13z"/>
<path d="M12793 9395 c-18 -20 -17 -22 25 -30 56 -11 132 -9 144 3 7 7 19 7
35 1 41 -15 61 11 23 31 -22 12 -73 3 -64 -11 7 -11 -2 -11 -24 0 -34 17 -126
21 -139 6z"/>
<path d="M13115 9400 c-4 -6 6 -10 24 -10 16 0 33 5 36 10 4 6 -6 10 -24 10
-16 0 -33 -4 -36 -10z"/>
<path d="M12528 9379 c-10 -5 -18 -17 -18 -24 0 -20 -26 -19 -34 1 -6 14 -17
16 -75 10 -38 -3 -79 -10 -92 -14 -20 -8 -19 -9 15 -15 25 -4 52 -1 74 9 20 8
39 11 44 6 4 -4 -8 -14 -27 -21 -40 -14 -48 -36 -10 -29 13 3 26 1 28 -5 1 -5
16 -7 35 -2 18 3 30 11 26 16 -3 5 4 9 15 9 11 0 23 5 26 10 3 6 18 10 33 10
15 1 37 6 50 13 l23 13 -26 12 c-31 15 -64 15 -87 1z"/>
<path d="M14140 9380 c0 -5 14 -7 33 -3 45 8 47 13 4 13 -20 0 -37 -4 -37 -10z"/>
<path d="M13071 9372 c-6 -2 -11 -12 -11 -22 0 -14 10 -19 47 -22 48 -4 110
18 105 37 -2 9 -116 15 -141 7z"/>
<path d="M12765 9340 c-3 -5 1 -10 10 -10 9 0 13 5 10 10 -3 6 -8 10 -10 10
-2 0 -7 -4 -10 -10z"/>
<path d="M10916 9316 c5 -12 2 -15 -12 -9 -12 5 -15 3 -9 -6 6 -10 2 -11 -16
-6 -13 4 -25 12 -27 16 -6 16 -18 9 -19 -11 -1 -11 4 -20 10 -20 7 0 6 -4 -3
-10 -24 -16 7 -30 68 -30 29 0 51 -4 48 -9 -3 -5 -15 -7 -26 -4 -28 7 -25 -13
3 -21 12 -4 51 -12 87 -17 115 -18 190 -12 223 19 12 11 32 25 45 31 13 7 22
20 20 29 -4 20 -142 46 -169 31 -26 -13 -42 -11 -36 6 4 8 2 17 -3 20 -15 9
-40 -7 -40 -26 0 -23 6 -23 -60 2 -87 33 -91 34 -84 15z"/>
<path d="M12914 9323 c-21 -3 -34 -11 -37 -24 -4 -16 0 -19 29 -19 19 0 34 5
34 11 0 5 5 7 11 4 12 -8 99 16 99 27 0 8 -77 8 -136 1z"/>
<path d="M12692 9311 c-20 -12 6 -20 42 -14 20 4 24 8 14 14 -17 11 -39 11
-56 0z"/>
<path d="M4400 9285 c-9 -11 -4 -17 25 -30 47 -19 47 -19 43 7 -4 27 -52 43
-68 23z"/>
<path d="M11618 9293 c6 -2 18 -2 25 0 6 3 1 5 -13 5 -14 0 -19 -2 -12 -5z"/>
<path d="M12545 9290 c4 -6 11 -8 16 -5 14 9 11 15 -7 15 -8 0 -12 -5 -9 -10z"/>
<path d="M13052 9281 c-11 -7 -11 -9 0 -13 18 -7 39 2 32 13 -6 11 -15 11 -32
0z"/>
<path d="M8817 9273 c-26 -7 -15 -27 17 -31 27 -3 56 12 56 29 0 9 -41 10 -73
2z"/>
<path d="M10730 9259 c-12 -21 -10 -54 4 -94 6 -15 2 -14 -16 7 -12 15 -31 38
-41 52 -15 22 -21 24 -38 16 -10 -6 -19 -17 -19 -25 0 -19 -19 -19 -44 0 -18
13 -17 14 8 21 14 3 23 10 20 15 -3 5 -10 7 -15 3 -5 -3 -43 -5 -84 -5 -41 0
-77 -4 -81 -10 -8 -14 16 -69 30 -69 7 0 17 5 24 12 9 9 12 7 12 -9 0 -12 -6
-23 -12 -26 -8 -2 5 -21 32 -46 38 -35 51 -41 80 -39 28 2 36 8 38 26 3 23 42
33 42 11 0 -8 12 -10 34 -6 25 4 36 1 40 -9 3 -9 -1 -14 -12 -14 -9 0 -41 -9
-70 -20 -29 -11 -57 -18 -62 -15 -15 10 -20 -12 -5 -25 8 -7 34 -10 67 -7 29
2 42 2 28 0 -14 -3 -29 -9 -34 -14 -6 -5 -18 -9 -28 -9 -28 0 -21 -30 10 -43
15 -7 46 -25 70 -40 49 -32 64 -31 69 1 4 30 31 70 54 83 11 5 19 21 19 34 0
16 6 25 15 25 8 0 15 6 15 13 0 24 45 57 76 56 28 -1 28 -1 4 -8 l-25 -7 33
-33 c32 -32 32 -34 16 -59 l-16 -25 46 5 c36 4 46 2 46 -9 0 -18 46 -10 71 13
8 8 23 14 32 14 9 0 17 5 17 10 0 6 -12 10 -27 10 -35 0 -55 13 -51 31 2 8 -7
15 -21 17 -14 2 -39 19 -58 38 -18 19 -37 34 -43 34 -5 0 -9 5 -7 12 1 7 -14
12 -36 14 -43 3 -67 18 -67 41 0 11 -7 14 -26 10 -18 -3 -24 -1 -20 9 6 15
-32 46 -46 38 -5 -3 -15 -1 -23 6 -11 9 -16 7 -25 -11z"/>
<path d="M12570 9270 c0 -5 14 -10 30 -10 17 0 30 5 30 10 0 6 -13 10 -30 10
-16 0 -30 -4 -30 -10z"/>
<path d="M14790 9272 c0 -13 51 -42 74 -42 28 0 69 21 60 30 -14 14 -134 25
-134 12z"/>
<path d="M13985 9220 c11 -5 29 -9 40 -9 17 -1 17 1 5 9 -8 5 -26 9 -40 9 -23
0 -23 -1 -5 -9z"/>
<path d="M15390 9200 c0 -5 -6 -7 -14 -4 -8 3 -22 -3 -30 -13 -9 -10 -25 -28
-36 -40 -11 -13 -20 -27 -20 -32 0 -6 -11 -22 -25 -37 -35 -38 -18 -52 37 -31
24 10 60 17 79 17 34 0 135 15 172 26 24 7 18 48 -7 52 -11 3 -26 10 -34 18
-16 17 -56 18 -83 3 -19 -10 -20 -9 -9 12 10 17 9 23 -1 30 -18 11 -29 11 -29
-1z"/>
<path d="M4133 9193 c-37 -5 -46 -33 -12 -33 15 0 19 -5 15 -15 -7 -18 5 -20
23 -2 11 10 14 10 18 0 3 -7 11 -13 19 -13 8 0 11 -6 8 -15 -4 -9 -19 -15 -40
-15 -19 0 -34 -5 -34 -10 0 -16 42 -28 79 -22 24 3 32 1 27 -7 -4 -6 -3 -11 3
-11 5 0 13 5 17 11 10 17 73 3 100 -22 15 -14 35 -22 55 -21 43 1 55 22 26 46
-12 10 -21 23 -19 28 5 18 -20 38 -48 38 -16 0 -30 7 -34 16 -4 10 -16 14 -38
12 -22 -2 -38 3 -48 15 -16 19 -65 27 -117 20z"/>
<path d="M11388 9143 c7 -3 16 -2 19 1 4 3 -2 6 -13 5 -11 0 -14 -3 -6 -6z"/>
<path d="M10410 9131 c0 -11 72 -72 78 -66 4 4 -64 75 -73 75 -3 0 -5 -4 -5
-9z"/>
<path d="M11280 9120 c0 -5 5 -10 11 -10 5 0 7 5 4 10 -3 6 -8 10 -11 10 -2 0
-4 -4 -4 -10z"/>
<path d="M3790 9111 c-8 -5 -32 -11 -52 -15 -70 -13 -47 -22 58 -24 57 -1 104
3 104 7 0 14 -48 41 -72 41 -13 0 -30 -4 -38 -9z"/>
<path d="M4502 9098 c2 -14 15 -29 33 -37 18 -9 24 -16 17 -19 -28 -9 27 -34
61 -27 57 12 62 14 63 40 2 20 -4 26 -25 31 -14 3 -45 12 -69 20 -64 21 -84
19 -80 -8z"/>
<path d="M8790 9061 c0 -11 5 -23 10 -26 6 -4 10 5 10 19 0 14 -4 26 -10 26
-5 0 -10 -9 -10 -19z"/>
<path d="M15648 9043 c6 -2 18 -2 25 0 6 3 1 5 -13 5 -14 0 -19 -2 -12 -5z"/>
<path d="M3597 9033 c-10 -10 13 -33 34 -33 26 0 33 17 10 29 -23 13 -35 14
-44 4z"/>
<path d="M3725 9026 c-22 -6 -39 -15 -37 -19 1 -4 2 -13 2 -20 0 -22 54 -36
106 -26 58 11 76 26 52 42 -15 10 -14 13 10 23 25 11 22 12 -33 12 -33 0 -78
-5 -100 -12z"/>
<path d="M4270 9010 c0 -5 16 -10 35 -10 19 0 35 5 35 10 0 6 -16 10 -35 10
-19 0 -35 -4 -35 -10z"/>
<path d="M8855 9009 c-10 -15 3 -25 16 -12 7 7 7 13 1 17 -6 3 -14 1 -17 -5z"/>
<path d="M4621 9001 c-28 -18 1 -31 69 -31 64 0 80 7 80 36 0 8 -135 4 -149
-5z"/>
<path d="M4097 8970 c11 -19 25 -30 40 -30 30 0 29 9 -4 37 -39 34 -59 31 -36
-7z"/>
<path d="M15449 8991 c-68 -21 -129 -72 -122 -101 4 -15 -2 -20 -31 -25 -20
-4 -48 -4 -63 -1 l-28 6 28 -23 c35 -30 34 -38 -3 -24 -24 9 -39 8 -77 -6 -53
-19 -103 -22 -103 -7 0 6 7 10 15 10 8 0 15 5 15 10 0 6 -13 10 -30 10 -16 0
-30 -4 -30 -10 0 -6 -28 -10 -64 -10 -36 0 -68 -4 -71 -10 -3 -5 2 -10 12 -11
26 -2 -40 -16 -129 -29 -43 -6 -97 -20 -120 -30 -24 -11 -54 -20 -68 -21 -14
0 -19 -3 -12 -6 23 -9 12 -20 -15 -15 -24 5 -26 3 -15 -10 10 -13 8 -15 -15
-12 -24 4 -22 1 12 -16 31 -15 34 -18 13 -14 -17 4 -28 2 -28 -5 0 -6 4 -11
10 -11 14 0 60 -52 54 -62 -10 -16 -34 -8 -27 8 5 14 2 16 -23 9 -48 -12 -155
-24 -219 -25 -84 0 -105 -8 -105 -36 0 -12 4 -25 9 -28 5 -3 7 -14 4 -25 -6
-24 22 -51 53 -51 14 0 27 -7 30 -15 3 -8 16 -17 27 -21 41 -12 48 -23 33 -53
-12 -22 -12 -29 0 -46 19 -25 18 -45 -3 -61 -26 -19 -35 -17 -23 5 22 43 4 84
-19 44 -9 -15 -10 -13 -11 13 0 24 6 34 26 43 37 17 25 37 -21 33 -26 -2 -47
3 -65 17 -36 26 -97 51 -126 51 -12 0 -26 5 -29 10 -9 15 -51 12 -65 -5 -10
-12 -10 -15 4 -15 9 0 16 -4 16 -9 0 -5 10 -12 23 -15 20 -6 20 -7 5 -17 -12
-7 -24 -6 -39 1 -28 16 -70 5 -62 -15 6 -17 64 -45 92 -45 9 0 22 -9 29 -20
15 -25 -2 -27 -32 -5 -11 8 -36 15 -55 15 -65 0 -78 8 -76 43 1 18 5 40 10 51
10 22 -5 68 -24 74 -10 3 -11 -3 -6 -27 8 -38 -5 -57 -45 -66 -35 -8 -67 -50
-47 -62 7 -4 23 -23 36 -41 22 -32 22 -34 6 -52 -16 -17 -19 -43 -15 -101 2
-21 53 -30 89 -16 40 14 122 -21 135 -59 6 -20 6 -29 -2 -32 -7 -2 -12 -15
-12 -28 0 -18 6 -24 23 -25 17 -1 18 -2 4 -6 -26 -7 -47 15 -47 51 -1 17 -11
43 -23 59 -23 27 -25 27 -74 17 -58 -13 -67 -25 -50 -70 11 -28 10 -34 -9 -49
-12 -9 -26 -27 -33 -39 -6 -12 -26 -29 -44 -38 -18 -10 -36 -23 -42 -29 -14
-18 -125 -8 -125 11 0 16 -16 19 -25 4 -7 -12 -25 -4 -25 11 0 15 47 10 65 -8
13 -12 23 -14 43 -7 15 5 25 12 22 14 -2 3 17 25 43 50 26 25 47 52 47 61 0 9
7 22 15 29 21 17 19 23 -14 42 l-29 16 4 106 c3 97 2 106 -16 116 -25 13 -25
24 -1 58 11 15 22 41 26 59 6 30 4 32 -32 42 -21 5 -65 11 -97 12 l-60 3 -30
-65 c-25 -51 -39 -69 -73 -87 -43 -23 -60 -62 -28 -62 10 0 15 -10 15 -31 0
-17 -7 -37 -15 -45 -21 -22 -19 -34 8 -34 27 0 38 -8 60 -43 10 -15 22 -25 27
-22 16 10 11 -32 -5 -45 -12 -10 -22 -8 -53 12 -20 14 -50 28 -67 32 -16 4
-51 18 -77 31 -56 28 -148 48 -202 43 -33 -2 -45 2 -75 30 -43 40 -89 44 -74
6 5 -14 58 -44 77 -44 16 0 50 -66 42 -79 -4 -6 -15 -11 -25 -11 -10 0 -21 -9
-24 -20 -7 -27 -37 -15 -34 13 3 29 -31 34 -75 11 -20 -11 -51 -16 -80 -15
-34 1 -52 -3 -65 -16 -18 -18 -75 -25 -89 -10 -4 4 1 7 10 7 10 0 16 6 13 13
-2 6 0 20 5 30 11 21 -1 22 -47 3 -25 -11 -33 -19 -29 -31 5 -13 2 -15 -19
-10 -17 5 -47 -3 -93 -23 -38 -16 -86 -36 -106 -43 -26 -9 -39 -20 -43 -38 -8
-33 -21 -41 -65 -41 -23 0 -41 7 -52 19 -8 10 -22 21 -29 23 -23 8 8 37 47 44
42 8 42 15 3 48 -25 21 -41 26 -86 26 l-55 0 23 -19 c22 -18 22 -20 9 -61 -13
-38 -12 -43 3 -52 20 -11 22 -37 4 -71 -12 -22 -16 -24 -28 -13 -23 22 -84 29
-98 12 -7 -8 -33 -25 -58 -37 -53 -25 -62 -43 -38 -69 10 -11 16 -21 14 -23
-2 -1 -12 -8 -21 -15 -13 -11 -25 -11 -60 -1 -24 7 -52 19 -63 26 -28 18 -43
16 -50 -7 -8 -26 11 -50 40 -50 30 0 40 -27 15 -40 -21 -11 -81 7 -94 29 -4 6
-16 11 -27 11 -12 0 -23 10 -29 28 -6 15 -14 34 -19 43 -5 9 -5 22 1 33 7 13
5 23 -8 37 -9 10 -22 19 -28 19 -16 1 -90 69 -83 76 4 4 14 1 22 -6 21 -18
137 -56 209 -69 119 -22 186 -9 237 45 22 23 22 26 7 57 -11 24 -31 40 -74 60
-33 15 -66 32 -74 38 -62 40 -161 79 -215 83 -33 3 -61 6 -62 7 -5 3 -23 7
-43 8 -11 0 -20 5 -20 11 0 5 6 7 14 4 8 -3 17 -1 20 4 8 14 -43 25 -58 13 -7
-6 -26 -7 -47 -2 -19 4 -42 7 -52 5 -9 -1 -17 2 -17 7 0 5 -10 14 -22 19 -20
7 -17 9 17 10 22 1 48 5 58 9 25 9 8 24 -53 45 -43 15 -46 15 -61 -4 -14 -16
-18 -17 -23 -5 -3 8 -1 17 5 20 15 10 0 25 -24 25 -16 0 -27 -10 -36 -32 -13
-30 -14 -31 -18 -10 -6 30 -16 28 -53 -14 -17 -20 -34 -34 -37 -31 -6 7 29 67
39 67 4 0 8 5 8 10 0 6 -7 10 -15 10 -8 0 -15 -5 -15 -10 0 -6 -11 -8 -27 -4
-17 5 -30 2 -37 -7 -12 -15 -69 -49 -83 -49 -4 0 3 10 17 21 18 15 20 19 7 15
-10 -3 -28 -6 -39 -6 -13 0 -18 -5 -15 -14 4 -10 -4 -17 -24 -21 -28 -6 -29
-8 -12 -20 16 -12 16 -13 -7 -13 -56 -1 -81 -5 -86 -14 -3 -5 -12 -1 -19 8
-11 16 -14 16 -45 -6 -25 -18 -29 -25 -18 -32 9 -7 4 -8 -15 -3 -31 6 -57 -8
-57 -32 0 -10 6 -12 21 -8 18 6 20 5 10 -14 -9 -16 -20 -20 -47 -18 -31 2 -35
5 -31 25 8 41 -22 16 -37 -31 -3 -9 -17 -22 -31 -27 -14 -5 -25 -12 -25 -14 0
-8 74 6 85 15 5 5 25 8 45 8 31 -2 32 -3 7 -6 -16 -3 -30 -10 -33 -18 -3 -7
-13 -11 -22 -9 -21 5 -73 -35 -55 -42 8 -4 4 -14 -14 -30 -14 -13 -29 -24 -32
-24 -15 0 -62 -53 -57 -65 3 -8 -2 -19 -10 -25 -11 -10 -14 -10 -14 1 -1 8 -7
-4 -15 -26 -11 -31 -11 -42 -2 -54 8 -10 8 -13 1 -8 -7 4 -27 0 -45 -8 -19 -8
-28 -14 -21 -15 8 0 -8 -19 -34 -43 -51 -47 -54 -74 -5 -63 19 5 22 4 11 -4
-16 -10 -78 -3 -97 12 -8 6 -13 2 -18 -12 -3 -11 -11 -18 -16 -15 -5 3 -6 -1
-3 -9 5 -12 0 -16 -20 -16 -14 0 -34 -8 -44 -18 -9 -9 -33 -28 -52 -42 -45
-31 -61 -52 -50 -65 5 -6 5 -17 0 -25 -5 -7 -4 -24 2 -39 6 -14 10 -51 9 -81
-1 -43 1 -52 11 -42 16 16 28 15 28 -3 0 -8 -4 -15 -10 -15 -23 0 -8 -40 20
-55 49 -25 104 -20 143 15 19 16 46 34 60 39 15 6 27 18 27 28 1 26 50 -32 50
-58 0 -25 46 -117 72 -146 22 -24 17 -43 -12 -43 -10 0 -21 -7 -24 -16 -3 -8
-10 -13 -15 -10 -13 9 -32 -19 -25 -37 3 -8 12 -18 20 -21 23 -9 16 -25 -8
-19 -18 5 -21 3 -11 -7 9 -10 17 -10 42 1 16 7 26 16 20 19 -6 4 -5 18 2 38 9
26 14 30 25 21 8 -6 14 -18 14 -26 0 -10 9 -13 33 -11 23 2 32 8 32 21 0 23
22 37 60 37 54 1 66 20 70 106 3 82 3 82 65 117 20 11 30 23 27 32 -4 8 2 16
14 20 10 4 19 12 19 20 0 15 -42 51 -70 60 -24 8 -38 69 -20 90 7 8 10 26 8
40 -4 17 -1 25 8 25 8 0 14 6 14 13 0 7 18 24 40 37 22 14 40 28 40 31 0 4 12
10 26 13 38 10 97 72 89 96 -6 20 8 50 41 84 15 16 34 22 77 24 68 3 97 -12
97 -50 0 -23 -4 -28 -25 -28 -15 0 -25 -6 -25 -14 0 -8 -19 -30 -41 -48 -23
-18 -52 -43 -64 -55 -12 -13 -27 -23 -32 -23 -22 0 -35 -46 -24 -86 6 -21 11
-59 11 -84 0 -42 2 -47 32 -58 25 -9 30 -14 20 -24 -16 -16 -15 -28 3 -28 8 0
15 -4 15 -9 0 -11 40 -4 115 20 33 10 88 23 121 27 54 7 63 6 73 -10 6 -10 22
-18 35 -18 14 0 28 -4 31 -10 3 -6 -4 -10 -18 -10 -30 0 -87 -19 -87 -29 0 -5
-39 -8 -87 -7 -110 1 -153 -14 -153 -54 0 -30 23 -56 39 -45 15 8 1 -88 -13
-97 -18 -12 -23 -10 -54 23 -24 26 -31 29 -54 20 -41 -15 -58 -61 -51 -135 l6
-63 -27 0 c-17 0 -33 -9 -42 -22 -19 -27 -60 -27 -74 -1 -12 23 -37 20 -105
-10 -64 -29 -110 -41 -136 -36 -13 3 -28 5 -32 5 -5 1 -5 10 -2 21 4 14 2 20
-8 20 -9 0 -17 -4 -19 -8 -2 -4 -23 -17 -48 -29 -44 -21 -45 -21 -63 -2 -10
10 -24 19 -31 19 -13 0 -31 27 -28 43 1 4 -3 7 -9 7 -5 0 -8 4 -4 9 3 6 17 4
32 -4 32 -17 37 -14 28 14 -3 11 -15 21 -27 23 -21 3 -20 4 5 28 31 29 34 40
11 40 -13 0 -15 7 -9 40 5 32 4 40 -8 40 -8 0 -20 -7 -27 -15 -7 -8 -19 -15
-26 -15 -29 0 -54 -39 -54 -85 0 -25 4 -45 9 -45 8 0 21 -42 26 -83 1 -10 5
-20 8 -24 13 -12 -29 -31 -57 -26 -18 4 -31 1 -37 -8 -4 -8 -20 -13 -36 -11
-18 2 -40 -6 -61 -22 -36 -26 -75 -93 -67 -114 3 -7 1 -11 -3 -8 -5 3 -35 -6
-68 -19 -48 -20 -60 -29 -66 -54 -6 -22 -17 -32 -43 -41 -19 -6 -35 -18 -35
-26 0 -18 -52 -19 -80 -2 -26 16 -31 8 -21 -29 9 -30 8 -31 -26 -35 -19 -2
-37 0 -40 5 -5 8 -78 1 -95 -10 -19 -10 25 -51 61 -57 43 -7 71 -28 89 -68 6
-16 18 -28 27 -28 30 0 13 -181 -18 -193 -6 -2 -82 1 -167 8 -128 10 -159 10
-177 -2 -12 -7 -29 -13 -37 -13 -21 0 -30 -19 -16 -35 19 -23 18 -167 -3 -198
-21 -32 -22 -66 -2 -73 18 -7 20 -55 3 -72 -9 -9 2 -11 50 -7 59 5 62 4 78
-22 10 -16 24 -33 32 -40 12 -10 10 -19 -10 -60 -18 -35 -36 -55 -70 -73 -63
-35 -74 -45 -99 -96 -16 -34 -20 -55 -15 -85 6 -39 4 -42 -49 -94 -38 -37 -66
-56 -91 -61 -30 -6 -39 -13 -53 -45 -9 -21 -26 -42 -38 -48 -14 -6 -27 -26
-34 -53 -7 -24 -23 -54 -35 -68 -13 -14 -32 -46 -43 -71 -10 -26 -24 -50 -30
-53 -17 -11 -13 -62 5 -81 15 -15 23 -62 26 -150 1 -52 -23 -132 -50 -162 -11
-12 -16 -23 -12 -23 12 0 40 -54 40 -76 0 -11 -5 -14 -16 -10 -12 5 -15 0 -12
-21 2 -18 14 -35 35 -48 18 -11 32 -28 33 -37 0 -9 9 -20 20 -23 11 -3 20 -13
20 -21 0 -8 11 -19 24 -25 25 -12 43 -39 49 -74 8 -42 21 -57 101 -110 44 -31
99 -69 121 -85 52 -38 83 -44 123 -25 57 29 162 38 240 20 20 -4 46 2 87 20
32 14 64 25 72 25 7 0 24 6 36 14 12 8 54 17 93 20 66 6 74 5 98 -16 15 -13
34 -39 44 -58 18 -38 17 -37 119 -25 46 5 53 3 63 -15 6 -12 18 -19 25 -16 16
6 41 -95 30 -122 -4 -9 -9 -39 -10 -66 -2 -27 -10 -55 -19 -64 -14 -14 -13
-19 6 -51 12 -20 52 -67 90 -106 49 -49 71 -80 79 -110 5 -22 22 -65 36 -95
19 -41 22 -59 15 -71 -12 -19 -6 -54 15 -84 25 -36 16 -89 -22 -135 -19 -22
-37 -58 -41 -78 -4 -20 -11 -48 -17 -62 -6 -14 -12 -52 -14 -85 -2 -47 1 -66
16 -86 10 -14 33 -54 51 -89 18 -35 44 -82 57 -103 15 -24 23 -47 19 -61 -3
-12 1 -60 9 -106 26 -151 36 -180 75 -215 11 -10 44 -66 71 -124 44 -91 49
-107 39 -127 -10 -18 -9 -26 3 -44 9 -12 13 -30 10 -39 -4 -9 -3 -13 2 -9 4 4
21 -2 37 -14 26 -18 35 -19 66 -10 71 21 98 25 191 28 51 1 98 7 104 13 6 6
20 11 32 11 51 0 205 127 251 209 14 25 39 57 55 71 36 31 69 141 49 165 -18
21 -5 34 68 67 37 16 69 34 73 39 11 18 0 101 -21 166 -11 34 -17 68 -15 75 3
7 22 24 41 38 20 14 52 42 72 63 21 22 56 45 86 55 52 18 111 68 126 106 4 13
5 65 0 117 -4 52 -6 98 -3 102 9 16 -7 56 -26 62 -29 9 -56 118 -39 156 5 11
0 23 -12 34 -28 26 -25 48 20 139 28 57 50 88 75 105 19 13 35 28 35 33 0 17
145 155 200 191 85 55 175 158 212 242 7 17 29 58 49 91 41 67 59 120 59 172
0 36 -5 38 -48 17 -16 -9 -61 -18 -99 -21 -37 -3 -72 -9 -78 -14 -5 -4 -28
-10 -50 -13 -22 -3 -54 -9 -71 -12 -28 -6 -35 -3 -55 24 -12 17 -32 31 -43 31
-20 0 -19 2 4 20 l25 19 -65 66 c-36 37 -84 76 -107 86 -42 21 -55 42 -69 109
-4 23 -21 49 -49 75 -40 37 -44 45 -50 103 -8 83 -17 104 -55 134 -23 18 -33
35 -35 58 -1 17 -7 35 -12 39 -9 5 -38 60 -104 191 -12 25 -31 62 -41 83 -26
51 -16 58 12 10 27 -44 60 -83 71 -83 5 0 15 21 24 48 12 37 14 40 10 12 -4
-26 -1 -38 13 -50 25 -20 122 -167 122 -184 0 -7 15 -25 34 -40 47 -35 65 -76
59 -126 -5 -39 -3 -43 44 -88 28 -26 61 -68 74 -94 12 -27 26 -48 30 -48 14 0
49 -72 49 -103 1 -50 35 -169 52 -178 18 -10 74 4 97 25 9 7 32 16 51 19 44 6
120 34 140 51 8 8 48 23 87 35 58 17 76 27 87 49 10 20 29 32 70 45 31 9 66
17 77 17 13 0 23 8 26 21 3 12 17 22 34 26 15 3 35 16 43 28 9 13 26 25 38 27
15 2 22 9 20 19 -1 9 2 29 8 44 8 21 14 25 32 20 17 -6 20 -4 15 9 -4 11 2 25
17 39 12 12 28 32 35 44 10 19 7 26 -21 57 -20 21 -49 39 -75 46 -54 14 -83
50 -83 103 l0 41 -57 -61 c-57 -59 -59 -60 -124 -66 -79 -7 -89 0 -89 65 0 36
-4 48 -15 48 -9 0 -18 -13 -22 -31 l-6 -30 -18 27 c-9 15 -15 32 -13 39 3 7
-13 33 -35 59 -45 52 -83 129 -75 151 4 8 10 13 14 10 5 -3 15 1 22 8 8 9 26
12 45 10 27 -4 37 -15 68 -74 25 -48 42 -69 55 -69 10 0 22 -5 25 -10 13 -21
85 -60 112 -60 46 -2 85 7 93 20 13 21 43 6 55 -29 6 -19 21 -38 32 -42 64
-23 337 -32 441 -14 34 6 59 -11 88 -61 6 -11 23 -25 37 -32 15 -7 27 -17 27
-22 0 -16 60 -41 80 -35 11 4 20 2 20 -3 0 -9 -47 -27 -62 -24 -28 6 35 -64
77 -86 32 -17 100 24 88 54 -2 6 0 15 6 18 13 9 33 -66 26 -97 -10 -40 34
-224 70 -291 18 -34 35 -77 39 -97 4 -21 16 -49 27 -63 11 -14 31 -58 45 -98
14 -40 32 -83 40 -96 19 -29 64 -30 71 -1 3 11 17 25 30 30 13 5 22 13 19 18
-3 5 6 21 19 35 26 28 33 72 14 78 -8 3 -6 14 6 37 13 26 15 46 10 91 -8 70 0
100 26 100 11 0 22 7 25 15 4 8 17 15 31 15 16 0 27 7 30 20 3 10 29 38 59 61
30 23 68 57 84 75 16 19 38 34 48 34 24 0 57 36 57 63 0 12 12 27 33 38 17 10
32 15 32 10 0 -12 70 -12 92 0 11 6 19 5 24 -2 5 -8 12 -5 23 9 24 29 60 38
67 15 3 -10 10 -26 15 -35 5 -10 9 -23 9 -29 0 -16 51 -82 58 -75 6 7 42 -23
42 -35 0 -5 -7 -6 -15 -3 -8 4 -15 1 -15 -5 0 -6 5 -12 10 -12 6 -1 15 -2 21
-3 22 -2 40 -76 29 -115 -12 -45 -12 -54 -1 -46 5 3 12 1 16 -5 10 -16 34 -12
57 10 12 11 27 20 34 20 7 0 16 9 19 20 6 20 7 20 24 -2 9 -13 18 -39 19 -58
3 -40 20 -96 39 -125 16 -25 17 -57 1 -74 -8 -9 -8 -11 -2 -8 7 4 15 0 18 -9
5 -14 -7 -125 -20 -170 -4 -15 0 -23 13 -26 38 -10 94 -93 108 -160 7 -35 24
-80 37 -100 24 -38 114 -100 161 -112 l27 -7 -15 38 c-9 20 -23 45 -32 55 -12
13 -14 28 -9 58 4 23 2 49 -5 61 -18 35 -103 110 -131 116 -15 3 -35 15 -45
26 -10 11 -12 17 -5 13 17 -10 15 -2 -8 50 -12 25 -27 44 -37 44 -13 0 -15 8
-10 43 2 23 11 56 18 72 7 17 17 48 23 70 13 47 46 62 46 21 0 -21 5 -26 25
-26 44 0 104 -47 105 -82 0 -11 5 -15 15 -12 10 4 15 0 15 -11 0 -9 4 -13 10
-10 5 3 22 -1 38 -10 24 -14 27 -22 24 -56 -2 -21 -1 -39 3 -39 3 0 21 11 39
25 18 14 38 25 44 25 7 0 14 11 18 25 3 14 14 25 23 25 9 0 37 13 62 29 42 27
47 34 53 78 9 76 -9 154 -47 190 -12 12 -41 39 -64 59 -24 20 -43 42 -43 49 0
6 -9 20 -21 31 -24 22 -19 54 17 97 13 16 24 32 24 37 0 4 8 11 18 14 9 4 30
13 45 22 41 23 107 10 107 -19 0 -34 17 -54 31 -40 9 9 9 15 0 26 -13 16 -4
20 104 54 46 14 60 23 61 38 1 11 2 24 3 29 1 4 9 -2 20 -15 14 -18 22 -21 32
-12 8 6 36 14 64 18 27 4 54 13 60 21 6 8 21 20 35 27 14 7 30 22 36 35 6 12
14 19 17 16 8 -9 67 54 67 71 0 8 5 17 11 20 6 4 8 13 5 21 -3 7 0 11 7 8 7
-2 24 16 39 41 15 25 34 45 43 45 10 0 15 10 15 30 0 17 5 30 10 30 6 0 10 9
10 20 0 22 -27 40 -62 40 -20 0 -18 3 15 22 20 12 37 25 37 30 0 4 -13 14 -30
23 -16 9 -30 17 -30 19 0 1 14 1 30 -2 17 -2 30 -2 30 2 0 16 -37 46 -56 46
-17 0 -26 11 -40 51 -13 35 -27 55 -46 65 -35 18 -35 28 2 71 17 18 30 31 30
27 0 -3 14 6 31 20 17 14 41 26 54 26 24 0 42 16 31 27 -3 3 -16 7 -29 8 -14
2 -35 8 -47 15 -19 10 -27 9 -52 -10 -37 -27 -63 -23 -63 10 0 20 -6 26 -27
28 -33 4 -52 25 -43 51 5 15 13 19 36 16 22 -3 33 2 45 20 8 12 28 28 44 35
16 7 36 22 44 35 11 17 21 21 41 18 38 -8 40 -21 10 -53 -19 -20 -23 -30 -14
-35 9 -6 7 -12 -6 -22 -36 -25 8 -14 46 13 48 33 102 45 140 32 24 -8 28 -14
23 -32 -3 -11 -13 -28 -20 -37 -19 -21 -1 -36 45 -37 33 -1 51 -14 51 -39 0
-7 -7 -13 -15 -13 -16 0 -20 -16 -6 -24 8 -5 9 -55 1 -81 -8 -31 1 -44 30 -42
16 1 32 7 34 13 2 6 22 15 43 19 55 10 63 21 63 81 0 44 -6 63 -35 108 -19 30
-42 59 -51 64 -21 12 -14 44 11 57 67 34 95 58 95 81 0 24 59 94 79 94 5 0 11
7 15 15 6 16 46 21 46 7 0 -5 11 -14 23 -19 41 -19 99 17 195 118 47 49 101
114 120 142 18 29 46 66 62 82 33 35 49 89 47 162 -1 40 5 60 20 82 16 21 21
41 20 77 -2 43 -7 53 -41 84 -37 33 -96 50 -96 28 0 -13 -42 -47 -59 -48 -11
0 -11 3 -1 15 9 11 9 15 1 15 -7 0 -9 5 -6 10 3 6 -1 10 -9 10 -9 0 -16 -7
-16 -15 0 -8 -4 -15 -10 -15 -5 0 -10 14 -10 30 0 28 -2 30 -40 30 -46 0 -53
17 -16 40 75 48 107 73 131 104 14 19 51 51 81 72 29 20 54 43 54 50 0 6 12
20 28 29 15 10 31 25 36 33 4 7 23 20 42 28 39 16 170 19 179 4 5 -8 11 -8 20
0 7 6 40 8 78 6 60 -4 67 -2 73 16 5 17 11 19 38 13 17 -4 42 -8 56 -9 14 -1
36 -8 49 -15 l25 -14 -27 -14 c-15 -7 -27 -16 -27 -18 0 -8 100 -3 105 5 3 5
26 8 51 8 25 0 48 3 51 6 10 9 -8 26 -28 26 -20 0 -20 1 -2 31 10 17 30 37 44
45 15 7 45 34 66 59 l39 46 87 4 c48 2 87 2 87 0 0 -2 -5 -15 -11 -29 -9 -20
-9 -28 4 -40 9 -9 18 -16 22 -16 3 0 29 18 57 41 32 25 58 39 70 36 14 -4 18
1 18 20 0 44 17 63 58 63 35 0 36 0 15 -15 -14 -10 -24 -31 -29 -60 -3 -25
-11 -45 -16 -45 -5 0 -7 -4 -3 -9 3 -5 -10 -14 -29 -21 -33 -10 -84 -53 -176
-144 -47 -48 -135 -100 -151 -91 -5 4 -9 -5 -9 -19 0 -16 -9 -32 -24 -41 -43
-28 -58 -113 -37 -208 5 -23 17 -78 26 -122 27 -130 25 -128 79 -74 28 28 46
55 46 69 0 26 26 49 56 50 17 0 20 5 16 29 -5 37 24 64 76 71 30 4 36 9 33 25
-8 47 -3 77 17 95 25 24 33 25 26 5 -4 -10 0 -15 10 -15 24 0 32 31 13 45 -19
13 -23 50 -7 60 6 3 10 13 10 21 0 11 -8 14 -27 12 -41 -5 -41 25 1 74 20 23
36 52 36 64 0 23 25 40 35 23 4 -5 10 -7 15 -4 5 3 12 0 15 -5 5 -8 12 -7 23
2 20 15 59 38 67 38 3 0 2 -12 -1 -27 l-7 -28 24 22 c54 49 136 58 173 18 27
-29 36 -31 36 -10 0 8 12 22 28 31 15 10 52 34 84 56 31 21 59 38 63 38 15 0
181 75 187 84 5 7 8 7 8 1 0 -16 92 -35 108 -22 15 12 8 52 -11 76 -7 8 -17
30 -23 50 -6 20 -16 35 -23 33 -16 -3 -41 16 -41 33 0 10 9 11 40 3 37 -10 45
-8 88 19 29 18 48 37 50 51 2 12 -1 22 -7 22 -17 0 -13 27 5 34 24 9 46 7 39
-4 -3 -5 0 -18 7 -29 10 -17 22 -20 68 -19 64 2 77 -4 90 -38 5 -13 17 -24 27
-24 10 0 32 -8 48 -18 39 -24 73 -33 81 -21 3 5 10 7 15 4 5 -4 9 -1 9 4 0 6
-4 11 -10 11 -19 0 -10 28 10 33 20 5 23 28 6 55 -7 11 -4 12 12 3 26 -14 62
-14 62 0 0 5 4 8 9 5 5 -3 16 5 25 19 9 14 12 25 7 25 -5 0 -30 16 -55 35 -32
25 -57 35 -81 35 -19 0 -35 5 -35 10 0 6 -16 10 -36 10 -32 0 -35 -2 -24 -15
7 -9 10 -18 7 -22 -4 -3 -2 -12 4 -19 7 -9 6 -12 -3 -10 -36 8 -45 18 -43 51
0 23 -4 35 -12 35 -7 0 -13 6 -13 13 0 6 -39 32 -88 56 -48 25 -89 48 -92 52
-3 3 -16 10 -30 14 -14 4 -37 16 -51 26 -14 10 -58 27 -97 38 -40 11 -77 23
-83 27 -7 4 -51 8 -98 10 -47 1 -110 7 -140 13 -29 6 -59 11 -66 11 -14 0 -28
-41 -17 -50 25 -19 34 -41 22 -55 -17 -21 -57 -19 -87 5 -14 11 -32 20 -39 20
-23 0 -16 18 8 22 12 2 23 8 25 15 5 13 -57 29 -66 17 -11 -16 -34 -19 -116
-17 -165 3 -190 2 -212 -13 -14 -9 -23 -25 -23 -40 0 -14 -4 -23 -10 -19 -6 4
-6 15 1 31 8 21 7 25 -5 21 -8 -3 -17 0 -20 8 -2 7 -15 15 -28 17 -20 3 -23 8
-20 37 7 86 -83 105 -357 75 -48 -5 -56 -4 -71 16 -11 15 -28 22 -53 23 -20 0
-37 4 -37 7 0 4 -19 13 -42 20 -38 12 -40 14 -20 19 13 3 24 11 24 16 2 21
-55 37 -128 37 -41 0 -74 3 -74 7 0 10 -50 19 -165 31 -44 5 -90 12 -103 16
-19 5 -23 3 -20 -12 2 -14 -4 -20 -22 -22 -47 -5 -70 -12 -70 -22 0 -6 10 -10
22 -10 16 0 19 -3 11 -11 -7 -7 -8 -20 -3 -34 8 -22 8 -22 -87 -19 -52 2 -103
6 -113 9 -10 3 -35 -1 -56 -10 -44 -18 -95 -7 -119 27 -14 21 -14 21 -32 -12
-35 -65 -56 -82 -86 -75 -38 10 -102 76 -85 87 10 6 10 8 -1 8 -7 0 -26 11
-43 25 -33 28 -30 32 11 11 18 -10 32 -11 42 -5 12 8 10 13 -9 28 -15 13 -18
21 -10 24 10 3 10 7 1 17 -6 7 -9 19 -6 26 3 8 -5 18 -20 23 -14 5 -28 15 -32
20 -8 14 -62 14 -70 1 -5 -8 -11 -8 -20 0 -9 8 -14 8 -17 0 -2 -7 -15 -6 -39
4 -24 10 -46 12 -65 7 -25 -6 -29 -13 -29 -42 l0 -34 -115 0 c-79 0 -123 4
-139 14 -23 13 -23 15 -7 26 15 11 5 14 -67 20 -108 9 -207 -1 -207 -22 0 -8
-5 -11 -11 -8 -6 4 -8 13 -5 20 2 7 -2 21 -9 32 -9 11 -14 13 -15 5 0 -9 -13
-12 -42 -10 -27 2 -42 8 -41 15 2 8 -9 10 -35 6 -58 -8 -66 -11 -54 -26 9 -10
-3 -17 -53 -30 -35 -9 -78 -17 -96 -17 -18 0 -41 -8 -52 -17 -16 -14 -19 -15
-15 -3 2 8 18 21 34 29 16 8 31 17 34 21 3 4 18 10 34 14 17 4 42 16 57 27 15
10 31 19 36 19 6 0 18 9 27 19 10 11 32 25 49 31 65 26 137 62 149 77 10 12 9
18 -7 29 -17 12 -17 14 -2 14 20 0 21 18 3 43 -8 10 -20 15 -30 11 -9 -3 -16
-1 -16 5 0 5 -20 22 -45 36 -39 24 -53 26 -125 24 -51 -2 -85 -8 -92 -16 -6
-7 -24 -13 -41 -13 l-30 0 23 25 c27 29 24 30 -64 40 l-59 7 39 18 c25 11 34
19 24 22 -8 3 -31 10 -51 17 -40 12 -44 12 -80 2z m2281 -571 c-20 -13 -43
-13 -35 0 3 6 16 10 28 10 18 0 19 -2 7 -10z m50 -35 c0 -13 -21 -25 -46 -25
-8 0 -14 5 -14 10 0 6 9 10 20 10 11 0 20 7 20 16 0 8 5 12 10 9 6 -3 10 -12
10 -20z m-445 -66 c-7 -10 -35 -1 -35 11 0 5 9 6 20 3 11 -3 17 -9 15 -14z
m-6385 -159 c0 -5 -5 -10 -11 -10 -5 0 -7 5 -4 10 3 6 8 10 11 10 2 0 4 -4 4
-10z m8505 -450 c-3 -5 -12 -7 -20 -3 -21 7 -19 13 6 13 11 0 18 -4 14 -10z
m-9218 -176 c-3 -3 -12 -4 -19 -1 -8 3 -5 6 6 6 11 1 17 -2 13 -5z m390 -700
c-3 -3 -12 -4 -19 -1 -8 3 -5 6 6 6 11 1 17 -2 13 -5z m1333 -452 c0 -5 -18
-15 -41 -22 -33 -11 -38 -16 -26 -25 13 -9 12 -14 -9 -38 -13 -15 -29 -27 -37
-27 -7 0 -17 -3 -20 -7 -7 -6 10 -18 73 -49 19 -9 49 -30 65 -45 17 -15 50
-38 75 -52 62 -34 70 -67 27 -118 l-32 -38 -87 3 c-53 1 -93 8 -103 16 -8 7
-18 10 -22 6 -3 -3 -15 1 -25 11 -10 9 -21 13 -25 10 -3 -4 -12 -2 -20 5 -25
20 -133 10 -183 -18 -33 -19 -58 -25 -95 -24 -68 2 -69 2 -56 -14 15 -18 -14
-27 -99 -29 l-65 -2 0 -45 c0 -37 3 -45 18 -44 11 1 17 -5 17 -17 0 -16 -5
-18 -25 -13 -20 5 -24 3 -19 -9 3 -8 20 -18 37 -22 18 -4 26 -9 20 -12 -10 -3
-9 -8 3 -20 8 -9 13 -21 10 -28 -3 -8 2 -11 15 -8 10 3 19 0 19 -6 0 -6 13
-11 29 -11 16 0 31 -6 35 -15 3 -9 18 -15 40 -15 26 0 35 5 39 21 7 25 34 20
82 -14 34 -24 81 -24 108 1 11 10 36 17 61 17 l41 0 2 -60 c2 -33 -2 -69 -7
-80 -6 -11 -23 -54 -38 -95 -33 -90 -55 -106 -125 -96 -26 4 -45 11 -42 17 11
18 -68 9 -105 -12 -36 -21 -38 -21 -101 -3 -35 9 -84 19 -109 22 -24 2 -49 10
-55 17 -5 7 -31 16 -57 20 -30 4 -48 11 -48 20 0 22 -58 36 -100 25 -50 -14
-74 -42 -67 -78 5 -23 0 -35 -19 -53 -22 -21 -27 -22 -47 -9 -44 28 -77 41
-114 47 -44 7 -62 19 -74 50 -5 13 -17 23 -27 23 -10 0 -23 5 -29 11 -6 6 -33
12 -59 14 -56 3 -94 16 -113 39 -7 9 -22 16 -32 16 -26 0 -24 24 6 54 29 29
32 48 10 66 -8 7 -15 18 -15 25 0 7 7 18 15 25 22 18 19 33 -4 21 -15 -8 -20
-7 -25 5 -5 13 -14 15 -39 9 -33 -7 -163 -16 -232 -16 -80 0 -221 -22 -260
-41 -22 -11 -51 -26 -65 -32 -14 -7 -35 -19 -47 -26 -18 -12 -29 -12 -53 -3
-17 6 -50 10 -74 7 -35 -3 -47 0 -65 20 l-22 24 32 16 c18 9 57 16 90 16 49 0
60 3 69 20 6 12 22 25 36 30 13 5 24 16 24 24 0 8 11 23 24 33 21 17 22 21 10
38 -19 25 -19 24 27 80 24 28 55 54 75 61 18 6 45 19 60 29 22 14 25 21 19 55
-5 32 -3 40 16 53 23 16 59 15 112 -5 24 -9 33 -7 57 11 16 11 36 21 44 21 8
0 27 11 43 24 27 22 30 23 65 9 25 -10 40 -25 49 -46 7 -18 22 -41 33 -52 39
-38 121 -95 136 -95 9 0 23 -9 33 -20 9 -11 24 -20 32 -20 8 0 15 -5 15 -10 0
-6 11 -15 24 -20 30 -11 52 -70 37 -99 -11 -20 -83 -36 -153 -32 -60 3 -52
-15 23 -53 39 -20 72 -36 75 -36 2 0 4 12 4 26 0 40 18 66 41 59 10 -4 19 -2
19 4 0 5 14 24 31 41 l32 31 -21 22 c-16 17 -18 26 -10 40 12 22 54 16 73 -10
9 -12 14 -13 19 -4 11 18 -11 39 -77 72 -41 21 -57 35 -53 45 4 10 -2 14 -20
14 -40 0 -81 29 -99 71 -10 22 -31 44 -51 55 -38 21 -36 17 -39 66 -2 30 2 38
22 47 34 16 53 14 47 -4 -4 -8 -3 -23 1 -32 6 -17 7 -17 21 1 16 23 15 24 42
-35 13 -26 34 -52 50 -59 15 -8 36 -23 47 -35 11 -11 31 -21 44 -23 14 -1 43
-17 66 -34 39 -30 41 -34 35 -70 -6 -31 -3 -44 19 -75 14 -21 32 -42 39 -46 7
-5 17 -19 21 -31 6 -15 18 -22 42 -24 55 -4 90 -13 84 -22 -3 -5 -17 -5 -31 0
-38 15 -85 -16 -54 -35 6 -3 10 -14 10 -24 0 -17 15 -26 59 -36 10 -3 12 4 7
25 -4 24 -2 28 10 23 13 -5 15 -1 9 17 -7 21 -5 22 20 16 22 -6 26 -4 22 8 -8
19 4 21 22 4 11 -10 10 -8 0 12 -8 14 -14 26 -14 27 0 1 -14 5 -30 8 -29 7
-29 7 -10 -8 23 -18 13 -22 -15 -7 -11 6 -17 17 -14 25 4 8 10 12 15 9 17 -10
9 13 -11 31 -11 10 -20 26 -20 36 0 16 3 17 33 5 40 -17 66 -10 40 10 -19 14
-20 14 30 18 6 1 15 5 18 10 4 5 21 4 39 -3 45 -15 85 -14 100 4 7 8 28 15 46
15 36 0 46 14 15 23 -25 6 -52 64 -45 94 4 13 14 28 24 33 10 5 23 30 29 55 9
34 16 45 31 45 16 0 20 7 20 30 0 20 5 30 15 30 9 0 23 13 33 29 19 33 80 50
78 21 -1 -11 11 -16 42 -18 50 -4 53 -12 11 -31 l-31 -14 32 -13 c21 -9 30
-19 27 -29 -10 -25 12 -27 60 -4 25 12 57 22 71 23 14 1 27 7 30 15 4 11 -2
13 -25 8 -51 -10 -74 38 -30 65 22 14 120 44 167 52 14 2 28 4 33 5 4 0 7 -3
7 -7z m714 -46 l41 -1 0 -45 0 -45 -33 3 c-40 5 -79 -23 -61 -45 9 -10 5 -13
-20 -13 -17 0 -31 -4 -31 -10 0 -5 7 -10 15 -10 8 0 22 -15 31 -32 20 -38 42
-57 67 -58 15 0 17 -6 11 -34 -7 -42 7 -74 16 -36 8 34 45 39 61 8 6 -13 18
-27 25 -31 40 -23 -3 -50 -58 -36 -21 6 -27 3 -31 -13 -7 -27 2 -48 20 -48 10
0 13 -6 9 -16 -4 -10 0 -22 10 -29 12 -8 17 -30 19 -77 l2 -66 -57 -12 c-61
-13 -121 -3 -137 23 -5 7 -21 17 -38 22 -38 13 -56 66 -32 93 8 9 17 28 19 42
2 14 14 30 28 37 18 9 20 13 8 13 -9 0 -43 32 -74 70 -42 52 -59 83 -65 117
-5 26 -16 51 -24 56 -16 9 -21 37 -6 37 5 0 13 9 16 20 4 11 21 27 40 34 18 8
42 23 52 33 23 23 114 63 127 56 5 -4 28 -7 50 -7z m-1384 -470 c0 -3 -4 -8
-10 -11 -5 -3 -10 -1 -10 4 0 6 5 11 10 11 6 0 10 -2 10 -4z"/>
<path d="M10328 6069 c-21 -12 -24 -52 -4 -68 11 -9 16 -6 23 16 14 38 4 65
-19 52z"/>
<path d="M10308 5957 c-22 -10 -25 -16 -16 -30 5 -10 7 -34 4 -52 -8 -40 2
-49 37 -32 20 9 28 22 33 54 10 71 -2 84 -58 60z"/>
<path d="M9984 5886 c-17 -13 -16 -14 4 -20 23 -8 42 -1 42 14 0 15 -28 19
-46 6z"/>
<path d="M11347 5673 c-10 -9 -9 -23 2 -23 5 0 11 7 15 15 5 15 -5 20 -17 8z"/>
<path d="M11120 5611 c0 -13 87 -32 115 -25 19 5 23 9 14 14 -20 10 -129 20
-129 11z"/>
<path d="M11612 5595 c-20 -11 -21 -14 -7 -25 12 -10 21 -10 45 0 16 7 30 19
30 26 0 17 -37 17 -68 -1z"/>
<path d="M4880 8976 c0 -17 52 -37 70 -26 7 4 10 15 7 24 -8 21 -77 23 -77 2z"/>
<path d="M3480 8971 c0 -5 -25 -9 -55 -9 -46 1 -61 -4 -91 -28 -63 -50 -90
-66 -136 -83 -25 -10 -36 -30 -23 -43 3 -3 26 -2 52 2 37 6 50 4 59 -8 15 -20
56 1 47 24 -5 13 -2 15 14 10 12 -4 25 -1 33 9 7 8 9 15 5 15 -5 0 2 9 15 20
29 26 32 25 24 -4 -8 -35 30 -46 57 -17 11 12 26 21 33 21 16 0 28 37 15 46
-16 9 -10 21 14 28 21 7 21 7 2 16 -27 12 -65 12 -65 1z"/>
<path d="M5913 8963 c9 -2 23 -2 30 0 6 3 -1 5 -18 5 -16 0 -22 -2 -12 -5z"/>
<path d="M14685 8950 c-3 -5 1 -10 9 -10 9 0 16 5 16 10 0 6 -4 10 -9 10 -6 0
-13 -4 -16 -10z"/>
<path d="M15045 8930 c-19 -8 -19 -9 2 -9 12 -1 25 4 28 9 7 12 -2 12 -30 0z"/>
<path d="M13433 8890 c-71 -35 -182 -60 -235 -53 -24 3 -38 1 -38 -6 0 -6 -11
-11 -24 -11 -14 0 -27 -4 -30 -9 -3 -5 -21 -12 -40 -15 -19 -4 -50 -18 -70
-31 -20 -14 -43 -25 -51 -25 -8 0 -15 -4 -15 -10 0 -5 -15 -10 -32 -11 -28 0
-30 -2 -17 -11 15 -11 15 -13 -5 -30 -18 -15 -19 -19 -6 -28 12 -8 11 -10 -6
-10 -12 0 -24 -7 -28 -15 -3 -9 -21 -25 -40 -36 -31 -18 -34 -23 -23 -40 6
-10 21 -18 32 -17 11 2 42 -1 68 -5 l49 -8 54 55 c31 31 52 56 47 57 -8 0 26
16 40 18 19 2 67 33 63 39 -8 14 96 54 234 92 154 43 199 60 219 84 12 14 11
19 -4 36 -26 28 -70 25 -142 -10z"/>
<path d="M3610 8900 c0 -5 14 -10 31 -10 17 0 28 4 24 10 -3 6 -17 10 -31 10
-13 0 -24 -4 -24 -10z"/>
<path d="M3871 8870 l-34 -29 28 -11 c21 -8 25 -14 17 -22 -18 -18 -15 -25 13
-32 45 -11 26 -26 -32 -26 -53 1 -62 4 -103 40 -32 29 -53 40 -77 40 -22 0
-36 6 -43 20 -13 24 -62 27 -84 5 -8 -8 -19 -15 -24 -15 -19 0 -32 -26 -20
-38 9 -9 7 -12 -10 -12 -37 0 -24 -19 16 -23 l37 -4 -41 -1 c-70 -3 -79 -42
-10 -42 12 0 27 -5 34 -12 8 -8 15 -8 26 1 10 8 16 9 21 1 10 -16 22 -12 50
17 l25 28 0 -24 c0 -20 3 -22 28 -16 15 4 46 8 70 8 37 2 40 0 25 -11 -10 -7
-23 -10 -30 -8 -16 6 -123 -24 -123 -35 0 -40 149 -36 200 6 20 17 73 26 145
25 34 -1 73 4 88 9 31 12 54 58 40 80 -15 23 -51 32 -66 16 -22 -21 -90 1 -81
27 3 10 1 18 -5 18 -5 0 -11 10 -13 22 -4 33 -28 32 -67 -2z"/>
<path d="M4330 8880 c-13 -9 -13 -10 0 -10 8 0 22 5 30 10 13 9 13 10 0 10 -8
0 -22 -5 -30 -10z"/>
<path d="M8800 8869 c0 -14 7 -34 15 -45 15 -18 16 -17 9 16 -8 44 -24 63 -24
29z"/>
<path d="M17918 8883 c7 -3 16 -2 19 1 4 3 -2 6 -13 5 -11 0 -14 -3 -6 -6z"/>
<path d="M4162 8868 c5 -15 68 -24 68 -10 0 12 -24 22 -52 22 -11 0 -18 -5
-16 -12z"/>
<path d="M4373 8873 c-19 -7 -16 -23 4 -23 9 0 14 -3 10 -6 -3 -4 1 -13 9 -21
27 -27 5 -26 -30 1 -35 26 -76 35 -76 16 0 -5 5 -10 12 -10 6 0 8 -3 5 -7 -4
-3 -2 -12 4 -20 9 -10 7 -13 -9 -13 -20 0 -46 -23 -37 -32 3 -2 33 -1 67 4 65
9 100 4 60 -8 -17 -5 -21 -11 -16 -28 4 -11 7 -22 8 -23 5 -6 125 -5 135 1 6
4 11 14 11 22 0 8 5 14 10 14 6 0 10 7 10 15 0 8 -5 15 -11 15 -5 0 -7 5 -4
11 4 6 4 25 1 43 -8 39 -49 65 -73 45 -10 -9 -17 -9 -25 -1 -12 12 -43 15 -65
5z"/>
<path d="M15935 8870 c3 -5 11 -10 16 -10 6 0 7 5 4 10 -3 6 -11 10 -16 10 -6
0 -7 -4 -4 -10z"/>
<path d="M15095 8840 c-3 -5 -1 -10 4 -10 6 0 11 5 11 10 0 6 -2 10 -4 10 -3
0 -8 -4 -11 -10z"/>
<path d="M4187 8833 c-14 -4 -16 -8 -6 -19 6 -8 20 -14 30 -14 10 0 20 -4 24
-10 4 -6 15 -5 30 2 20 9 22 13 12 29 -11 18 -47 23 -90 12z"/>
<path d="M17328 8815 c-17 -10 -31 -29 -37 -52 -10 -36 -9 -39 21 -63 42 -33
78 -43 98 -26 10 8 44 12 100 11 47 -1 89 0 93 3 4 2 -4 13 -18 24 -30 23 -31
61 -2 66 15 3 18 0 12 -18 -10 -31 12 -50 57 -50 31 0 41 4 45 20 3 11 9 20
14 20 5 0 9 4 9 8 0 10 -68 32 -99 32 -12 0 -39 9 -59 19 -42 22 -72 14 -72
-19 0 -26 -1 -25 -57 10 -53 34 -66 36 -105 15z"/>
<path d="M3398 8800 c-47 -25 -54 -37 -27 -45 15 -5 29 1 50 21 48 46 38 56
-23 24z"/>
<path d="M5523 8813 c-17 -6 -16 -23 1 -23 8 0 16 7 20 15 6 15 1 17 -21 8z"/>
<path d="M4682 8798 c6 -18 28 -21 28 -4 0 9 -7 16 -16 16 -9 0 -14 -5 -12
-12z"/>
<path d="M17207 8770 c-3 -13 0 -20 9 -20 15 0 19 26 5 34 -5 3 -11 -3 -14
-14z"/>
<path d="M4572 8763 c-6 -2 -10 -8 -7 -13 6 -10 55 0 55 11 0 10 -27 11 -48 2z"/>
<path d="M4621 8745 c-17 -15 -28 -32 -25 -40 8 -19 107 -49 138 -41 57 14 10
106 -53 106 -17 0 -42 -11 -60 -25z"/>
<path d="M14283 8753 c-18 -6 -16 -23 1 -23 17 0 30 16 19 23 -5 2 -14 2 -20
0z"/>
<path d="M17786 8743 c-9 -21 -2 -26 67 -52 65 -24 100 -26 146 -10 55 19 33
39 -45 39 -24 0 -44 5 -44 10 0 6 -22 10 -50 10 -27 0 -50 5 -50 10 0 16 -17
11 -24 -7z"/>
<path d="M4151 8731 c-19 -12 -4 -31 25 -31 19 0 25 5 22 17 -4 20 -27 27 -47
14z"/>
<path d="M8817 8733 c-19 -19 -5 -33 35 -33 40 0 41 0 23 20 -18 20 -46 26
-58 13z"/>
<path d="M4638 8653 c7 -3 16 -2 19 1 4 3 -2 6 -13 5 -11 0 -14 -3 -6 -6z"/>
<path d="M3140 8638 c-35 -5 -66 -11 -69 -14 -2 -2 5 -17 17 -33 l21 -29 -20
-26 c-12 -15 -22 -32 -23 -39 -5 -23 -20 -52 -38 -76 -22 -29 -23 -41 -3 -41
27 0 83 -33 96 -56 14 -28 33 -30 73 -9 15 8 38 15 50 15 31 0 43 11 51 48 4
22 12 32 25 32 11 0 24 9 30 20 10 19 129 80 183 94 15 3 27 10 27 14 0 5 -20
23 -45 41 -49 35 -107 50 -128 33 -10 -9 -31 -5 -83 13 -76 27 -71 27 -164 13z"/>
<path d="M10865 8640 c3 -5 8 -10 11 -10 2 0 4 5 4 10 0 6 -5 10 -11 10 -5 0
-7 -4 -4 -10z"/>
<path d="M15917 8636 c-16 -13 -15 -15 13 -25 23 -8 36 -7 51 2 25 15 24 23
-3 31 -32 8 -41 7 -61 -8z"/>
<path d="M4721 8612 c-33 -2 -44 -8 -48 -23 -3 -10 -12 -19 -20 -19 -12 0 -14
-11 -10 -52 6 -67 17 -111 30 -119 5 -4 0 -12 -12 -19 -16 -8 -20 -17 -16 -31
5 -14 2 -20 -7 -18 -7 1 -18 1 -24 0 -16 -1 -28 -51 -15 -64 6 -6 6 -16 -2
-28 -16 -25 14 -56 71 -73 35 -10 46 -18 47 -34 1 -12 -2 -22 -7 -22 -4 0 -8
-7 -8 -15 0 -13 4 -14 20 -5 16 9 20 8 20 -5 0 -22 -50 -64 -77 -65 -26 0 -33
-17 -20 -48 13 -27 8 -33 -22 -25 -20 5 -22 10 -16 46 6 34 5 39 -9 34 -9 -4
-16 -2 -16 3 0 6 -7 10 -15 10 -8 0 -15 5 -15 11 0 7 10 9 25 5 16 -4 36 1 57
14 21 13 27 20 16 20 -9 0 -21 7 -25 15 -9 16 -98 75 -113 75 -6 0 -10 -5 -10
-10 0 -14 -31 -45 -52 -53 -30 -11 -20 -22 35 -37 l52 -16 -31 -13 c-24 -12
-29 -19 -26 -41 l4 -26 -109 -2 c-79 -1 -114 3 -130 14 -12 7 -33 14 -46 14
-32 0 -87 28 -87 45 0 7 -6 18 -14 24 -20 16 -150 -19 -154 -43 -2 -9 3 -16
13 -16 30 0 105 22 105 31 0 5 7 9 16 9 27 0 6 -18 -44 -36 -26 -10 -50 -22
-54 -28 -3 -5 2 -27 13 -48 l19 -38 -26 0 c-20 0 -24 3 -16 13 14 17 1 42 -23
42 -11 -1 -22 2 -25 5 -20 21 -68 36 -91 27 -29 -11 -234 -15 -245 -5 -10 11
14 36 37 40 29 4 28 18 -3 41 -20 15 -45 21 -95 22 -37 1 -85 10 -107 19 -21
9 -47 16 -58 16 -10 0 -40 11 -66 25 -58 31 -114 33 -142 5 -24 -24 -70 -29
-51 -6 8 10 9 16 1 21 -5 3 -10 16 -10 27 l0 22 -20 -22 c-11 -12 -20 -30 -20
-41 0 -24 -32 -36 -59 -21 -11 5 -34 30 -50 54 -34 49 -67 70 -58 37 7 -26
-30 -59 -66 -59 -16 0 -41 -9 -57 -20 -15 -12 -36 -19 -47 -16 -11 3 -25 -2
-32 -10 -8 -9 -20 -16 -27 -16 -8 0 -14 -7 -14 -15 0 -8 -7 -15 -15 -15 -24 0
-18 18 13 37 15 10 33 23 40 30 7 7 22 13 33 13 25 0 99 37 99 49 0 14 -61 6
-95 -13 -16 -9 -37 -16 -46 -16 -9 0 -28 -9 -42 -20 -31 -24 -43 -25 -65 -4
-10 11 -17 13 -20 5 -2 -6 -9 -11 -16 -11 -23 0 -66 -25 -66 -39 0 -21 -70 -6
-140 29 -36 18 -75 30 -99 30 -22 0 -61 10 -88 21 -39 18 -72 22 -170 25 -77
2 -139 9 -168 18 -25 9 -79 16 -121 16 -75 0 -120 13 -109 31 7 10 -20 14 -82
10 -26 -2 -43 2 -43 8 0 14 -37 14 -45 1 -3 -5 -11 -10 -18 -10 -8 0 -8 3 1
12 9 9 5 15 -19 25 -29 12 -34 11 -61 -12 -16 -14 -39 -26 -51 -26 -12 -1 -34
-2 -48 -3 -14 -1 -42 -12 -63 -24 -21 -12 -50 -23 -64 -24 -33 -2 -68 -32 -92
-79 -26 -50 -43 -61 -112 -74 -47 -8 -63 -15 -69 -32 -7 -19 -1 -24 46 -47 29
-14 69 -41 89 -60 30 -31 42 -36 81 -36 30 0 44 -4 40 -10 -4 -6 -1 -18 7 -27
9 -12 9 -15 1 -9 -7 4 -13 2 -13 -3 0 -6 10 -11 23 -11 20 0 20 -1 -7 -15 -16
-9 -48 -14 -75 -13 -41 3 -46 6 -45 26 0 14 -5 22 -15 22 -29 0 -91 -21 -91
-30 0 -6 -8 -10 -17 -11 -10 0 -40 -11 -68 -24 l-49 -23 44 -14 c36 -10 46
-18 48 -37 1 -14 5 -27 8 -30 3 -3 43 -7 89 -7 46 -1 88 -5 95 -9 6 -4 19 0
28 8 22 19 82 32 82 18 0 -5 -8 -15 -17 -20 -11 -6 -13 -11 -5 -11 7 0 17 -12
23 -27 8 -22 7 -30 -7 -40 -10 -7 -29 -13 -42 -13 -13 0 -35 -9 -48 -19 -20
-16 -29 -17 -53 -8 -34 12 -61 -3 -61 -33 0 -10 -6 -20 -14 -23 -8 -3 -21 -20
-30 -37 -18 -38 -7 -70 24 -70 24 0 25 -8 3 -32 -16 -18 -15 -20 18 -48 19
-16 44 -29 57 -30 30 0 64 18 57 31 -4 5 -4 9 -1 9 13 0 37 -63 31 -80 -4 -12
-2 -20 5 -20 7 0 10 -8 7 -20 -6 -22 17 -29 29 -9 4 8 9 7 15 -2 7 -11 9 -10
9 4 0 16 5 17 32 12 18 -4 40 -13 49 -21 17 -15 30 -18 28 -6 -3 18 2 32 11
32 6 0 10 -7 10 -16 0 -16 17 -15 67 3 17 6 17 6 0 -14 -10 -11 -17 -24 -15
-29 9 -34 -49 -102 -114 -135 -22 -11 -43 -29 -45 -40 -4 -14 -11 -18 -25 -13
-21 6 -78 -13 -78 -27 0 -13 -57 -40 -73 -34 -21 8 -67 -12 -67 -30 0 -18 4
-18 28 -6 9 5 40 15 67 21 28 6 60 21 73 32 12 12 22 17 22 11 0 -16 48 -13
54 3 3 8 15 14 26 14 31 0 92 28 86 39 -4 5 10 15 30 21 20 7 53 28 73 47 20
20 54 44 76 54 68 32 107 89 59 89 -23 0 -16 15 13 31 34 17 53 34 53 47 0 6
21 29 46 51 47 41 95 54 110 30 4 -6 -1 -10 -12 -8 -31 5 -64 -11 -64 -29 0
-10 -7 -28 -16 -40 -12 -18 -13 -26 -4 -37 9 -11 9 -15 1 -15 -6 0 -11 -4 -11
-10 0 -20 43 -10 87 20 25 17 52 28 62 26 29 -10 60 31 40 51 -5 5 -7 18 -3
27 4 10 9 13 13 7 4 -6 20 -7 44 -2 32 8 37 6 37 -9 0 -16 32 -30 76 -34 6 -1
22 -9 37 -19 20 -13 37 -16 66 -11 26 4 59 0 95 -11 33 -10 66 -15 82 -11 21
6 25 4 21 -8 -5 -12 7 -23 41 -41 92 -50 172 -111 172 -131 0 -9 4 -13 8 -10
5 3 15 -10 22 -29 8 -19 17 -35 22 -35 14 0 9 55 -8 78 -8 12 -11 22 -6 22 5
0 9 6 9 14 0 8 -5 12 -12 10 -7 -3 -11 8 -11 28 l0 33 27 -25 c15 -14 22 -28
17 -31 -11 -7 0 -59 13 -59 5 0 12 6 15 14 7 18 34 9 34 -10 0 -8 -7 -14 -16
-14 -8 0 -12 -4 -9 -10 3 -6 -1 -7 -10 -4 -13 5 -15 1 -13 -19 5 -36 18 -46
24 -20 4 15 11 20 22 15 22 -8 52 -35 52 -46 0 -5 -11 1 -26 14 -21 20 -27 22
-34 10 -6 -9 -5 -17 3 -22 7 -4 8 -8 2 -8 -5 0 10 -18 34 -40 24 -22 47 -37
52 -34 5 3 7 9 4 14 -3 5 -1 11 5 15 5 3 10 -1 10 -9 0 -9 5 -16 10 -16 6 0 9
5 8 11 -2 6 3 14 10 16 10 4 13 -4 10 -28 -3 -29 0 -34 19 -33 20 0 20 -1 6
-23 -14 -20 -14 -23 0 -23 8 0 17 -10 20 -22 6 -22 6 -22 -8 -4 -8 11 -15 15
-15 10 0 -6 11 -21 24 -33 22 -21 24 -21 40 -5 13 12 20 14 29 5 8 -8 7 -11
-6 -11 -21 0 -22 -23 -2 -40 12 -10 15 -10 15 4 0 19 19 22 21 4 1 -7 2 -20 3
-28 0 -8 7 -14 14 -12 6 1 13 -7 13 -18 3 -46 14 -60 45 -60 15 0 24 -6 24
-15 0 -19 -1 -19 -50 1 -23 9 -43 15 -45 12 -8 -8 8 -48 19 -48 7 0 22 -9 34
-20 12 -11 26 -20 32 -20 5 0 10 -4 10 -10 0 -5 7 -10 15 -10 9 0 18 -7 21
-15 4 -8 16 -15 28 -15 16 0 22 -7 24 -24 1 -13 10 -46 20 -73 21 -53 21 -123
1 -232 -9 -49 -9 -75 1 -115 10 -41 10 -58 0 -75 -9 -18 -9 -26 3 -39 8 -9 17
-32 21 -51 3 -19 15 -40 26 -48 11 -8 20 -21 20 -30 0 -10 6 -14 18 -11 15 4
18 1 15 -16 -3 -13 2 -28 11 -35 9 -8 16 -20 16 -28 0 -8 16 -33 35 -56 19
-22 35 -49 35 -59 0 -12 7 -18 23 -18 22 0 85 -26 97 -39 3 -3 14 -11 25 -17
20 -11 49 -62 100 -176 14 -32 30 -58 35 -58 21 0 70 -53 70 -76 0 -20 -5 -24
-32 -25 -30 0 -31 -1 -10 -9 12 -5 22 -13 22 -17 0 -9 48 -33 65 -33 6 0 25
-13 43 -29 22 -21 32 -39 32 -59 0 -23 8 -35 33 -51 39 -25 44 -15 18 35 -12
21 -21 43 -21 49 0 5 -14 24 -31 40 -17 17 -38 44 -46 60 -8 17 -32 50 -52 75
-61 74 -76 148 -27 135 39 -11 66 -28 66 -42 0 -8 9 -31 20 -53 11 -21 17 -46
14 -54 -4 -10 -1 -16 7 -16 16 0 99 -77 99 -91 0 -5 5 -9 10 -9 18 0 55 -44
52 -62 -2 -11 9 -22 32 -33 20 -10 36 -21 36 -25 0 -5 32 -40 70 -79 39 -38
70 -78 70 -89 0 -10 5 -23 11 -29 7 -7 7 -22 -2 -51 -14 -49 -6 -63 51 -92 20
-10 42 -25 49 -34 7 -9 29 -18 50 -22 20 -4 43 -13 52 -21 18 -15 165 -76 242
-99 45 -14 52 -14 85 3 20 10 46 17 58 15 11 -2 51 -30 88 -62 37 -33 75 -60
84 -60 10 0 45 -10 77 -21 33 -12 77 -21 98 -22 20 0 37 -3 37 -8 0 -4 23 -29
50 -55 43 -41 50 -52 48 -81 -1 -21 3 -38 12 -43 21 -13 30 -12 30 3 1 8 5 7
13 -4 7 -8 20 -18 30 -22 11 -4 21 -16 24 -26 5 -21 35 -34 71 -31 13 1 32 -6
42 -15 10 -9 23 -14 28 -11 6 3 12 -1 16 -9 7 -19 46 -20 46 -1 0 8 -5 18 -10
21 -6 3 4 18 21 33 29 24 33 25 57 11 14 -8 29 -27 33 -43 5 -16 17 -38 28
-50 20 -22 32 -120 17 -144 -4 -7 -4 -17 -1 -22 8 -13 -41 -80 -59 -80 -7 0
-18 -15 -25 -33 -9 -21 -24 -38 -42 -44 -16 -6 -29 -18 -29 -27 0 -8 -8 -30
-19 -49 -25 -45 -32 -104 -11 -113 8 -4 21 -6 28 -5 17 3 15 -16 -4 -31 -59
-48 -66 -59 -59 -91 4 -18 8 -42 7 -54 0 -14 9 -25 27 -33 14 -6 39 -30 54
-53 14 -23 31 -49 36 -57 6 -8 25 -46 43 -85 18 -38 35 -72 38 -75 13 -12 61
-111 59 -122 -1 -7 -1 -18 0 -25 2 -23 76 -82 146 -117 83 -43 96 -51 142 -94
34 -32 35 -34 40 -131 4 -62 2 -111 -6 -131 -7 -21 -8 -37 -1 -44 5 -7 7 -39
4 -71 -2 -33 -5 -67 -6 -75 0 -8 -10 -49 -21 -90 -11 -41 -20 -91 -19 -110 1
-19 -1 -42 -5 -50 -4 -8 -7 -53 -8 -100 0 -47 -7 -103 -14 -125 -20 -58 -83
-189 -93 -193 -11 -5 -10 -85 1 -115 7 -17 5 -33 -6 -53 -8 -16 -17 -60 -19
-99 -2 -38 -6 -85 -9 -103 -4 -24 -2 -32 8 -32 21 0 37 23 28 39 -13 21 3 75
23 79 13 3 17 0 13 -11 -3 -8 0 -20 6 -26 8 -8 8 -11 -1 -11 -7 0 -12 -8 -12
-17 0 -10 -7 -36 -14 -58 -8 -22 -11 -44 -6 -50 7 -9 -4 -55 -13 -55 -3 0 -4
11 -4 25 0 35 -10 42 -30 22 -14 -13 -15 -21 -5 -42 7 -15 8 -24 3 -20 -5 3
-12 -4 -16 -15 -3 -11 -13 -20 -21 -20 -8 0 -14 -7 -14 -15 0 -8 -9 -19 -20
-25 -12 -6 -18 -16 -13 -23 5 -8 8 -8 11 1 5 15 13 15 47 2 22 -8 25 -13 15
-25 -6 -8 -9 -18 -7 -22 3 -5 -8 -18 -24 -28 -29 -19 -30 -22 -24 -75 7 -60
12 -73 25 -65 5 3 11 1 15 -5 3 -5 -3 -10 -14 -10 -12 0 -21 -4 -21 -10 0 -5
7 -10 15 -10 8 0 15 -5 15 -11 0 -6 -7 -9 -15 -5 -20 7 -19 -3 2 -26 13 -15
14 -21 5 -27 -25 -15 29 -91 64 -91 8 0 12 -5 9 -10 -3 -6 1 -13 9 -16 14 -5
14 -8 1 -20 -12 -12 -12 -19 -2 -35 6 -10 17 -17 24 -15 6 3 13 0 15 -6 5 -13
28 -2 28 13 0 5 -15 15 -32 23 -24 11 -28 15 -13 15 11 0 29 -6 39 -14 11 -8
30 -15 43 -15 19 0 23 5 23 29 0 34 23 61 50 61 10 0 22 4 25 10 3 5 17 10 31
10 28 0 30 8 10 36 -15 20 -11 69 7 93 6 7 21 17 34 22 15 5 23 17 23 31 0 15
20 41 55 73 58 54 73 95 36 95 -24 0 -81 47 -81 66 0 26 30 62 63 75 40 16 56
37 57 71 0 17 10 35 28 49 17 14 22 23 15 26 -18 6 -16 23 2 23 8 0 15 -4 15
-10 0 -15 27 -12 33 3 3 8 1 20 -3 27 -7 11 -11 11 -24 0 -24 -19 -56 13 -56
58 0 33 1 34 28 27 50 -13 97 -16 110 -7 7 5 13 34 15 69 l2 60 75 6 c107 8
160 29 198 79 37 48 40 68 12 86 -15 9 -19 19 -14 37 5 20 1 28 -25 42 -30 18
-47 41 -36 51 3 3 11 0 17 -6 7 -7 21 -12 33 -12 12 0 26 -5 32 -11 5 -5 36
-12 68 -14 l58 -5 48 50 c47 49 96 126 91 144 -2 5 6 18 16 30 11 11 21 27 24
35 2 8 11 15 20 17 11 1 15 -3 11 -12 -13 -33 9 -10 27 30 12 23 34 56 50 71
27 26 30 35 30 94 0 36 3 75 6 86 7 23 85 84 129 100 39 14 78 35 86 47 3 5
38 9 77 9 56 0 72 4 72 15 0 8 11 20 25 26 14 6 25 20 25 30 0 10 18 45 40 77
23 34 40 70 40 86 0 16 7 36 15 45 11 12 17 48 21 121 7 142 12 169 29 163 8
-4 23 12 41 43 15 26 52 71 82 98 68 63 88 124 67 203 -17 67 -21 72 -59 72
-20 0 -51 12 -80 33 -27 17 -67 44 -89 59 -33 22 -51 27 -97 27 -32 -1 -67 4
-79 11 -26 13 -92 11 -104 -5 -5 -6 -7 -3 -3 7 8 26 -22 52 -92 82 -80 33 -95
33 -121 -1 l-20 -28 9 35 c6 19 10 36 10 37 0 1 -48 13 -67 16 -14 2 -31 21
-28 32 1 5 6 18 10 28 6 14 1 25 -18 41 -16 14 -32 43 -40 74 -23 91 -130 153
-257 149 -54 -1 -71 2 -97 21 -17 12 -36 22 -42 22 -6 0 -11 8 -11 18 0 40
-73 85 -122 76 -27 -6 -31 -4 -20 7 28 30 0 68 -50 69 -26 0 -32 8 -29 37 2
15 -77 5 -104 -13 -25 -18 -66 -18 -91 0 -13 10 -34 13 -67 9 -43 -5 -49 -4
-54 16 -9 37 -86 41 -153 8 -26 -13 -29 -13 -35 1 -4 10 2 22 16 33 12 9 19
21 15 28 -10 15 -33 14 -43 -2 -14 -21 -61 -47 -88 -47 -14 0 -25 -5 -25 -11
0 -6 -8 -8 -18 -5 -21 7 -46 -16 -57 -54 -4 -14 -21 -37 -36 -53 -16 -15 -29
-32 -29 -38 0 -6 -17 4 -39 24 -52 47 -108 57 -158 27 -52 -31 -87 -21 -145
40 -39 42 -47 56 -46 86 1 19 5 37 10 40 4 3 8 25 8 49 0 24 4 46 9 50 14 8 6
58 -10 64 -8 2 -19 11 -26 20 -10 13 -32 16 -137 14 -69 -1 -126 2 -126 6 0 5
7 14 15 21 8 6 17 38 21 71 4 32 10 56 15 54 8 -6 15 12 24 65 3 19 13 42 21
52 41 44 -9 67 -101 47 -64 -15 -71 -21 -79 -69 -3 -22 -15 -48 -26 -57 -11
-10 -20 -23 -20 -30 0 -16 -16 -17 -25 -3 -4 6 -15 8 -25 5 -10 -3 -31 -7 -46
-9 -16 -2 -41 -7 -55 -11 -17 -4 -30 -1 -38 9 -8 9 -22 16 -31 16 -19 0 -60
44 -60 63 0 6 -10 21 -22 34 -12 13 -23 34 -23 46 -1 12 -7 32 -13 44 -15 26
-6 153 13 199 8 20 9 36 4 45 -13 19 -8 91 7 107 7 6 32 22 56 35 23 12 47 31
53 42 9 18 19 21 80 20 39 0 75 3 81 7 6 4 20 -1 31 -12 20 -18 65 -22 80 -7
3 4 15 0 25 -10 10 -9 21 -13 25 -10 4 4 -2 14 -13 22 -16 13 -17 16 -4 25 13
8 13 10 1 10 -10 0 -12 3 -5 10 5 5 47 11 93 13 67 2 88 -1 113 -16 29 -18 42
-18 79 -3 26 11 91 -62 84 -93 -6 -25 11 -81 25 -81 4 0 13 -13 20 -29 6 -16
18 -32 26 -35 8 -3 14 -13 14 -21 0 -11 7 -15 23 -13 47 7 44 116 -8 218 -7
14 -18 44 -24 67 -10 36 -9 48 9 85 13 27 35 52 60 68 22 13 49 37 60 52 11
15 29 28 39 28 10 0 26 9 35 19 10 11 28 21 40 23 15 2 20 9 18 25 -2 12 2 24
8 28 5 3 10 0 10 -7 0 -9 3 -9 10 2 13 20 12 26 -4 42 -17 18 -31 143 -17 153
7 4 11 -5 11 -24 0 -16 5 -33 11 -37 6 -3 8 -17 5 -30 -9 -34 -1 -30 24 13 17
30 19 41 11 61 -10 21 -9 23 7 18 25 -8 54 25 57 66 2 29 7 34 36 39 27 5 29
7 9 8 -40 2 -3 21 42 21 20 0 43 6 50 13 7 7 26 12 41 10 27 -2 28 -1 14 20
-8 13 -13 35 -12 50 4 35 31 77 50 77 7 0 21 8 31 18 10 9 20 17 23 18 3 0 19
6 34 12 16 7 35 12 43 12 8 0 14 7 14 15 0 9 9 15 23 15 13 0 44 10 68 23 45
22 45 22 35 1 -6 -11 -23 -28 -38 -37 -33 -19 -45 -44 -31 -65 16 -26 30 -24
68 9 20 18 50 34 66 36 16 1 55 13 87 26 31 13 62 22 68 20 5 -2 21 8 34 22
24 26 24 26 3 31 -14 4 -19 11 -16 25 8 31 -15 22 -39 -16 -15 -21 -31 -34
-43 -33 -11 0 -24 -1 -30 -3 -17 -5 -85 11 -85 21 0 6 -6 10 -14 10 -20 0 -56
64 -45 81 15 24 10 32 -16 27 -15 -3 -30 1 -37 10 -11 13 -10 14 9 8 25 -8 83
20 83 40 0 23 -32 37 -79 36 -69 -1 -165 -48 -228 -111 -28 -28 -57 -51 -64
-51 -7 0 4 17 24 38 20 21 37 43 37 49 0 16 90 93 109 93 9 0 24 14 33 30 18
32 25 33 143 32 28 -1 84 -2 125 -2 86 -2 123 9 165 50 19 18 52 35 89 44 76
20 99 40 90 79 -4 20 -2 32 7 38 21 13 -20 40 -43 28 -24 -13 -27 -11 -21 10
3 13 -2 21 -18 26 -20 7 -21 8 -5 17 16 9 16 10 0 23 -10 7 -26 10 -37 7 -12
-3 -25 2 -33 12 -8 11 -27 18 -49 19 -24 1 -34 5 -31 14 6 14 -22 46 -33 38
-5 -2 -19 7 -31 20 -22 24 -23 26 -6 38 17 13 17 14 1 30 -9 9 -13 22 -9 28 5
8 3 9 -6 4 -10 -6 -12 -4 -7 8 4 10 -3 23 -18 35 -13 11 -21 22 -18 26 3 3 -5
6 -18 6 -18 0 -20 3 -10 9 11 7 10 13 -5 35 -11 14 -25 26 -33 26 -8 0 -12 3
-8 6 3 4 -1 21 -10 38 -10 17 -16 37 -15 44 2 8 -4 6 -17 -5 -12 -9 -24 -33
-27 -53 -9 -47 -22 -70 -39 -70 -8 0 -15 -4 -15 -8 0 -14 -51 -33 -71 -27 -11
4 -24 15 -30 27 -8 14 -18 19 -36 15 -20 -4 -24 -1 -20 14 3 11 2 19 -2 19
-11 0 -12 108 -1 115 16 10 11 25 -7 23 -37 -4 -105 15 -111 31 -9 24 -28 41
-46 41 -9 0 -16 4 -16 8 0 5 -15 15 -33 24 -27 13 -37 14 -56 3 -23 -12 -66
-8 -136 13 -57 17 -101 -24 -60 -58 14 -12 16 -35 3 -55 -4 -6 0 -32 9 -58
l15 -46 -31 -43 c-29 -39 -30 -44 -15 -53 10 -5 33 -24 52 -41 29 -25 35 -39
39 -81 7 -67 -20 -104 -105 -144 -63 -30 -63 -31 -48 -54 9 -14 16 -37 16 -53
0 -16 7 -46 16 -67 11 -27 12 -41 5 -48 -6 -6 -11 -22 -11 -36 0 -19 -3 -22
-12 -13 -9 9 -16 8 -29 -4 -16 -15 -22 -11 -78 46 -56 57 -61 66 -63 109 -1
25 -2 61 -3 79 -3 43 -17 52 -90 52 -37 0 -68 6 -80 16 -11 8 -37 19 -59 25
-22 6 -56 25 -76 41 -55 47 -152 71 -212 55 -22 -6 -28 -4 -28 9 0 9 -8 38
-17 65 -17 46 -20 49 -53 49 -20 0 -41 5 -48 12 -33 33 7 183 66 250 46 52 53
58 63 53 5 -4 9 -2 9 4 0 5 -6 12 -12 14 -7 3 1 6 19 6 47 1 63 11 63 36 0 14
7 25 20 28 11 3 20 11 20 19 0 10 11 12 40 10 37 -4 44 0 81 39 25 28 38 51
35 62 -3 11 6 25 25 39 33 25 37 42 12 54 -15 6 -12 8 12 13 31 7 80 -12 110
-43 9 -9 21 -16 25 -16 10 0 -5 43 -24 70 -7 10 -4 9 10 -2 27 -24 31 -23 86
14 51 35 64 60 41 79 -12 11 -38 53 -46 76 -1 3 8 7 21 8 31 2 52 23 34 34 -7
4 -12 14 -10 21 2 8 -6 16 -16 18 -22 5 -48 27 -40 35 5 5 -71 19 -128 22 -36
3 -38 2 -38 -29 0 -21 7 -35 22 -45 l22 -14 -22 -8 c-12 -5 -22 -17 -22 -28 0
-11 -8 -27 -17 -36 -16 -16 -17 -16 -25 5 -4 11 -12 18 -18 15 -14 -9 -12 -21
7 -40 16 -16 15 -18 -8 -36 -24 -18 -24 -18 -51 8 -31 29 -38 73 -12 73 23 0
8 40 -24 68 -41 34 -54 28 -81 -41 -13 -33 -31 -27 -31 10 0 15 -8 35 -17 46
-17 19 -17 19 5 13 14 -5 22 -3 22 5 0 7 -3 10 -6 6 -4 -3 -13 1 -22 9 -8 9
-25 14 -37 12 -12 -3 -30 1 -40 8 -17 13 -17 14 -1 20 9 4 15 13 12 20 -4 9 2
14 17 14 19 0 17 4 -16 31 -20 17 -37 39 -37 50 0 24 -51 79 -74 79 -21 0 -20
6 4 32 23 25 26 48 8 48 -10 0 -10 2 0 9 8 5 33 7 55 5 40 -4 44 -2 91 51 27
31 45 59 42 63 -4 3 -31 7 -59 8 -29 1 -63 6 -77 10 -14 5 -45 8 -69 6z m-173
-629 c5 -18 -10 -16 -34 2 -18 15 -18 15 5 13 14 -2 26 -9 29 -15z m-3423
-109 c12 -5 14 -9 4 -14 -14 -9 -39 -2 -39 11 0 11 12 11 35 3z m3884 -95 c37
-22 37 -35 -1 -20 -25 9 -57 41 -42 41 5 0 24 -9 43 -21z m-4029 -409 c0 -11
-57 -7 -69 5 -7 7 3 9 29 7 22 -2 40 -8 40 -12z m1490 -212 c0 -6 -6 -5 -15 2
-8 7 -15 14 -15 16 0 2 7 1 15 -2 8 -4 15 -11 15 -16z m150 -98 c0 -5 -7 -7
-15 -4 -8 4 -12 10 -9 15 6 11 24 2 24 -11z m40 -41 c0 -6 -4 -7 -10 -4 -5 3
-10 11 -10 16 0 6 5 7 10 4 6 -3 10 -11 10 -16z m11 -32 c-1 -12 -15 -9 -19 4
-3 6 1 10 8 8 6 -3 11 -8 11 -12z m39 -1 c0 -3 -4 -8 -10 -11 -5 -3 -10 -1
-10 4 0 6 5 11 10 11 6 0 10 -2 10 -4z m3930 -141 c0 -5 -55 -35 -65 -35 -4 0
-5 6 -3 12 5 14 68 36 68 23z m-3585 -265 c3 -11 15 -20 26 -20 10 0 19 -4 19
-10 0 -5 9 -10 20 -10 11 0 20 -5 20 -11 0 -6 9 -18 20 -27 23 -19 43 -121 21
-108 -7 5 -10 14 -7 21 3 8 -4 17 -15 20 -10 4 -19 12 -19 18 0 14 -31 47 -72
78 -16 11 -28 29 -28 39 0 11 -9 20 -22 23 -20 4 -20 4 4 6 19 1 29 -5 33 -19z
m2140 -108 c20 -31 45 -51 57 -47 12 5 28 -22 43 -72 5 -18 2 -23 -13 -23 -11
0 -22 4 -24 9 -2 5 -27 4 -59 -1 -48 -9 -59 -8 -82 7 -22 14 -25 20 -16 31 17
20 5 17 -61 -16 -60 -30 -97 -39 -85 -19 5 7 -5 8 -32 3 l-38 -7 19 21 c10 12
39 31 64 43 25 13 53 30 62 39 18 18 48 33 78 39 4 1 0 6 -8 12 -11 7 -1 8 35
3 29 -3 54 -13 60 -22z m125 -152 c0 -5 -5 -10 -11 -10 -5 0 -7 5 -4 10 3 6 8
10 11 10 2 0 4 -4 4 -10z m135 -23 c38 -10 54 -21 67 -44 18 -29 16 -63 -4
-63 -5 0 -20 11 -34 25 -27 27 -44 34 -25 11 10 -11 10 -20 0 -38 -7 -13 -15
-36 -19 -53 -8 -41 -35 -44 -48 -6 -12 34 -23 38 -42 16 -7 -8 -17 -12 -22 -9
-5 3 0 16 12 29 29 31 18 71 -26 93 -33 15 -35 15 -54 -6 -11 -12 -20 -26 -20
-31 0 -6 -6 -8 -13 -5 -8 3 -18 -1 -24 -8 -16 -21 -31 -95 -22 -110 25 -39 -6
-112 -44 -106 -31 4 -42 84 -22 152 12 38 12 52 3 57 -8 5 -4 17 14 41 29 38
90 59 149 51 21 -3 40 0 43 6 9 15 69 14 131 -2z m1095 -11 c0 -3 -4 -8 -10
-11 -5 -3 -10 -1 -10 4 0 6 5 11 10 11 6 0 10 -2 10 -4z m-720 -21 c-7 -9 -15
-13 -17 -11 -7 7 7 26 19 26 6 0 6 -6 -2 -15z m-90 -109 c0 -18 -7 -26 -27
-31 -38 -10 -163 -14 -163 -5 0 12 47 29 100 36 28 4 53 11 56 15 11 19 34 8
34 -15z m-155 -76 c7 -11 -66 -49 -138 -74 -35 -12 -53 -13 -68 -6 -22 13 -25
30 -4 30 8 0 31 9 51 21 20 11 46 19 58 18 11 -1 28 1 36 4 8 3 24 8 35 10 11
3 21 5 22 6 1 0 5 -3 8 -9z m-190 -20 c3 -5 1 -10 -4 -10 -6 0 -11 5 -11 10 0
6 2 10 4 10 3 0 8 -4 11 -10z m-445 -740 c0 -5 -2 -10 -4 -10 -3 0 -8 5 -11
10 -3 6 -1 10 4 10 6 0 11 -4 11 -10z m1014 -1156 c12 -30 7 -56 -10 -52 -27
5 -40 34 -25 52 17 20 27 20 35 0z m1121 -540 c-6 -2 -10 -21 -8 -42 2 -20 0
-31 -3 -24 -3 6 -9 10 -14 7 -8 -5 -11 44 -3 58 2 4 12 7 21 6 9 0 12 -3 7 -5z
m-68 -80 c-3 -3 -12 -4 -19 -1 -8 3 -5 6 6 6 11 1 17 -2 13 -5z m153 -18 c0
-3 -4 -8 -10 -11 -5 -3 -10 -1 -10 4 0 6 5 11 10 11 6 0 10 -2 10 -4z m-1330
-2526 c0 -5 -5 -10 -11 -10 -5 0 -7 5 -4 10 3 6 8 10 11 10 2 0 4 -4 4 -10z
m-15 -170 c3 -5 -1 -10 -10 -10 -9 0 -13 5 -10 10 3 6 8 10 10 10 2 0 7 -4 10
-10z m-58 -66 c-9 -9 -28 6 -21 18 4 6 10 6 17 -1 6 -6 8 -13 4 -17z m36 -191
c-18 -7 -16 -23 3 -23 8 0 12 -5 9 -11 -5 -7 -16 -2 -32 12 -22 22 -23 24 -7
36 13 10 21 10 28 2 8 -8 7 -13 -1 -16z m127 -67 c0 -8 -51 -13 -56 -5 -3 5 9
9 25 9 17 0 31 -2 31 -4z m9 -37 c-18 -11 -39 -11 -39 -1 0 14 44 31 49 20 2
-6 -3 -14 -10 -19z"/>
<path d="M5395 6281 c-3 -5 4 -13 16 -16 23 -8 34 -1 24 14 -8 13 -32 14 -40
2z"/>
<path d="M17210 8605 c7 -8 17 -15 22 -15 6 0 5 7 -2 15 -7 8 -17 15 -22 15
-6 0 -5 -7 2 -15z"/>
<path d="M17450 8606 c0 -19 14 -28 34 -20 25 10 19 34 -9 34 -15 0 -25 -6
-25 -14z"/>
<path d="M4425 8582 c-27 -9 -58 -24 -68 -33 -18 -17 -18 -18 2 -29 12 -6 27
-8 33 -4 6 4 8 3 4 -4 -3 -5 0 -12 6 -15 10 -3 10 -7 -1 -20 -17 -21 -40 -22
-69 -1 -25 18 -52 12 -52 -10 0 -18 51 -56 75 -56 9 0 40 -23 70 -51 53 -50
93 -62 87 -28 -2 12 4 15 23 11 36 -6 75 22 69 50 -3 13 -6 31 -6 41 1 10 -7
21 -16 24 -9 4 -21 12 -27 19 -5 7 -21 14 -35 16 -25 4 -25 4 8 21 18 10 30
22 27 26 -3 5 2 12 11 15 25 10 4 28 -27 24 -23 -4 -26 -2 -18 9 16 18 -31 16
-96 -5z"/>
<path d="M5087 8570 c-40 -12 -94 -56 -103 -82 -3 -13 -13 -31 -21 -40 -9 -10
-13 -24 -10 -32 4 -9 2 -18 -3 -21 -4 -3 -5 -17 -1 -33 7 -27 50 -50 97 -51
12 -1 28 -8 35 -17 12 -14 8 -15 -44 -9 -59 8 -63 6 -47 -24 14 -27 64 -44
106 -37 26 5 39 3 47 -7 8 -11 49 -19 131 -26 65 -7 121 -9 124 -7 2 3 14 0
26 -6 19 -10 20 -10 7 5 -17 21 -5 22 52 6 38 -10 77 -5 77 11 0 5 -7 16 -16
25 -9 9 -14 18 -12 21 7 6 88 -47 88 -58 0 -4 6 -8 14 -8 8 0 17 -7 20 -16 3
-8 10 -12 16 -9 5 3 10 2 10 -3 0 -6 12 -13 26 -16 30 -8 27 -30 -4 -34 -12
-2 -22 -10 -22 -19 0 -11 5 -13 18 -8 40 18 68 16 86 -4 15 -16 22 -18 33 -10
10 9 13 7 13 -10 0 -12 6 -21 15 -21 17 0 65 -67 65 -91 0 -9 -7 -19 -15 -23
-8 -3 -15 -11 -15 -18 -1 -7 -19 -26 -42 -42 l-42 -28 27 -20 c31 -23 35 -37
10 -37 -10 0 -40 -4 -68 -9 -29 -6 -60 -6 -73 -1 -35 13 -62 11 -62 -6 0 -8
-6 -15 -14 -15 -16 0 -29 -27 -20 -42 4 -5 20 -16 37 -23 25 -11 38 -10 71 1
21 8 47 12 57 9 11 -4 19 0 21 11 3 16 5 16 18 2 8 -8 21 -13 27 -11 7 3 30
-12 50 -31 21 -20 46 -36 56 -36 9 0 17 -4 17 -10 0 -5 -5 -10 -12 -10 -7 0 8
-19 31 -42 27 -27 45 -38 48 -30 7 18 28 15 69 -13 20 -14 48 -25 61 -25 13 0
40 -7 60 -15 44 -19 43 -19 43 5 0 13 -17 32 -47 53 -68 47 -99 74 -92 82 6 5
95 -31 169 -69 33 -16 53 1 45 41 -3 16 -2 22 1 16 10 -22 24 -14 24 13 0 18
-6 28 -21 31 -14 4 -19 12 -16 24 5 18 -25 53 -46 55 -7 0 -20 2 -30 2 -9 1
-22 13 -28 26 -6 13 -25 29 -42 37 -41 18 -47 38 -10 31 l28 -5 -20 23 c-17
19 -17 22 -3 17 9 -3 18 -1 21 6 2 8 19 4 50 -13 42 -22 49 -23 69 -11 l23 14
-22 -25 c-21 -22 -22 -26 -7 -46 12 -18 72 -52 90 -52 2 0 4 16 4 35 0 27 3
33 16 28 21 -8 56 31 41 46 -8 8 -5 11 12 11 16 0 21 4 18 14 -4 11 -1 13 11
9 15 -6 15 -4 -2 15 -16 18 -26 21 -58 15 -35 -5 -39 -4 -36 13 2 15 -3 19
-23 19 -18 -1 -25 4 -22 13 7 17 -26 42 -46 34 -8 -3 -12 -1 -8 5 4 6 -6 10
-25 11 -17 0 -34 6 -38 12 -4 6 -14 8 -23 4 -12 -4 -17 -1 -17 10 0 9 -12 19
-27 22 -15 4 -38 13 -52 20 l-26 14 28 0 c29 0 34 9 15 29 -11 10 -5 11 30 5
46 -7 61 11 18 22 -14 3 -27 13 -30 21 -5 12 -1 14 20 9 22 -6 25 -4 20 9 -3
9 -6 18 -6 20 0 3 -9 9 -20 15 -17 9 -24 7 -41 -12 -15 -17 -19 -18 -15 -5 3
9 0 17 -7 18 -7 0 -1 5 12 10 34 13 15 30 -43 36 -32 4 -53 1 -70 -11 -29 -18
-36 -20 -36 -7 0 5 9 11 20 14 12 3 20 14 20 25 0 16 -5 19 -22 14 -20 -5 -21
-3 -10 10 10 12 10 17 -1 26 -21 18 -95 26 -111 13 -11 -9 -18 -8 -30 5 -16
15 -18 15 -36 -1 -18 -16 -20 -16 -20 -2 0 9 9 21 20 27 27 15 14 33 -19 28
-24 -3 -27 -1 -23 19 3 18 -1 23 -24 28 -16 4 -38 10 -49 15 -19 8 -19 9 3 9
29 1 28 12 -5 43 -38 36 -65 45 -153 49 -70 4 -75 3 -72 -16 2 -11 12 -28 23
-38 10 -10 19 -22 19 -26 0 -16 27 -20 70 -10 52 12 75 6 36 -10 -18 -7 -26
-16 -22 -26 3 -9 0 -15 -9 -15 -8 0 -15 -6 -15 -12 0 -9 -3 -9 -9 1 -15 24
-44 21 -74 -7 l-27 -26 2 37 c2 20 9 39 16 42 13 5 3 29 -28 66 -8 10 -21 25
-29 34 -11 14 -24 16 -62 12 -26 -3 -56 -10 -66 -15 -10 -6 -30 -15 -44 -20
-34 -13 -64 -69 -48 -88 6 -8 20 -14 30 -14 26 0 24 -13 -3 -25 -31 -14 -29
-37 5 -53 15 -7 27 -21 27 -32 0 -24 -10 -29 -34 -20 -19 6 -19 7 -1 14 16 6
14 10 -18 37 -29 24 -37 37 -37 64 0 19 -5 37 -10 40 -14 9 18 62 53 87 15 10
27 24 27 29 0 11 -94 10 -133 -1z m1048 -420 c3 -5 2 -10 -4 -10 -5 0 -13 5
-16 10 -3 6 -2 10 4 10 5 0 13 -4 16 -10z"/>
<path d="M17487 8556 l-16 -23 75 -13 c59 -10 78 -10 87 -1 9 10 5 18 -18 37
-42 33 -106 34 -128 0z"/>
<path d="M4046 8557 c-15 -11 -13 -15 28 -44 l44 -31 21 22 c25 26 27 52 5 60
-27 10 -79 7 -98 -7z"/>
<path d="M13948 8543 c7 -3 16 -2 19 1 4 3 -2 6 -13 5 -11 0 -14 -3 -6 -6z"/>
<path d="M13644 8525 c-10 -24 5 -34 44 -28 46 7 48 9 32 28 -16 19 -69 20
-76 0z"/>
<path d="M3523 8506 c-74 -27 -116 -53 -108 -66 3 -5 -4 -19 -15 -30 -17 -17
-19 -24 -9 -36 6 -8 20 -14 31 -14 12 0 16 -4 12 -11 -5 -9 9 -10 50 -7 65 5
76 -7 14 -17 -24 -4 -51 -12 -61 -17 -18 -9 -18 -10 -1 -29 17 -18 30 -20 149
-18 102 2 137 0 165 -13 35 -16 35 -16 -70 -18 -140 -2 -185 -10 -185 -34 0
-32 45 -56 118 -63 54 -5 67 -9 67 -23 0 -9 9 -25 20 -35 17 -15 31 -16 112
-10 51 4 108 13 127 21 18 8 43 14 54 14 12 0 33 12 49 27 24 23 28 24 34 10
3 -10 17 -17 29 -17 13 0 30 -7 38 -15 27 -26 187 -19 187 8 -1 27 -17 39 -38
28 -27 -14 -29 -14 -36 5 -4 12 -1 14 14 9 13 -4 22 -1 26 9 4 11 14 13 34 9
25 -5 28 -3 23 16 -3 11 -11 21 -17 21 -6 0 -29 9 -51 20 -22 11 -46 20 -55
20 -26 0 -73 47 -67 69 2 11 -3 32 -12 48 -9 15 -25 49 -34 74 -17 46 -45 68
-92 74 -11 2 -27 6 -37 10 -26 10 -32 -29 -13 -85 9 -27 21 -52 26 -56 11 -6
-7 -34 -22 -34 -5 0 -20 24 -33 53 -24 54 -64 87 -107 87 -22 0 -22 -1 -4 -14
18 -13 18 -14 -6 -27 -33 -18 -62 -20 -48 -3 16 19 3 32 -44 45 -38 10 -43 9
-55 -10 -8 -12 -23 -21 -33 -21 -16 0 -17 3 -8 19 18 27 4 51 -28 50 -15 0
-56 -10 -90 -23z"/>
<path d="M12784 8511 c-39 -10 -56 -20 -49 -31 3 -5 -4 -12 -16 -15 -13 -4
-18 -12 -15 -22 9 -23 -12 -53 -39 -53 -30 0 -39 -14 -25 -40 8 -16 17 -19 38
-13 23 5 25 4 15 -8 -10 -12 -8 -17 8 -28 25 -15 37 -7 19 14 -19 23 6 19 32
-5 12 -11 16 -20 10 -20 -7 0 -12 -6 -12 -14 0 -24 179 -50 211 -30 7 4 0 12
-19 20 -68 28 -116 144 -73 177 9 7 21 22 28 34 11 19 9 21 -23 28 -20 3 -41
8 -47 10 -7 1 -26 0 -43 -4z"/>
<path d="M4565 8499 c-10 -15 3 -25 16 -12 7 7 7 13 1 17 -6 3 -14 1 -17 -5z"/>
<path d="M16345 8500 c3 -5 8 -10 11 -10 2 0 4 5 4 10 0 6 -5 10 -11 10 -5 0
-7 -4 -4 -10z"/>
<path d="M13870 8490 c0 -5 4 -10 9 -10 6 0 13 5 16 10 3 6 -1 10 -9 10 -9 0
-16 -4 -16 -10z"/>
<path d="M14122 8487 c-14 -16 -6 -27 20 -27 13 0 18 6 16 17 -4 22 -22 27
-36 10z"/>
<path d="M19588 8329 c-25 -13 -38 -26 -38 -40 0 -16 4 -19 20 -14 11 3 47 8
81 10 103 7 124 22 69 50 -39 20 -87 18 -132 -6z"/>
<path d="M6916 8311 c-4 -7 -5 -15 -2 -18 9 -9 19 4 14 18 -4 11 -6 11 -12 0z"/>
<path d="M9375 8290 c-3 -6 1 -7 9 -4 18 7 21 14 7 14 -6 0 -13 -4 -16 -10z"/>
<path d="M5108 8193 c7 -3 16 -2 19 1 4 3 -2 6 -13 5 -11 0 -14 -3 -6 -6z"/>
<path d="M5467 8159 c8 -8 19 -8 40 -1 28 10 28 10 -11 11 -29 1 -37 -2 -29
-10z"/>
<path d="M4626 8153 c-11 -11 -6 -23 9 -23 8 0 15 4 15 9 0 13 -16 22 -24 14z"/>
<path d="M5565 8150 c-8 -13 5 -13 25 0 13 8 13 10 -2 10 -9 0 -20 -4 -23 -10z"/>
<path d="M5636 8133 c-11 -11 -6 -23 8 -23 8 0 17 4 20 9 7 10 -19 23 -28 14z"/>
<path d="M12470 8125 c-17 -21 -8 -50 18 -53 13 -2 37 5 53 16 l31 19 -23 17
c-29 20 -63 21 -79 1z"/>
<path d="M5545 8105 c-20 -16 -25 -24 -14 -25 8 0 26 11 39 25 30 32 14 32
-25 0z"/>
<path d="M4370 8085 c0 -8 5 -15 10 -15 6 0 10 7 10 15 0 8 -4 15 -10 15 -5 0
-10 -7 -10 -15z"/>
<path d="M10633 8083 c-22 -8 -14 -23 12 -23 16 0 25 6 25 15 0 15 -14 18 -37
8z"/>
<path d="M4285 8070 c-3 -5 1 -10 10 -10 9 0 13 5 10 10 -3 6 -8 10 -10 10 -2
0 -7 -4 -10 -10z"/>
<path d="M5742 8059 c2 -7 10 -15 17 -17 8 -3 12 1 9 9 -2 7 -10 15 -17 17 -8
3 -12 -1 -9 -9z"/>
<path d="M4135 8050 c3 -5 11 -10 16 -10 6 0 7 5 4 10 -3 6 -11 10 -16 10 -6
0 -7 -4 -4 -10z"/>
<path d="M5654 8006 c-10 -16 -14 -35 -10 -51 5 -20 13 -25 39 -25 49 0 79 25
75 63 -3 30 -6 32 -45 35 -36 3 -44 -1 -59 -22z"/>
<path d="M10565 8020 c-3 -5 -2 -10 4 -10 5 0 13 5 16 10 3 6 2 10 -4 10 -5 0
-13 -4 -16 -10z"/>
<path d="M5782 7998 c5 -15 68 -24 68 -10 0 12 -24 22 -52 22 -11 0 -18 -5
-16 -12z"/>
<path d="M1015 7890 c3 -5 10 -10 16 -10 5 0 9 5 9 10 0 6 -7 10 -16 10 -8 0
-12 -4 -9 -10z"/>
<path d="M8939 7855 c-1 -3 -2 -10 -3 -17 -1 -15 -44 -27 -74 -21 -18 4 -21 2
-15 -13 6 -18 6 -18 -14 -1 -11 9 -25 17 -31 17 -6 0 -15 -8 -21 -17 -8 -15
-12 -16 -22 -5 -19 18 -29 15 -29 -9 0 -15 -5 -19 -15 -15 -8 3 -19 -2 -24
-12 -9 -16 -10 -16 -16 0 -4 9 -4 21 -1 27 8 13 -51 61 -75 61 -24 0 -25 -19
-1 -36 16 -12 16 -13 0 -14 -9 0 -20 5 -23 10 -11 18 -35 10 -45 -15 -5 -14
-14 -25 -20 -25 -6 0 -9 -4 -5 -9 3 -5 31 -8 63 -5 31 2 51 1 45 -2 -7 -3 -13
-12 -13 -20 0 -8 -11 -14 -27 -15 -16 0 -37 -4 -48 -8 -15 -6 -9 -8 23 -9 68
-1 100 -57 42 -73 -22 -5 -23 -7 -7 -14 9 -4 32 -5 50 -2 17 2 41 0 52 -6 10
-5 42 -16 70 -23 l50 -14 95 49 c52 26 107 51 123 55 15 3 27 13 27 20 0 8 9
16 20 19 15 4 20 14 20 37 0 25 -5 33 -30 41 -16 6 -32 19 -35 30 -5 13 -12
18 -24 14 -10 -3 -24 1 -31 10 -12 15 -29 20 -31 10z"/>
<path d="M5210 7810 c0 -5 -6 -7 -13 -4 -8 3 -18 -1 -24 -8 -14 -17 -32 -105
-26 -127 3 -11 -5 -24 -22 -35 -34 -22 -25 -31 25 -27 35 2 40 0 40 -18 0 -35
36 -25 82 23 37 37 46 42 63 32 11 -6 22 -14 25 -17 3 -3 22 -12 43 -20 33
-11 39 -11 53 3 23 22 9 38 -32 38 -19 0 -33 3 -32 8 1 4 -1 16 -5 27 -8 21
-118 79 -151 80 -11 0 -21 6 -24 14 -3 10 0 12 13 7 13 -5 16 -2 11 10 -3 8
-6 18 -6 20 0 2 -4 4 -10 4 -5 0 -10 -4 -10 -10z"/>
<path d="M11770 7740 c0 -5 5 -10 10 -10 6 0 10 5 10 10 0 6 -4 10 -10 10 -5
0 -10 -4 -10 -10z"/>
<path d="M503 7606 c2 -6 16 -10 30 -8 15 1 37 -4 49 -12 17 -11 33 -12 58 -6
25 6 28 8 12 9 -13 1 -33 6 -45 13 -29 16 -109 19 -104 4z"/>
<path d="M5640 7611 c0 -5 7 -11 15 -15 8 -3 15 -1 15 3 0 5 -7 11 -15 15 -8
3 -15 1 -15 -3z"/>
<path d="M5580 7601 c0 -15 28 -33 40 -26 8 5 8 11 -1 21 -13 15 -39 19 -39 5z"/>
<path d="M5335 7553 c-32 -5 -56 -30 -48 -50 8 -19 37 -16 67 8 24 19 36 51
19 48 -5 -1 -21 -4 -38 -6z"/>
<path d="M6318 7513 c7 -3 16 -2 19 1 4 3 -2 6 -13 5 -11 0 -14 -3 -6 -6z"/>
<path d="M5480 7495 c-15 -18 -6 -45 14 -45 18 0 40 36 31 50 -9 15 -31 12
-45 -5z"/>
<path d="M9447 7495 c-3 -7 0 -12 8 -11 22 3 27 13 11 19 -8 3 -17 0 -19 -8z"/>
<path d="M6280 7445 c0 -2 9 -9 20 -15 16 -9 20 -8 20 5 0 8 -9 15 -20 15 -11
0 -20 -2 -20 -5z"/>
<path d="M447 7349 c7 -7 15 -10 18 -7 3 3 -2 9 -12 12 -14 6 -15 5 -6 -5z"/>
<path d="M6125 7350 c-3 -5 1 -10 9 -10 9 0 16 5 16 10 0 6 -4 10 -9 10 -6 0
-13 -4 -16 -10z"/>
<path d="M9760 7336 c0 -22 3 -27 11 -19 8 8 8 16 0 30 -9 16 -10 14 -11 -11z"/>
<path d="M763 7343 c-13 -2 -23 -8 -23 -12 0 -10 46 -31 66 -31 20 0 30 30 13
41 -15 9 -19 9 -56 2z"/>
<path d="M1816 7334 c1 -6 -3 -17 -9 -24 -10 -10 -7 -10 10 -1 27 14 44 37 20
28 -9 -3 -18 -3 -20 1 -2 4 -3 2 -1 -4z"/>
<path d="M10910 7330 c0 -5 5 -10 10 -10 6 0 10 5 10 10 0 6 -4 10 -10 10 -5
0 -10 -4 -10 -10z"/>
<path d="M9660 7234 c0 -8 5 -12 10 -9 6 4 8 11 5 16 -9 14 -15 11 -15 -7z"/>
<path d="M18754 7240 c-12 -4 -24 -15 -27 -23 -5 -12 -1 -13 24 -4 16 6 29 17
29 24 0 7 -1 13 -2 12 -2 0 -12 -4 -24 -9z"/>
<path d="M11052 7231 c4 -13 18 -16 19 -4 0 4 -5 9 -11 12 -7 2 -11 -2 -8 -8z"/>
<path d="M11063 7199 c-21 -6 -31 -15 -30 -27 1 -16 3 -17 34 -3 18 8 33 21
33 28 0 7 -1 13 -2 12 -2 0 -17 -5 -35 -10z"/>
<path d="M1519 7171 c-12 -17 -26 -28 -31 -25 -4 3 -8 -1 -8 -9 0 -8 -8 -14
-17 -13 -12 0 -19 -7 -21 -21 -2 -16 2 -23 12 -23 9 0 16 -5 16 -10 0 -6 18 1
40 15 22 14 45 25 52 25 7 1 2 10 -11 21 -26 22 -26 24 9 37 l24 9 -21 12
c-20 10 -25 8 -44 -18z"/>
<path d="M9564 7175 c-3 -14 -10 -25 -15 -25 -5 0 -9 -9 -9 -19 0 -26 -20 -38
-32 -18 -5 9 -15 14 -24 10 -20 -7 1 -33 28 -33 20 0 20 -1 3 -26 -20 -31 -12
-43 17 -25 19 12 20 11 13 -6 -4 -10 -10 -30 -13 -45 -3 -21 0 -28 13 -28 12
0 15 5 10 20 -4 14 -2 20 8 20 16 0 17 -39 2 -74 -8 -17 -4 -18 42 -14 48 5
49 4 45 -19 -3 -18 1 -26 16 -30 18 -4 19 -9 10 -34 -6 -17 -17 -29 -28 -29
-10 0 -28 -9 -41 -21 -13 -11 -18 -17 -10 -13 12 6 30 -11 31 -29 0 -4 -16
-15 -35 -24 -19 -9 -35 -19 -35 -23 0 -9 109 -32 120 -25 6 3 10 1 10 -4 0
-12 -11 -14 -47 -11 -14 1 -28 -8 -39 -25 -9 -14 -29 -33 -43 -41 l-26 -15 25
7 c14 3 38 7 53 9 16 1 32 7 36 13 4 7 35 12 69 13 34 1 60 5 57 8 -2 4 20 7
50 7 49 0 85 15 85 34 0 5 -8 10 -17 12 -15 3 -13 7 11 29 19 18 27 34 24 50
-3 20 -9 24 -41 24 -25 0 -36 4 -33 12 10 24 -17 78 -55 114 -22 20 -39 43
-39 52 0 20 -47 50 -78 50 -21 0 -22 1 -8 9 9 5 14 13 11 19 -4 5 -1 9 4 9 14
0 63 78 57 89 -3 4 -30 6 -61 3 -44 -4 -55 -1 -55 10 0 8 11 21 25 28 39 21
30 30 -30 30 -50 0 -55 -2 -61 -25z"/>
<path d="M9478 7179 c-18 -10 -25 -39 -10 -39 5 0 16 8 25 18 28 31 19 42 -15
21z"/>
<path d="M10853 7140 c-16 -6 -23 -18 -23 -35 0 -31 13 -25 34 15 8 17 14 30
13 29 -1 0 -12 -4 -24 -9z"/>
<path d="M5513 7021 c-7 -10 -9 -21 -6 -24 6 -7 53 14 53 24 0 5 -24 19 -33
19 -1 0 -8 -9 -14 -19z"/>
<path d="M9500 6995 c-8 -9 -8 -15 -2 -15 12 0 26 19 19 26 -2 2 -10 -2 -17
-11z"/>
<path d="M2570 6964 c0 -9 44 -54 53 -54 10 0 -35 59 -45 59 -5 1 -8 -2 -8 -5z"/>
<path d="M9412 6942 c-24 -4 -52 -42 -31 -42 9 0 8 -4 0 -14 -7 -8 -22 -13
-34 -10 -38 7 -52 -3 -51 -38 1 -25 6 -34 22 -36 l21 -3 -21 -35 c-11 -19 -23
-34 -27 -34 -14 0 -8 -35 8 -47 24 -19 53 -15 107 12 27 14 57 25 67 25 26 0
46 54 37 96 -7 29 -4 37 13 49 20 14 20 16 5 47 -13 29 -20 33 -54 34 -22 0
-49 -2 -62 -4z"/>
<path d="M10640 6940 c0 -5 5 -10 11 -10 5 0 7 5 4 10 -3 6 -8 10 -11 10 -2 0
-4 -4 -4 -10z"/>
<path d="M18865 6930 c10 -11 20 -20 22 -20 2 0 -1 9 -7 20 -6 11 -16 20 -22
20 -6 0 -3 -9 7 -20z"/>
<path d="M17304 6929 c-10 -17 13 -36 27 -22 12 12 4 33 -11 33 -5 0 -12 -5
-16 -11z"/>
<path d="M9585 6870 c-3 -5 -1 -10 4 -10 6 0 11 5 11 10 0 6 -2 10 -4 10 -3 0
-8 -4 -11 -10z"/>
<path d="M17577 6863 c-4 -3 -2 -12 3 -18 14 -17 1 -46 -18 -43 -24 4 -38 -96
-18 -127 11 -16 14 -45 11 -104 -1 -45 -5 -85 -8 -88 -4 -3 -2 -14 3 -24 7
-11 7 -42 1 -85 -11 -75 -2 -113 18 -76 14 26 46 29 60 5 9 -16 10 -16 11 5 0
12 -5 22 -10 22 -6 0 -15 10 -20 23 -6 12 -15 29 -21 38 -9 12 -7 26 10 63 19
45 23 48 51 44 25 -4 30 -2 24 11 -22 51 -56 184 -59 231 -7 106 -18 143 -38
123z"/>
<path d="M2610 6848 c0 -29 81 -138 103 -138 4 0 -1 12 -12 26 -12 15 -21 33
-21 40 0 8 -4 14 -9 14 -6 0 -6 12 0 32 5 18 9 34 9 35 0 2 -16 3 -35 3 -21 0
-35 -5 -35 -12z"/>
<path d="M757 6830 c-6 -24 6 -26 27 -4 21 20 20 24 -3 24 -10 0 -21 -9 -24
-20z"/>
<path d="M678 6798 c-22 -27 -15 -37 10 -15 10 10 27 17 38 17 16 0 17 2 4 10
-22 14 -33 12 -52 -12z"/>
<path d="M9590 6800 c0 -5 5 -10 10 -10 6 0 10 5 10 10 0 6 -4 10 -10 10 -5 0
-10 -4 -10 -10z"/>
<path d="M5386 6781 c14 -15 64 -25 64 -13 0 12 -24 22 -53 22 -13 0 -17 -4
-11 -9z"/>
<path d="M19220 6770 c0 -5 7 -10 15 -10 8 0 15 5 15 10 0 6 -7 10 -15 10 -8
0 -15 -4 -15 -10z"/>
<path d="M356 6724 c-11 -8 -16 -14 -10 -14 13 0 39 18 34 24 -3 2 -14 -2 -24
-10z"/>
<path d="M160 6690 c0 -5 5 -10 10 -10 6 0 10 5 10 10 0 6 -4 10 -10 10 -5 0
-10 -4 -10 -10z"/>
<path d="M230 6690 c0 -5 5 -10 10 -10 6 0 10 5 10 10 0 6 -4 10 -10 10 -5 0
-10 -4 -10 -10z"/>
<path d="M6751 6648 c-11 -11 -35 -51 -53 -87 -18 -36 -37 -69 -41 -72 -5 -3
-9 -13 -11 -22 -1 -9 -12 -27 -25 -41 -12 -13 -18 -27 -13 -30 5 -3 47 -5 94
-4 46 1 89 -1 95 -5 6 -4 19 -4 30 -1 11 3 7 -4 -12 -20 -29 -25 -29 -26 -7
-26 12 0 25 7 28 15 4 8 13 15 20 15 8 0 17 7 20 15 11 28 27 16 20 -16 -5
-25 -3 -30 9 -25 8 3 15 1 15 -4 0 -21 31 -9 40 16 14 36 12 47 -6 40 -12 -5
-14 -1 -9 17 6 21 6 21 -9 3 -9 -11 -18 -17 -21 -14 -3 3 4 16 15 31 24 30 25
38 6 31 -18 -7 -31 15 -17 29 6 6 11 14 11 18 0 10 -63 18 -75 9 -12 -10 -55
6 -55 20 0 5 6 10 13 11 6 0 3 4 -8 9 -13 5 -26 3 -37 -8 -28 -24 -23 5 8 45
14 19 23 40 20 48 -2 7 0 16 7 19 7 2 2 5 -10 5 -12 1 -31 -9 -42 -21z"/>
<path d="M18291 6594 c-17 -17 -20 -24 -9 -24 8 0 24 11 36 25 28 32 5 31 -27
-1z"/>
<path d="M6340 6556 c0 -11 69 -45 103 -51 53 -10 47 8 -12 34 -45 19 -91 28
-91 17z"/>
<path d="M6342 6338 c3 -7 18 -19 34 -27 16 -8 37 -18 46 -23 12 -5 20 -2 27
11 9 17 5 19 -36 24 -26 3 -49 10 -51 16 -2 6 -8 11 -14 11 -5 0 -8 -6 -6 -12z"/>
<path d="M17976 6285 c-11 -8 -15 -15 -9 -15 6 0 16 7 23 15 16 19 11 19 -14
0z"/>
<path d="M17905 6250 c-3 -5 -1 -10 4 -10 6 0 11 5 11 10 0 6 -2 10 -4 10 -3
0 -8 -4 -11 -10z"/>
<path d="M17537 6244 c-4 -4 -4 -18 -1 -31 10 -38 -15 -113 -38 -113 -10 0
-31 -11 -45 -24 -21 -20 -24 -28 -15 -39 7 -8 10 -22 6 -31 -8 -20 -4 -20 31
-2 27 14 27 14 6 26 -12 6 -19 15 -15 21 4 6 11 6 19 -1 10 -8 20 -8 32 -2 12
8 28 5 55 -9 47 -24 54 -24 61 1 5 20 30 34 80 45 23 5 26 8 17 25 -5 10 -7
26 -3 35 5 14 3 16 -13 7 -28 -14 -96 18 -129 62 -28 36 -36 41 -48 30z"/>
<path d="M17843 6215 c-36 -32 -17 -32 22 0 17 14 25 25 18 25 -7 0 -25 -11
-40 -25z"/>
<path d="M17770 6179 c0 -5 5 -7 10 -4 6 3 10 8 10 11 0 2 -4 4 -10 4 -5 0
-10 -5 -10 -11z"/>
<path d="M17500 5982 c0 -6 6 -13 13 -15 6 -3 2 -6 -10 -6 -13 -1 -23 4 -23 9
0 6 -4 10 -10 10 -5 0 -10 -7 -10 -15 0 -8 -5 -15 -11 -15 -8 0 -10 -14 -6
-42 9 -66 -46 -155 -120 -192 -27 -13 -32 -14 -37 -1 -3 8 -1 15 4 15 6 0 10
4 10 10 0 5 -7 7 -15 4 -8 -4 -15 -17 -15 -29 0 -13 -5 -27 -11 -30 -5 -4 -14
-18 -19 -31 -7 -18 -17 -24 -37 -24 -118 3 -132 0 -179 -41 -25 -21 -49 -39
-55 -39 -5 0 -19 -9 -31 -20 -13 -10 -31 -25 -41 -32 -20 -15 -14 -48 10 -48
8 0 11 5 7 12 -4 7 -3 8 4 4 15 -9 16 -43 2 -51 -13 -8 -13 -55 -1 -55 5 0 12
6 14 13 4 9 7 9 15 -1 12 -17 27 1 37 45 3 18 10 35 15 38 12 7 -12 54 -30 59
-8 2 2 4 23 5 20 0 37 5 37 10 0 5 16 11 35 13 22 2 34 0 32 -6 -3 -6 -13 -10
-24 -9 -29 3 -51 -40 -32 -63 12 -15 15 -14 31 6 9 12 26 20 36 18 22 -3 52
18 52 37 0 7 8 19 17 26 15 12 16 12 10 -5 -9 -22 0 -56 14 -56 21 0 69 58 62
75 -5 15 -3 16 15 6 28 -15 79 -14 86 2 5 10 7 10 12 0 9 -19 21 -16 27 8 5
18 8 19 28 9 19 -11 25 -9 40 11 10 14 16 33 13 45 -3 12 1 35 9 51 8 15 13
41 10 56 -3 16 -1 27 6 27 11 0 51 71 51 91 0 6 -6 25 -14 42 -8 18 -16 41
-18 51 -3 20 -28 35 -28 18z m-340 -426 c0 -11 -19 -15 -25 -6 -3 5 1 10 9 10
9 0 16 -2 16 -4z"/>
<path d="M16700 5490 c-12 -8 -11 -10 8 -10 12 0 22 5 22 10 0 13 -11 13 -30
0z"/>
<path d="M9067 5189 c-4 -16 -3 -18 9 -8 16 13 19 29 5 29 -5 0 -11 -9 -14
-21z"/>
<path d="M8931 5191 c-8 -6 -9 -11 -3 -15 6 -3 14 -1 17 5 9 14 2 20 -14 10z"/>
<path d="M8980 5170 c0 -5 5 -10 10 -10 6 0 10 5 10 10 0 6 -4 10 -10 10 -5 0
-10 -4 -10 -10z"/>
<path d="M5560 5089 c0 -5 5 -7 10 -4 6 3 10 8 10 11 0 2 -4 4 -10 4 -5 0 -10
-5 -10 -11z"/>
<path d="M5640 5065 c0 -8 2 -15 4 -15 2 0 6 7 10 15 3 8 1 15 -4 15 -6 0 -10
-7 -10 -15z"/>
<path d="M5584 4996 c-6 -17 2 -36 17 -36 12 0 12 37 -1 45 -6 3 -13 -1 -16
-9z"/>
<path d="M16406 4967 c-42 -55 -48 -82 -24 -112 l20 -26 15 28 c20 39 43 104
43 126 0 27 -27 20 -54 -16z"/>
<path d="M3840 4954 c0 -17 28 -49 36 -41 4 4 -2 17 -14 30 -12 12 -22 17 -22
11z"/>
<path d="M5605 4940 c3 -5 10 -10 16 -10 5 0 9 5 9 10 0 6 -7 10 -16 10 -8 0
-12 -4 -9 -10z"/>
<path d="M5311 4880 c-32 -9 -60 -24 -69 -38 -19 -29 -2 -30 56 -2 39 19 104
28 88 13 -7 -7 23 -18 131 -46 24 -7 44 -18 46 -28 3 -9 19 -20 36 -24 28 -6
44 -25 21 -25 -5 0 -10 -4 -10 -8 0 -6 112 -9 173 -4 31 3 18 18 -35 41 -29
13 -83 39 -120 57 -37 19 -75 34 -84 34 -10 0 -25 6 -33 14 -28 25 -138 34
-200 16z"/>
<path d="M1160 4830 c0 -5 5 -10 10 -10 6 0 10 5 10 10 0 6 -4 10 -10 10 -5 0
-10 -4 -10 -10z"/>
<path d="M5320 4805 c0 -9 5 -15 11 -13 6 2 11 8 11 13 0 5 -5 11 -11 13 -6 2
-11 -4 -11 -13z"/>
<path d="M1245 4790 c3 -5 11 -10 16 -10 6 0 7 5 4 10 -3 6 -11 10 -16 10 -6
0 -7 -4 -4 -10z"/>
<path d="M5848 4773 c7 -3 16 -2 19 1 4 3 -2 6 -13 5 -11 0 -14 -3 -6 -6z"/>
<path d="M1335 4760 c3 -5 11 -10 16 -10 6 0 7 5 4 10 -3 6 -11 10 -16 10 -6
0 -7 -4 -4 -10z"/>
<path d="M1364 4705 c-9 -35 7 -51 36 -35 25 13 23 28 -8 48 -20 13 -22 12
-28 -13z"/>
<path d="M15805 4713 c-34 -9 -65 -35 -65 -54 0 -28 44 -46 73 -30 21 11 57
63 57 82 0 9 -31 10 -65 2z"/>
<path d="M5850 4703 c0 -3 6 -11 14 -17 8 -6 17 -22 21 -34 7 -23 6 -24 -52
-17 -48 6 -56 5 -46 -6 7 -7 41 -14 75 -16 35 -2 65 -8 66 -13 6 -15 24 -12
37 7 10 13 28 17 84 17 43 0 71 4 71 11 0 5 -28 23 -62 39 -48 22 -80 30 -135
32 -40 1 -73 0 -73 -3z"/>
<path d="M6190 4621 c0 -17 6 -21 34 -21 32 0 55 14 43 26 -2 3 -21 8 -41 11
-32 5 -36 3 -36 -16z"/>
<path d="M16385 4630 c-4 -6 -9 -38 -12 -70 -4 -36 -10 -58 -17 -57 -12 2 -10
-32 5 -71 6 -15 15 -22 24 -18 10 4 14 -1 12 -17 -2 -19 3 -22 37 -22 26 -1
43 -7 53 -20 13 -16 15 -17 10 -2 -4 9 -2 17 3 17 5 0 15 -8 22 -17 7 -10 24
-24 37 -31 22 -13 23 -12 16 5 -4 10 -10 26 -13 36 -3 12 -11 17 -23 14 -12
-3 -19 0 -19 10 0 12 -7 14 -34 9 -31 -6 -34 -4 -41 26 -10 43 -7 59 15 80 25
24 34 56 20 73 -7 8 -10 24 -7 35 3 12 0 20 -8 20 -7 0 -26 3 -43 6 -18 4 -32
1 -37 -6z"/>
<path d="M5586 4622 c-11 -18 42 -35 76 -25 l33 10 -28 12 c-33 13 -74 15 -81
3z"/>
<path d="M6485 4510 c-3 -5 -1 -10 4 -10 6 0 11 5 11 10 0 6 -2 10 -4 10 -3 0
-8 -4 -11 -10z"/>
<path d="M16580 4370 c0 -5 5 -10 10 -10 6 0 10 5 10 10 0 6 -4 10 -10 10 -5
0 -10 -4 -10 -10z"/>
<path d="M16405 4330 c17 -33 35 -40 35 -12 0 21 -18 42 -37 42 -11 0 -10 -6
2 -30z"/>
<path d="M14878 4318 c-3 -18 -8 -41 -13 -50 -4 -11 -3 -18 3 -18 11 0 28 87
19 96 -2 3 -7 -10 -9 -28z"/>
<path d="M12740 4300 c0 -5 11 -10 25 -10 14 0 25 5 25 10 0 6 -11 10 -25 10
-14 0 -25 -4 -25 -10z"/>
<path d="M16596 4301 c-3 -4 3 -16 14 -26 21 -19 18 -37 -5 -29 -10 4 -12 0
-8 -15 3 -12 10 -21 15 -21 5 0 8 -7 6 -16 -2 -10 3 -19 11 -22 10 -3 12 2 7
22 -5 19 -3 26 8 26 11 0 14 9 12 34 -2 18 -6 38 -10 45 -8 13 -42 15 -50 2z"/>
<path d="M16530 4292 c0 -5 11 -14 25 -20 26 -12 33 -4 13 16 -14 14 -38 16
-38 4z"/>
<path d="M16353 4275 c0 -8 4 -12 9 -9 4 3 8 9 8 15 0 5 -4 9 -8 9 -5 0 -9 -7
-9 -15z"/>
<path d="M6020 4265 c0 -8 5 -15 10 -15 6 0 10 7 10 15 0 8 -4 15 -10 15 -5 0
-10 -7 -10 -15z"/>
<path d="M16470 4226 c0 -40 21 -43 46 -7 18 26 18 26 -18 35 -26 6 -28 4 -28
-28z"/>
<path d="M16320 4215 c0 -11 -26 -45 -57 -77 -32 -32 -55 -58 -52 -58 11 0 67
47 98 82 26 30 30 41 22 55 -10 17 -10 17 -11 -2z"/>
<path d="M16527 4213 c-4 -3 -7 -13 -7 -21 0 -8 -8 -21 -17 -28 -17 -12 -17
-14 3 -34 l21 -22 26 46 c14 24 22 47 19 51 -3 3 -12 -5 -19 -17 -13 -23 -13
-22 -7 5 6 25 -4 36 -19 20z"/>
<path d="M6487 4190 c-4 -15 0 -20 14 -20 12 0 19 7 19 20 0 11 -6 20 -14 20
-7 0 -16 -9 -19 -20z"/>
<path d="M16655 4170 c3 -5 8 -10 11 -10 2 0 4 5 4 10 0 6 -5 10 -11 10 -5 0
-7 -4 -4 -10z"/>
<path d="M16575 4159 c-4 -6 -4 -13 -1 -16 8 -8 36 5 36 17 0 13 -27 13 -35
-1z"/>
<path d="M16673 4153 c-7 -3 -13 -13 -13 -24 0 -17 -11 -24 -32 -20 -5 0 -8
-3 -8 -9 0 -19 -38 -31 -59 -18 -16 10 -23 9 -39 -5 -10 -9 -24 -17 -31 -17
-11 0 -35 -49 -28 -57 3 -2 12 8 21 22 10 16 22 23 29 18 7 -4 25 -7 42 -8 28
0 30 -3 27 -32 -3 -33 20 -58 63 -65 16 -2 20 3 21 27 2 59 3 62 18 42 13 -17
15 -17 29 3 23 33 -11 153 -40 143z"/>
<path d="M14194 4141 c4 -5 1 -22 -5 -38 -23 -57 -6 -153 26 -153 28 0 66 24
71 46 8 32 -60 154 -87 154 -6 0 -8 -4 -5 -9z"/>
<path d="M16197 4012 c-5 -7 -13 -10 -18 -7 -5 4 -9 2 -9 -2 0 -5 -15 -24 -32
-43 -18 -19 -33 -39 -33 -45 0 -5 -7 -10 -15 -11 -34 -1 -59 -17 -85 -54 -20
-29 -39 -43 -68 -51 -45 -12 -63 -26 -69 -55 -4 -21 -41 -22 -66 -2 -15 13
-15 12 -31 -28 -13 -34 -6 -120 10 -130 5 -3 6 -10 3 -16 -5 -7 -1 -9 9 -5 10
4 17 1 17 -6 0 -7 5 -29 11 -49 9 -36 12 -38 49 -38 27 0 40 -4 40 -14 0 -14
46 -11 56 5 2 4 16 4 30 -1 13 -5 28 -9 32 -9 20 3 32 -3 32 -16 0 -18 9 -19
44 -5 31 12 66 64 59 90 -4 13 6 25 31 42 20 13 34 28 31 35 -2 7 1 26 6 43 9
24 17 30 40 30 36 0 36 5 -1 36 -16 14 -27 31 -24 39 3 8 -4 28 -15 44 -25 35
-26 41 -5 41 10 0 14 6 11 14 -4 9 3 16 20 20 20 6 22 10 13 21 -9 11 -7 14
11 17 37 5 32 24 -11 43 -22 10 -40 24 -40 32 0 7 -4 13 -9 13 -5 0 -11 8 -13
18 -3 12 -6 14 -11 4z"/>
<path d="M16460 3980 c0 -5 5 -10 10 -10 6 0 10 5 10 10 0 6 -4 10 -10 10 -5
0 -10 -4 -10 -10z"/>
<path d="M15017 3924 c-13 -13 24 -64 68 -94 25 -17 45 -35 45 -39 0 -5 20
-29 45 -54 25 -26 45 -52 45 -59 0 -8 17 -36 38 -65 21 -28 48 -70 59 -94 19
-40 76 -98 168 -173 23 -19 49 -29 71 -30 l34 -1 0 55 c0 78 8 102 31 95 23
-8 27 20 4 29 -8 3 -15 15 -15 26 0 23 -31 28 -49 6 -9 -11 -7 -15 9 -19 11
-3 20 -11 20 -17 0 -10 -3 -10 -15 0 -8 7 -21 10 -29 7 -9 -4 -17 7 -24 31 -7
22 -21 41 -34 47 -18 8 -22 17 -20 38 3 22 -1 30 -17 34 -12 3 -21 9 -21 14 0
5 -9 18 -20 29 -11 11 -20 15 -20 10 0 -6 -7 -6 -19 2 -10 6 -17 17 -14 23 3
8 -5 11 -23 9 -28 -3 -33 1 -160 127 -31 30 -50 41 -78 43 -21 2 -42 8 -49 15
-12 12 -21 14 -30 5z"/>
<path d="M15710 3840 c0 -5 5 -10 11 -10 5 0 7 5 4 10 -3 6 -8 10 -11 10 -2 0
-4 -4 -4 -10z"/>
<path d="M10306 3821 c-4 -7 -5 -15 -2 -18 9 -9 19 4 14 18 -4 11 -6 11 -12 0z"/>
<path d="M15050 3765 c7 -8 17 -15 22 -15 6 0 5 7 -2 15 -7 8 -17 15 -22 15
-6 0 -5 -7 2 -15z"/>
<path d="M16805 3751 c-6 -11 9 -23 19 -14 9 9 7 23 -3 23 -6 0 -12 -4 -16 -9z"/>
<path d="M16771 3737 c-10 -13 -11 -29 -3 -74 7 -42 7 -60 -1 -65 -6 -4 -8
-11 -3 -15 5 -4 11 -2 13 5 3 6 9 10 14 6 5 -3 4 7 -1 21 -12 32 -4 48 21 42
21 -6 26 8 7 17 -10 5 -10 7 0 12 21 10 15 37 -7 31 -15 -3 -21 1 -23 16 -3
19 -4 19 -17 4z"/>
<path d="M16590 3689 c-21 -18 -33 -20 -83 -15 -32 3 -66 10 -76 16 -14 7 -22
6 -31 -5 -7 -8 -16 -12 -21 -10 -11 7 -29 -28 -29 -57 0 -13 -7 -32 -15 -42
-8 -11 -15 -29 -15 -41 0 -11 -7 -31 -16 -43 -17 -25 -13 -52 10 -52 19 0 28
-40 17 -78 -10 -35 -2 -47 27 -38 15 5 18 17 17 79 0 39 4 75 10 79 19 14 27
8 23 -17 -3 -16 1 -30 14 -42 10 -9 16 -23 14 -30 -8 -20 12 -26 44 -11 34 15
36 20 15 38 -8 7 -15 19 -15 27 0 8 -9 27 -20 43 l-19 27 39 32 c22 18 45 29
50 26 6 -3 10 1 10 10 0 11 -6 15 -17 11 -10 -3 -31 -8 -48 -12 -16 -4 -38
-14 -48 -22 -16 -14 -20 -14 -44 10 -20 21 -24 32 -19 53 l7 28 101 -5 c95 -5
101 -4 129 19 28 24 38 43 22 43 -5 -1 -19 -10 -33 -21z"/>
<path d="M15135 3680 c10 -11 20 -18 23 -15 7 6 -18 35 -31 35 -5 0 -2 -9 8
-20z"/>
<path d="M4862 3600 c1 -29 20 -41 33 -20 6 10 -15 50 -27 50 -4 0 -6 -13 -6
-30z"/>
<path d="M15515 3609 c-4 -6 -5 -12 -2 -15 2 -3 7 2 10 11 7 17 1 20 -8 4z"/>
<path d="M16927 3609 c8 -8 16 -8 30 0 16 9 14 10 -11 11 -22 0 -27 -3 -19
-11z"/>
<path d="M17006 3592 c-38 -23 -45 -42 -14 -42 13 0 29 -9 36 -20 9 -15 23
-20 56 -20 37 0 44 3 48 23 7 37 -2 55 -30 60 -15 3 -36 8 -47 11 -11 3 -33
-3 -49 -12z"/>
<path d="M4920 3590 c0 -5 5 -10 11 -10 5 0 7 5 4 10 -3 6 -8 10 -11 10 -2 0
-4 -4 -4 -10z"/>
<path d="M17200 3582 c0 -10 21 -32 32 -32 16 0 8 19 -12 30 -11 6 -20 7 -20
2z"/>
<path d="M16940 3570 c0 -5 5 -10 11 -10 5 0 7 5 4 10 -3 6 -8 10 -11 10 -2 0
-4 -4 -4 -10z"/>
<path d="M15200 3556 c0 -15 18 -31 26 -23 7 7 -7 37 -17 37 -5 0 -9 -6 -9
-14z"/>
<path d="M16510 3550 c0 -5 7 -10 15 -10 8 0 15 5 15 10 0 6 -7 10 -15 10 -8
0 -15 -4 -15 -10z"/>
<path d="M16760 3540 c0 -5 9 -10 21 -10 11 0 17 5 14 10 -3 6 -13 10 -21 10
-8 0 -14 -4 -14 -10z"/>
<path d="M17297 3530 c-14 -11 -29 -20 -34 -20 -6 0 -22 -13 -36 -30 -31 -35
-53 -38 -62 -10 -7 24 -44 35 -77 24 -13 -4 -27 -9 -33 -9 -27 -5 -28 -7 -7
-15 12 -5 22 -18 22 -28 0 -28 11 -34 31 -16 18 16 33 12 79 -22 8 -6 41 -17
73 -24 87 -20 101 -34 146 -143 6 -16 9 -33 6 -38 -4 -5 2 -10 12 -10 10 -1
24 -2 30 -3 7 0 25 -13 40 -27 35 -32 121 -46 149 -23 18 14 18 14 1 28 -18
14 -18 14 2 21 12 3 21 10 21 14 0 12 30 11 78 -2 30 -8 51 -22 69 -47 45 -60
71 -78 126 -85 29 -4 58 -12 65 -18 9 -7 16 -7 24 1 8 8 4 14 -16 23 -15 7
-25 18 -22 26 3 8 -2 13 -14 13 -11 0 -20 7 -20 15 0 8 -9 15 -20 15 -11 0
-20 4 -20 9 0 5 -18 28 -40 51 -45 47 -49 60 -21 60 51 0 28 39 -36 61 -38 13
-48 21 -46 37 2 16 -12 27 -70 54 -40 19 -112 47 -162 63 -49 15 -114 38 -143
51 -63 29 -63 29 -95 4z"/>
<path d="M16600 3530 c0 -5 9 -10 20 -10 11 0 20 5 20 10 0 6 -9 10 -20 10
-11 0 -20 -4 -20 -10z"/>
<path d="M17228 3528 c5 -5 16 -8 23 -6 8 3 3 7 -10 11 -17 4 -21 3 -13 -5z"/>
<path d="M16668 3523 c7 -3 16 -2 19 1 4 3 -2 6 -13 5 -11 0 -14 -3 -6 -6z"/>
<path d="M16900 3520 c0 -5 4 -10 9 -10 6 0 13 5 16 10 3 6 -1 10 -9 10 -9 0
-16 -4 -16 -10z"/>
<path d="M17808 3513 c6 -2 18 -2 25 0 6 3 1 5 -13 5 -14 0 -19 -2 -12 -5z"/>
<path d="M18000 3490 c0 -5 5 -10 11 -10 5 0 7 5 4 10 -3 6 -8 10 -11 10 -2 0
-4 -4 -4 -10z"/>
<path d="M15684 3479 c-8 -14 11 -33 25 -25 6 4 11 11 11 16 0 13 -29 20 -36
9z"/>
<path d="M18065 3460 c17 -11 35 -20 40 -20 6 0 -5 9 -23 20 -42 26 -56 26
-17 0z"/>
<path d="M16797 3463 c-11 -10 -8 -25 3 -18 6 3 10 1 10 -5 0 -6 5 -8 12 -4
16 10 77 5 101 -8 27 -14 33 -2 12 22 -14 16 -31 20 -75 20 -31 0 -60 -3 -63
-7z"/>
<path d="M16687 3453 c-10 -9 13 -33 33 -33 22 0 30 9 23 26 -5 14 -44 19 -56
7z"/>
<path d="M16140 3430 c0 -5 5 -10 10 -10 6 0 10 5 10 10 0 6 -4 10 -10 10 -5
0 -10 -4 -10 -10z"/>
<path d="M18129 3398 c9 -25 31 -36 31 -16 0 15 -19 38 -32 38 -4 0 -4 -10 1
-22z"/>
<path d="M18080 3382 c-1 -32 -46 -53 -115 -54 -36 0 -65 -4 -65 -8 0 -4 19
-15 42 -25 46 -18 98 -14 118 10 7 8 21 15 32 15 14 0 18 5 14 15 -3 8 -1 15
4 15 6 0 10 8 10 19 0 24 -40 37 -40 13z"/>
<path d="M16494 3365 c-9 -22 3 -46 19 -39 19 7 19 54 0 54 -7 0 -16 -7 -19
-15z"/>
<path d="M17132 3298 c-5 -18 -7 -37 -4 -42 8 -14 32 25 32 51 0 34 -18 28
-28 -9z"/>
<path d="M18240 3315 c0 -14 45 -65 57 -65 20 0 15 23 -11 48 -22 20 -46 29
-46 17z"/>
<path d="M11970 3295 c0 -8 4 -15 10 -15 5 0 7 7 4 15 -4 8 -8 15 -10 15 -2 0
-4 -7 -4 -15z"/>
<path d="M15581 3277 c-6 -16 -4 -24 8 -31 9 -5 21 -15 26 -22 13 -15 55 -25
125 -28 31 -2 67 -9 80 -16 27 -15 230 -23 230 -9 0 9 32 0 40 -12 3 -4 12 -4
19 0 21 13 3 32 -25 25 -17 -4 -26 -1 -30 10 -4 12 -17 16 -41 14 -26 -2 -39
3 -51 19 -18 24 -105 49 -110 33 -6 -16 -112 -12 -118 4 -6 17 -42 28 -102 32
-37 3 -44 0 -51 -19z"/>
<path d="M15975 3251 c-3 -5 -2 -12 3 -15 12 -7 52 4 52 15 0 12 -47 12 -55 0z"/>
<path d="M18360 3245 c7 -9 15 -13 17 -11 7 7 -7 26 -19 26 -6 0 -6 -6 2 -15z"/>
<path d="M16972 3219 c-14 -22 -10 -35 6 -25 12 7 23 46 13 46 -3 0 -12 -9
-19 -21z"/>
<path d="M17340 3210 c-28 -28 -25 -40 9 -40 21 0 30 6 34 22 11 41 -11 50
-43 18z"/>
<path d="M16695 3210 c-19 -8 -19 -9 3 -9 12 -1 22 4 22 9 0 6 -1 10 -2 9 -2
0 -12 -4 -23 -9z"/>
<path d="M18475 3195 c17 -14 35 -25 40 -25 6 1 -3 12 -20 25 -16 14 -34 25
-40 25 -5 -1 4 -12 20 -25z"/>
<path d="M18377 3179 c3 -11 8 -18 11 -15 2 3 14 0 26 -6 19 -10 20 -10 7 6
-8 9 -22 21 -32 26 -14 8 -16 6 -12 -11z"/>
<path d="M16240 3181 c0 -5 6 -12 13 -14 7 -3 5 -6 -5 -6 -10 -1 -18 2 -18 7
0 4 -18 8 -39 8 -31 2 -40 -2 -44 -18 -5 -16 -2 -19 14 -15 10 3 21 2 23 -2 6
-9 126 10 126 20 0 10 -9 15 -42 23 -16 3 -28 2 -28 -3z"/>
<path d="M16495 3166 c-20 -19 -20 -19 0 -11 11 4 31 9 43 10 35 5 37 12 5 17
-19 3 -35 -3 -48 -16z"/>
<path d="M16600 3180 c0 -5 7 -10 15 -10 8 0 15 5 15 10 0 6 -7 10 -15 10 -8
0 -15 -4 -15 -10z"/>
<path d="M16355 3170 c-3 -6 6 -11 22 -12 15 -1 37 -2 48 -3 37 -3 52 9 20 16
-47 10 -83 10 -90 -1z"/>
<path d="M16613 3138 c-35 -19 -53 -37 -53 -49 0 -27 32 -24 60 6 12 13 45 32
71 40 64 22 71 35 17 34 -29 0 -60 -10 -95 -31z"/>
<path d="M18570 3159 c0 -9 7 -22 15 -29 19 -16 19 0 0 26 -12 16 -14 16 -15
3z"/>
<path d="M16305 3110 c-3 -5 1 -10 10 -10 9 0 27 -7 41 -16 19 -13 28 -14 36
-6 9 9 7 16 -8 27 -22 17 -70 20 -79 5z"/>
<path d="M18010 3110 c20 -13 33 -13 25 0 -3 6 -14 10 -23 10 -15 0 -15 -2 -2
-10z"/>
<path d="M18510 3110 c0 -12 48 -25 58 -16 8 9 -18 26 -40 26 -10 0 -18 -4
-18 -10z"/>
<path d="M18045 3080 c3 -5 8 -10 11 -10 2 0 4 5 4 10 0 6 -5 10 -11 10 -5 0
-7 -4 -4 -10z"/>
<path d="M18610 3061 c0 -10 24 -21 43 -21 7 0 3 7 -7 15 -22 17 -36 19 -36 6z"/>
<path d="M16525 3050 c-3 -5 -1 -10 4 -10 6 0 11 5 11 10 0 6 -2 10 -4 10 -3
0 -8 -4 -11 -10z"/>
<path d="M17559 3014 c-6 -16 -12 -41 -13 -55 -2 -14 -6 -31 -10 -37 -3 -6 -8
-48 -10 -94 -4 -89 -27 -157 -55 -159 -30 -2 -46 3 -67 22 -11 10 -25 19 -30
19 -6 0 -25 11 -44 25 -19 14 -54 35 -78 46 -51 25 -61 43 -38 68 9 10 14 25
11 34 -4 10 0 17 13 21 10 4 24 17 30 30 9 20 8 25 -6 31 -9 3 -18 2 -20 -4
-2 -5 -10 -7 -18 -4 -7 3 -11 10 -7 16 4 7 0 8 -13 2 -30 -12 -58 -7 -118 20
-30 14 -60 25 -65 25 -19 0 -12 -17 9 -23 11 -3 20 -10 20 -15 0 -13 -55 -26
-70 -17 -13 8 -70 -32 -70 -51 0 -8 -4 -14 -8 -14 -13 0 -32 -48 -26 -64 10
-26 -60 -12 -96 18 -24 20 -38 24 -58 19 -15 -3 -29 -9 -32 -13 -3 -4 -15 -10
-27 -14 -13 -4 -23 -14 -23 -21 0 -8 -9 -20 -19 -27 -11 -8 -19 -23 -18 -33 2
-15 -5 -21 -25 -23 -29 -3 -35 -11 -18 -28 6 -6 6 -15 0 -24 -9 -13 -11 -13
-20 0 -5 8 -11 19 -13 25 -2 5 -14 -1 -26 -12 -17 -16 -22 -29 -18 -45 4 -13
0 -29 -8 -38 -8 -8 -27 -30 -42 -48 -20 -24 -39 -34 -68 -38 -22 -3 -49 -9
-60 -14 -11 -4 -33 -13 -49 -19 -15 -6 -36 -9 -45 -6 -18 5 -141 -69 -141 -85
0 -6 -4 -10 -10 -10 -5 0 -10 7 -10 15 0 17 -16 20 -25 5 -3 -5 -8 -27 -10
-47 -2 -21 -7 -53 -11 -70 -4 -24 -1 -42 15 -68 27 -46 27 -63 1 -40 -18 17
-20 17 -14 2 3 -10 1 -17 -5 -17 -6 0 1 -16 14 -36 14 -20 25 -43 25 -50 0 -7
9 -29 20 -49 11 -20 20 -48 20 -63 0 -15 9 -47 20 -71 30 -65 26 -161 -6 -161
-20 0 -17 -39 4 -47 9 -4 28 -15 41 -25 32 -24 99 -23 131 2 14 11 30 20 36
20 6 0 17 7 25 16 10 12 32 15 108 13 122 -2 116 -3 128 24 14 30 116 81 145
73 12 -3 49 4 82 16 78 26 173 32 203 12 12 -8 31 -14 41 -14 38 0 82 -22 82
-40 0 -11 8 -23 17 -29 10 -5 30 -31 44 -57 25 -47 49 -68 49 -43 0 13 99 114
105 107 2 -2 -3 -21 -11 -43 -7 -22 -14 -48 -14 -57 0 -10 -7 -18 -15 -18 -8
0 -15 -5 -15 -11 0 -6 7 -8 16 -5 9 3 20 6 25 6 5 0 9 9 9 19 0 30 19 35 29 9
5 -14 5 -31 -1 -42 -9 -17 -7 -18 21 -13 20 4 30 3 26 -3 -3 -5 3 -20 14 -32
12 -12 21 -33 21 -47 0 -14 8 -36 18 -47 20 -24 80 -56 93 -49 4 3 25 -1 45
-10 48 -20 55 -19 86 10 30 28 53 33 44 9 -3 -8 -2 -12 4 -9 5 3 22 -5 37 -19
31 -29 45 -33 37 -11 -4 10 0 15 11 15 9 0 30 11 47 25 21 18 41 25 73 25 50
0 60 10 69 70 7 49 89 225 110 237 30 18 77 165 77 243 0 33 -14 80 -23 80 -6
0 -9 27 -6 69 2 50 0 67 -7 61 -8 -6 -19 1 -35 23 -13 17 -38 45 -57 60 -21
18 -33 38 -33 53 0 23 -3 25 -49 28 -8 1 -18 15 -23 32 -4 17 -15 37 -23 44
-8 7 -15 18 -15 25 0 6 -29 29 -64 49 -59 35 -65 41 -71 79 -4 23 -15 56 -25
72 -10 17 -22 48 -26 70 -7 42 -39 76 -62 67 -17 -6 -32 15 -32 46 0 13 -9 42
-20 64 -11 23 -20 47 -20 54 0 6 -7 17 -15 24 -12 10 -17 7 -26 -16z"/>
<path d="M16937 3013 c-33 -5 -31 -28 1 -26 39 2 42 3 42 18 0 8 -3 14 -7 14
-5 -1 -21 -4 -36 -6z"/>
<path d="M12191 2994 c0 -11 3 -14 6 -6 3 7 2 16 -1 19 -3 4 -6 -2 -5 -13z"/>
<path d="M12495 2958 c-2 -7 -5 -22 -7 -33 -2 -11 -13 -24 -25 -30 -13 -5 -24
-22 -27 -40 -7 -34 -52 -66 -135 -96 -38 -13 -47 -22 -60 -56 -13 -36 -13 -49
-1 -99 14 -57 14 -57 -19 -119 -26 -48 -32 -69 -27 -91 4 -16 11 -47 15 -69
13 -61 19 -71 60 -90 27 -12 44 -14 57 -8 11 6 32 16 48 24 22 11 34 27 48 69
82 250 108 335 108 360 0 16 5 32 11 36 6 4 8 21 5 43 -6 32 -5 34 8 18 24
-31 29 -1 11 74 -21 93 -56 147 -70 107z"/>
<path d="M460 2890 c0 -5 5 -10 11 -10 5 0 7 5 4 10 -3 6 -8 10 -11 10 -2 0
-4 -4 -4 -10z"/>
<path d="M495 2870 c3 -5 11 -10 16 -10 6 0 7 5 4 10 -3 6 -11 10 -16 10 -6 0
-7 -4 -4 -10z"/>
<path d="M17256 2871 c-4 -7 -5 -15 -2 -18 9 -9 19 4 14 18 -4 11 -6 11 -12 0z"/>
<path d="M18892 2810 c1 -13 9 -25 16 -28 17 -5 15 16 -4 35 -14 15 -16 14
-12 -7z"/>
<path d="M18930 2745 c7 -8 17 -15 22 -15 6 0 5 7 -2 15 -7 8 -17 15 -22 15
-6 0 -5 -7 2 -15z"/>
<path d="M19562 2729 c-13 -5 -21 -13 -18 -18 8 -12 59 2 64 17 4 14 -13 15
-46 1z"/>
<path d="M19485 2667 c-24 -18 -11 -37 24 -37 35 0 43 8 30 31 -12 22 -28 24
-54 6z"/>
<path d="M12955 2520 c-3 -5 1 -10 9 -10 9 0 16 5 16 10 0 6 -4 10 -9 10 -6 0
-13 -4 -16 -10z"/>
<path d="M18760 2512 c0 -19 120 -112 144 -112 19 0 -2 23 -63 69 -70 52 -81
57 -81 43z"/>
<path d="M12846 2483 c-11 -11 -6 -23 9 -23 8 0 15 4 15 9 0 13 -16 22 -24 14z"/>
<path d="M18920 2480 c0 -5 5 -10 11 -10 5 0 7 5 4 10 -3 6 -8 10 -11 10 -2 0
-4 -4 -4 -10z"/>
<path d="M19240 1687 c0 -16 45 -90 60 -99 11 -7 20 -20 20 -30 0 -9 4 -19 9
-22 28 -18 12 -121 -20 -129 -28 -8 -23 -23 16 -47 38 -24 43 -44 20 -77 -14
-20 -14 -23 5 -33 18 -10 25 -6 51 21 35 38 62 86 55 98 -8 12 21 34 37 28 8
-3 18 6 24 22 28 69 21 94 -22 71 -37 -20 -73 -5 -91 38 -13 28 -18 33 -21 19
-4 -14 -8 -16 -19 -6 -8 6 -14 20 -14 30 0 10 -4 21 -10 24 -5 3 -10 14 -10
23 0 10 -20 29 -45 44 -25 15 -45 26 -45 25z"/>
<path d="M17283 1622 c-13 -2 -23 -8 -23 -13 0 -11 37 -11 64 0 20 8 20 8 0
12 -10 3 -29 3 -41 1z"/>
<path d="M17650 1361 c0 -6 5 -13 10 -16 6 -3 10 1 10 9 0 9 -4 16 -10 16 -5
0 -10 -4 -10 -9z"/>
<path d="M17870 1362 c0 -12 19 -26 26 -19 2 2 -2 10 -11 17 -9 8 -15 8 -15 2z"/>
<path d="M19206 1299 c-9 -13 -16 -29 -16 -36 0 -7 -4 -13 -10 -13 -5 0 -18
-16 -28 -35 -17 -34 -117 -125 -137 -125 -9 0 -86 -71 -112 -103 -16 -20 -1
-37 36 -42 18 -2 38 -8 45 -13 20 -17 72 -8 102 18 29 24 47 58 58 111 6 27
41 49 78 49 18 0 19 2 7 16 -11 14 -11 18 2 28 22 16 63 86 65 110 2 31 -5 38
-23 20 -14 -14 -17 -13 -33 11 l-18 27 -16 -23z"/>
<path d="M17700 1285 c0 -9 6 -29 14 -43 8 -15 17 -39 20 -54 7 -31 42 -68 64
-68 8 0 23 9 33 21 10 11 23 18 28 14 7 -4 11 6 11 25 0 17 6 33 13 35 6 3 12
22 12 43 0 33 -2 37 -25 35 -54 -6 -106 -5 -137 2 -27 6 -33 4 -33 -10z"/>
<path d="M241 1094 c0 -11 3 -14 6 -6 3 7 2 16 -1 19 -3 4 -6 -2 -5 -13z"/>
<path d="M18950 896 c0 -9 7 -16 16 -16 17 0 14 22 -4 28 -7 2 -12 -3 -12 -12z"/>
<path d="M13580 745 c0 -14 1 -28 3 -32 3 -10 41 -3 45 8 7 17 21 9 15 -8 -5
-15 -3 -14 10 2 23 28 21 36 -6 30 -15 -4 -28 -1 -36 9 -19 23 -31 20 -31 -9z"/>
<path d="M6550 569 c0 -14 -5 -19 -14 -16 -10 4 -13 1 -9 -9 7 -20 26 -18 57
7 34 26 33 34 -4 37 -25 2 -30 -1 -30 -19z"/>
<path d="M6630 579 c0 -6 -7 -17 -15 -26 -8 -8 -13 -18 -10 -22 6 -10 55 -2
55 9 0 4 9 10 20 13 12 3 18 11 15 19 -6 15 -65 22 -65 7z"/>
<path d="M6045 496 c-43 -24 -47 -56 -7 -57 l27 0 -22 -16 c-31 -21 -29 -30
10 -47 l32 -14 -30 1 c-37 1 -56 14 -48 33 6 16 -12 20 -22 4 -3 -5 -20 -7
-37 -3 -23 5 -30 3 -26 -8 2 -7 19 -14 36 -14 17 0 36 -6 42 -13 7 -8 7 -9 0
-4 -12 9 -70 4 -70 -7 1 -6 71 -41 84 -41 4 0 4 5 1 10 -12 19 7 10 27 -12 12
-15 21 -19 24 -11 4 8 12 8 32 -3 38 -20 48 -17 27 6 -17 18 -8 30 9 13 10
-10 56 -11 56 -2 0 4 10 7 23 7 52 -3 77 2 77 17 0 8 -7 15 -16 15 -40 0 -163
98 -149 119 13 22 -51 43 -80 27z"/>
<path d="M5795 470 c3 -5 14 -10 23 -10 15 0 15 2 2 10 -20 13 -33 13 -25 0z"/>
<path d="M7791 396 c14 -15 82 -56 91 -56 19 0 -15 32 -49 47 -32 13 -50 17
-42 9z"/>
<path d="M6328 333 c7 -3 16 -2 19 1 4 3 -2 6 -13 5 -11 0 -14 -3 -6 -6z"/>
</g>
</svg>
